  0
SECTION
  2
HEADER
  9
$ACADVER
  1
AC1009
  9
$EXTMIN
 10
0.0
 20
0.0
 30
0.0
  9
$EXTMAX
 10
1000.0
 20
1000.0
 30
0.0
  9
$FILLMODE
 70
 0
  9
$SPLFRAME
 70
 1
  0
ENDSEC
  0
SECTION
  2
TABLES
  0
TABLE
  2
LAYER
 70
1
  0
LAYER
  2
0
 70
     0
 62
     7
  6
CONTINUOUS
  0
ENDTAB
  0
ENDSEC
  0
SECTION
  2
ENTITIES
  0
LINE
  8
0
 62
     0
 10
0.0937066
 20
114.406
 30
0.0
 11
347.756
 21
114.406
 31
0.0
  0
LINE
  8
0
 62
     0
 10
347.756
 20
114.406
 30
0.0
 11
347.756
 21
0.106109
 31
0.0
  0
LINE
  8
0
 62
     0
 10
347.756
 20
0.106109
 30
0.0
 11
0.0937066
 21
0.106109
 31
0.0
  0
LINE
  8
0
 62
     0
 10
0.0937066
 20
0.106109
 30
0.0
 11
0.0937066
 21
114.406
 31
0.0
  0
LINE
  8
0
 62
     0
 10
16.6192
 20
98.8811
 30
0.0
 11
16.6192
 21
97.8807
 31
0.0
  0
LINE
  8
0
 62
     0
 10
16.6192
 20
97.8807
 30
0.0
 11
2.61827
 21
97.8807
 31
0.0
  0
LINE
  8
0
 62
     0
 10
2.61827
 20
97.8807
 30
0.0
 11
2.61827
 21
98.8811
 31
0.0
  0
LINE
  8
0
 62
     0
 10
2.61827
 20
98.8811
 30
0.0
 11
1.81901
 21
98.8811
 31
0.0
  0
LINE
  8
0
 62
     0
 10
1.81901
 20
98.8811
 30
0.0
 11
1.81901
 21
101.982
 31
0.0
  0
LINE
  8
0
 62
     0
 10
1.81901
 20
101.982
 30
0.0
 11
2.61827
 21
101.982
 31
0.0
  0
LINE
  8
0
 62
     0
 10
2.61827
 20
101.982
 30
0.0
 11
2.61827
 21
107.781
 31
0.0
  0
LINE
  8
0
 62
     0
 10
2.61827
 20
107.781
 30
0.0
 11
1.81901
 21
107.781
 31
0.0
  0
LINE
  8
0
 62
     0
 10
1.81901
 20
107.781
 30
0.0
 11
1.81901
 21
110.881
 31
0.0
  0
LINE
  8
0
 62
     0
 10
1.81901
 20
110.881
 30
0.0
 11
2.61827
 21
110.881
 31
0.0
  0
LINE
  8
0
 62
     0
 10
2.61827
 20
110.881
 30
0.0
 11
2.61827
 21
111.882
 31
0.0
  0
LINE
  8
0
 62
     0
 10
2.61827
 20
111.882
 30
0.0
 11
16.6192
 21
111.882
 31
0.0
  0
LINE
  8
0
 62
     0
 10
16.6192
 20
111.882
 30
0.0
 11
16.6192
 21
110.881
 31
0.0
  0
LINE
  8
0
 62
     0
 10
16.6192
 20
110.881
 30
0.0
 11
17.4184
 21
110.881
 31
0.0
  0
LINE
  8
0
 62
     0
 10
17.4184
 20
110.881
 30
0.0
 11
17.4184
 21
107.781
 31
0.0
  0
LINE
  8
0
 62
     0
 10
17.4184
 20
107.781
 30
0.0
 11
16.6192
 21
107.781
 31
0.0
  0
LINE
  8
0
 62
     0
 10
16.6192
 20
107.781
 30
0.0
 11
16.6192
 21
101.982
 31
0.0
  0
LINE
  8
0
 62
     0
 10
16.6192
 20
101.982
 30
0.0
 11
17.4184
 21
101.982
 31
0.0
  0
LINE
  8
0
 62
     0
 10
17.4184
 20
101.982
 30
0.0
 11
17.4184
 21
98.8811
 31
0.0
  0
LINE
  8
0
 62
     0
 10
17.4184
 20
98.8811
 30
0.0
 11
16.6192
 21
98.8811
 31
0.0
  0
LINE
  8
0
 62
     0
 10
16.6192
 20
79.8311
 30
0.0
 11
16.6192
 21
78.8307
 31
0.0
  0
LINE
  8
0
 62
     0
 10
16.6192
 20
78.8307
 30
0.0
 11
2.61827
 21
78.8307
 31
0.0
  0
LINE
  8
0
 62
     0
 10
2.61827
 20
78.8307
 30
0.0
 11
2.61827
 21
79.8311
 31
0.0
  0
LINE
  8
0
 62
     0
 10
2.61827
 20
79.8311
 30
0.0
 11
1.81901
 21
79.8311
 31
0.0
  0
LINE
  8
0
 62
     0
 10
1.81901
 20
79.8311
 30
0.0
 11
1.81901
 21
82.9317
 31
0.0
  0
LINE
  8
0
 62
     0
 10
1.81901
 20
82.9317
 30
0.0
 11
2.61827
 21
82.9317
 31
0.0
  0
LINE
  8
0
 62
     0
 10
2.61827
 20
82.9317
 30
0.0
 11
2.61827
 21
88.7307
 31
0.0
  0
LINE
  8
0
 62
     0
 10
2.61827
 20
88.7307
 30
0.0
 11
1.81901
 21
88.7307
 31
0.0
  0
LINE
  8
0
 62
     0
 10
1.81901
 20
88.7307
 30
0.0
 11
1.81901
 21
91.8312
 31
0.0
  0
LINE
  8
0
 62
     0
 10
1.81901
 20
91.8312
 30
0.0
 11
2.61827
 21
91.8312
 31
0.0
  0
LINE
  8
0
 62
     0
 10
2.61827
 20
91.8312
 30
0.0
 11
2.61827
 21
92.8317
 31
0.0
  0
LINE
  8
0
 62
     0
 10
2.61827
 20
92.8317
 30
0.0
 11
16.6192
 21
92.8317
 31
0.0
  0
LINE
  8
0
 62
     0
 10
16.6192
 20
92.8317
 30
0.0
 11
16.6192
 21
91.8312
 31
0.0
  0
LINE
  8
0
 62
     0
 10
16.6192
 20
91.8312
 30
0.0
 11
17.4184
 21
91.8312
 31
0.0
  0
LINE
  8
0
 62
     0
 10
17.4184
 20
91.8312
 30
0.0
 11
17.4184
 21
88.7307
 31
0.0
  0
LINE
  8
0
 62
     0
 10
17.4184
 20
88.7307
 30
0.0
 11
16.6192
 21
88.7307
 31
0.0
  0
LINE
  8
0
 62
     0
 10
16.6192
 20
88.7307
 30
0.0
 11
16.6192
 21
82.9317
 31
0.0
  0
LINE
  8
0
 62
     0
 10
16.6192
 20
82.9317
 30
0.0
 11
17.4184
 21
82.9317
 31
0.0
  0
LINE
  8
0
 62
     0
 10
17.4184
 20
82.9317
 30
0.0
 11
17.4184
 21
79.8311
 31
0.0
  0
LINE
  8
0
 62
     0
 10
17.4184
 20
79.8311
 30
0.0
 11
16.6192
 21
79.8311
 31
0.0
  0
LINE
  8
0
 62
     0
 10
19.0004
 20
3.63114
 30
0.0
 11
19.0004
 21
2.63067
 31
0.0
  0
LINE
  8
0
 62
     0
 10
19.0004
 20
2.63067
 30
0.0
 11
4.99953
 21
2.63067
 31
0.0
  0
LINE
  8
0
 62
     0
 10
4.99953
 20
2.63067
 30
0.0
 11
4.99953
 21
3.63114
 31
0.0
  0
LINE
  8
0
 62
     0
 10
4.99953
 20
3.63114
 30
0.0
 11
4.20028
 21
3.63114
 31
0.0
  0
LINE
  8
0
 62
     0
 10
4.20028
 20
3.63114
 30
0.0
 11
4.20028
 21
6.73171
 31
0.0
  0
LINE
  8
0
 62
     0
 10
4.20028
 20
6.73171
 30
0.0
 11
4.99953
 21
6.73171
 31
0.0
  0
LINE
  8
0
 62
     0
 10
4.99953
 20
6.73171
 30
0.0
 11
4.99953
 21
12.5305
 31
0.0
  0
LINE
  8
0
 62
     0
 10
4.99953
 20
12.5305
 30
0.0
 11
4.20028
 21
12.5305
 31
0.0
  0
LINE
  8
0
 62
     0
 10
4.20028
 20
12.5305
 30
0.0
 11
4.20028
 21
15.6311
 31
0.0
  0
LINE
  8
0
 62
     0
 10
4.20028
 20
15.6311
 30
0.0
 11
4.99953
 21
15.6311
 31
0.0
  0
LINE
  8
0
 62
     0
 10
4.99953
 20
15.6311
 30
0.0
 11
4.99953
 21
16.6315
 31
0.0
  0
LINE
  8
0
 62
     0
 10
4.99953
 20
16.6315
 30
0.0
 11
19.0004
 21
16.6315
 31
0.0
  0
LINE
  8
0
 62
     0
 10
19.0004
 20
16.6315
 30
0.0
 11
19.0004
 21
15.6311
 31
0.0
  0
LINE
  8
0
 62
     0
 10
19.0004
 20
15.6311
 30
0.0
 11
19.7997
 21
15.6311
 31
0.0
  0
LINE
  8
0
 62
     0
 10
19.7997
 20
15.6311
 30
0.0
 11
19.7997
 21
12.5305
 31
0.0
  0
LINE
  8
0
 62
     0
 10
19.7997
 20
12.5305
 30
0.0
 11
19.0004
 21
12.5305
 31
0.0
  0
LINE
  8
0
 62
     0
 10
19.0004
 20
12.5305
 30
0.0
 11
19.0004
 21
6.73171
 31
0.0
  0
LINE
  8
0
 62
     0
 10
19.0004
 20
6.73171
 30
0.0
 11
19.7997
 21
6.73171
 31
0.0
  0
LINE
  8
0
 62
     0
 10
19.7997
 20
6.73171
 30
0.0
 11
19.7997
 21
3.63114
 31
0.0
  0
LINE
  8
0
 62
     0
 10
19.7997
 20
3.63114
 30
0.0
 11
19.0004
 21
3.63114
 31
0.0
  0
LINE
  8
0
 62
     0
 10
21.3817
 20
60.7811
 30
0.0
 11
21.3817
 21
59.7807
 31
0.0
  0
LINE
  8
0
 62
     0
 10
21.3817
 20
59.7807
 30
0.0
 11
7.38216
 21
59.7807
 31
0.0
  0
LINE
  8
0
 62
     0
 10
7.38216
 20
59.7807
 30
0.0
 11
7.38216
 21
60.7811
 31
0.0
  0
LINE
  8
0
 62
     0
 10
7.38216
 20
60.7811
 30
0.0
 11
6.58153
 21
60.7811
 31
0.0
  0
LINE
  8
0
 62
     0
 10
6.58153
 20
60.7811
 30
0.0
 11
6.58153
 21
63.8817
 31
0.0
  0
LINE
  8
0
 62
     0
 10
6.58153
 20
63.8817
 30
0.0
 11
7.38216
 21
63.8817
 31
0.0
  0
LINE
  8
0
 62
     0
 10
7.38216
 20
63.8817
 30
0.0
 11
7.38216
 21
69.6807
 31
0.0
  0
LINE
  8
0
 62
     0
 10
7.38216
 20
69.6807
 30
0.0
 11
6.58153
 21
69.6807
 31
0.0
  0
LINE
  8
0
 62
     0
 10
6.58153
 20
69.6807
 30
0.0
 11
6.58153
 21
72.7812
 31
0.0
  0
LINE
  8
0
 62
     0
 10
6.58153
 20
72.7812
 30
0.0
 11
7.38216
 21
72.7812
 31
0.0
  0
LINE
  8
0
 62
     0
 10
7.38216
 20
72.7812
 30
0.0
 11
7.38216
 21
73.7817
 31
0.0
  0
LINE
  8
0
 62
     0
 10
7.38216
 20
73.7817
 30
0.0
 11
21.3817
 21
73.7817
 31
0.0
  0
LINE
  8
0
 62
     0
 10
21.3817
 20
73.7817
 30
0.0
 11
21.3817
 21
72.7812
 31
0.0
  0
LINE
  8
0
 62
     0
 10
21.3817
 20
72.7812
 30
0.0
 11
22.1823
 21
72.7812
 31
0.0
  0
LINE
  8
0
 62
     0
 10
22.1823
 20
72.7812
 30
0.0
 11
22.1823
 21
69.6807
 31
0.0
  0
LINE
  8
0
 62
     0
 10
22.1823
 20
69.6807
 30
0.0
 11
21.3817
 21
69.6807
 31
0.0
  0
LINE
  8
0
 62
     0
 10
21.3817
 20
69.6807
 30
0.0
 11
21.3817
 21
63.8817
 31
0.0
  0
LINE
  8
0
 62
     0
 10
21.3817
 20
63.8817
 30
0.0
 11
22.1823
 21
63.8817
 31
0.0
  0
LINE
  8
0
 62
     0
 10
22.1823
 20
63.8817
 30
0.0
 11
22.1823
 21
60.7811
 31
0.0
  0
LINE
  8
0
 62
     0
 10
22.1823
 20
60.7811
 30
0.0
 11
21.3817
 21
60.7811
 31
0.0
  0
LINE
  8
0
 62
     0
 10
23.7629
 20
41.7311
 30
0.0
 11
23.7629
 21
40.7307
 31
0.0
  0
LINE
  8
0
 62
     0
 10
23.7629
 20
40.7307
 30
0.0
 11
9.76341
 21
40.7307
 31
0.0
  0
LINE
  8
0
 62
     0
 10
9.76341
 20
40.7307
 30
0.0
 11
9.76341
 21
41.7311
 31
0.0
  0
LINE
  8
0
 62
     0
 10
9.76341
 20
41.7311
 30
0.0
 11
8.96278
 21
41.7311
 31
0.0
  0
LINE
  8
0
 62
     0
 10
8.96278
 20
41.7311
 30
0.0
 11
8.96278
 21
44.8317
 31
0.0
  0
LINE
  8
0
 62
     0
 10
8.96278
 20
44.8317
 30
0.0
 11
9.76341
 21
44.8317
 31
0.0
  0
LINE
  8
0
 62
     0
 10
9.76341
 20
44.8317
 30
0.0
 11
9.76341
 21
50.6307
 31
0.0
  0
LINE
  8
0
 62
     0
 10
9.76341
 20
50.6307
 30
0.0
 11
8.96278
 21
50.6307
 31
0.0
  0
LINE
  8
0
 62
     0
 10
8.96278
 20
50.6307
 30
0.0
 11
8.96278
 21
53.7312
 31
0.0
  0
LINE
  8
0
 62
     0
 10
8.96278
 20
53.7312
 30
0.0
 11
9.76341
 21
53.7312
 31
0.0
  0
LINE
  8
0
 62
     0
 10
9.76341
 20
53.7312
 30
0.0
 11
9.76341
 21
54.7317
 31
0.0
  0
LINE
  8
0
 62
     0
 10
9.76341
 20
54.7317
 30
0.0
 11
23.7629
 21
54.7317
 31
0.0
  0
LINE
  8
0
 62
     0
 10
23.7629
 20
54.7317
 30
0.0
 11
23.7629
 21
53.7312
 31
0.0
  0
LINE
  8
0
 62
     0
 10
23.7629
 20
53.7312
 30
0.0
 11
24.5622
 21
53.7312
 31
0.0
  0
LINE
  8
0
 62
     0
 10
24.5622
 20
53.7312
 30
0.0
 11
24.5622
 21
50.6307
 31
0.0
  0
LINE
  8
0
 62
     0
 10
24.5622
 20
50.6307
 30
0.0
 11
23.7629
 21
50.6307
 31
0.0
  0
LINE
  8
0
 62
     0
 10
23.7629
 20
50.6307
 30
0.0
 11
23.7629
 21
44.8317
 31
0.0
  0
LINE
  8
0
 62
     0
 10
23.7629
 20
44.8317
 30
0.0
 11
24.5622
 21
44.8317
 31
0.0
  0
LINE
  8
0
 62
     0
 10
24.5622
 20
44.8317
 30
0.0
 11
24.5622
 21
41.7311
 31
0.0
  0
LINE
  8
0
 62
     0
 10
24.5622
 20
41.7311
 30
0.0
 11
23.7629
 21
41.7311
 31
0.0
  0
LINE
  8
0
 62
     0
 10
35.669
 20
98.8811
 30
0.0
 11
35.669
 21
97.8807
 31
0.0
  0
LINE
  8
0
 62
     0
 10
35.669
 20
97.8807
 30
0.0
 11
21.6683
 21
97.8807
 31
0.0
  0
LINE
  8
0
 62
     0
 10
21.6683
 20
97.8807
 30
0.0
 11
21.6683
 21
98.8811
 31
0.0
  0
LINE
  8
0
 62
     0
 10
21.6683
 20
98.8811
 30
0.0
 11
20.869
 21
98.8811
 31
0.0
  0
LINE
  8
0
 62
     0
 10
20.869
 20
98.8811
 30
0.0
 11
20.869
 21
101.982
 31
0.0
  0
LINE
  8
0
 62
     0
 10
20.869
 20
101.982
 30
0.0
 11
21.6683
 21
101.982
 31
0.0
  0
LINE
  8
0
 62
     0
 10
21.6683
 20
101.982
 30
0.0
 11
21.6683
 21
107.781
 31
0.0
  0
LINE
  8
0
 62
     0
 10
21.6683
 20
107.781
 30
0.0
 11
20.869
 21
107.781
 31
0.0
  0
LINE
  8
0
 62
     0
 10
20.869
 20
107.781
 30
0.0
 11
20.869
 21
110.881
 31
0.0
  0
LINE
  8
0
 62
     0
 10
20.869
 20
110.881
 30
0.0
 11
21.6683
 21
110.881
 31
0.0
  0
LINE
  8
0
 62
     0
 10
21.6683
 20
110.881
 30
0.0
 11
21.6683
 21
111.882
 31
0.0
  0
LINE
  8
0
 62
     0
 10
21.6683
 20
111.882
 30
0.0
 11
35.669
 21
111.882
 31
0.0
  0
LINE
  8
0
 62
     0
 10
35.669
 20
111.882
 30
0.0
 11
35.669
 21
110.881
 31
0.0
  0
LINE
  8
0
 62
     0
 10
35.669
 20
110.881
 30
0.0
 11
36.4684
 21
110.881
 31
0.0
  0
LINE
  8
0
 62
     0
 10
36.4684
 20
110.881
 30
0.0
 11
36.4684
 21
107.781
 31
0.0
  0
LINE
  8
0
 62
     0
 10
36.4684
 20
107.781
 30
0.0
 11
35.669
 21
107.781
 31
0.0
  0
LINE
  8
0
 62
     0
 10
35.669
 20
107.781
 30
0.0
 11
35.669
 21
101.982
 31
0.0
  0
LINE
  8
0
 62
     0
 10
35.669
 20
101.982
 30
0.0
 11
36.4684
 21
101.982
 31
0.0
  0
LINE
  8
0
 62
     0
 10
36.4684
 20
101.982
 30
0.0
 11
36.4684
 21
98.8811
 31
0.0
  0
LINE
  8
0
 62
     0
 10
36.4684
 20
98.8811
 30
0.0
 11
35.669
 21
98.8811
 31
0.0
  0
LINE
  8
0
 62
     0
 10
35.669
 20
79.8311
 30
0.0
 11
35.669
 21
78.8307
 31
0.0
  0
LINE
  8
0
 62
     0
 10
35.669
 20
78.8307
 30
0.0
 11
21.6683
 21
78.8307
 31
0.0
  0
LINE
  8
0
 62
     0
 10
21.6683
 20
78.8307
 30
0.0
 11
21.6683
 21
79.8311
 31
0.0
  0
LINE
  8
0
 62
     0
 10
21.6683
 20
79.8311
 30
0.0
 11
20.869
 21
79.8311
 31
0.0
  0
LINE
  8
0
 62
     0
 10
20.869
 20
79.8311
 30
0.0
 11
20.869
 21
82.9317
 31
0.0
  0
LINE
  8
0
 62
     0
 10
20.869
 20
82.9317
 30
0.0
 11
21.6683
 21
82.9317
 31
0.0
  0
LINE
  8
0
 62
     0
 10
21.6683
 20
82.9317
 30
0.0
 11
21.6683
 21
88.7307
 31
0.0
  0
LINE
  8
0
 62
     0
 10
21.6683
 20
88.7307
 30
0.0
 11
20.869
 21
88.7307
 31
0.0
  0
LINE
  8
0
 62
     0
 10
20.869
 20
88.7307
 30
0.0
 11
20.869
 21
91.8312
 31
0.0
  0
LINE
  8
0
 62
     0
 10
20.869
 20
91.8312
 30
0.0
 11
21.6683
 21
91.8312
 31
0.0
  0
LINE
  8
0
 62
     0
 10
21.6683
 20
91.8312
 30
0.0
 11
21.6683
 21
92.8317
 31
0.0
  0
LINE
  8
0
 62
     0
 10
21.6683
 20
92.8317
 30
0.0
 11
35.669
 21
92.8317
 31
0.0
  0
LINE
  8
0
 62
     0
 10
35.669
 20
92.8317
 30
0.0
 11
35.669
 21
91.8312
 31
0.0
  0
LINE
  8
0
 62
     0
 10
35.669
 20
91.8312
 30
0.0
 11
36.4684
 21
91.8312
 31
0.0
  0
LINE
  8
0
 62
     0
 10
36.4684
 20
91.8312
 30
0.0
 11
36.4684
 21
88.7307
 31
0.0
  0
LINE
  8
0
 62
     0
 10
36.4684
 20
88.7307
 30
0.0
 11
35.669
 21
88.7307
 31
0.0
  0
LINE
  8
0
 62
     0
 10
35.669
 20
88.7307
 30
0.0
 11
35.669
 21
82.9317
 31
0.0
  0
LINE
  8
0
 62
     0
 10
35.669
 20
82.9317
 30
0.0
 11
36.4684
 21
82.9317
 31
0.0
  0
LINE
  8
0
 62
     0
 10
36.4684
 20
82.9317
 30
0.0
 11
36.4684
 21
79.8311
 31
0.0
  0
LINE
  8
0
 62
     0
 10
36.4684
 20
79.8311
 30
0.0
 11
35.669
 21
79.8311
 31
0.0
  0
LINE
  8
0
 62
     0
 10
36.7496
 20
28.1809
 30
0.0
 11
36.7496
 21
21.9108
 31
0.0
  0
LINE
  8
0
 62
     0
 10
36.7496
 20
21.9108
 30
0.0
 11
35.1248
 21
21.9108
 31
0.0
  0
LINE
  8
0
 62
     0
 10
35.1248
 20
21.9108
 30
0.0
 11
35.1248
 21
20.931
 31
0.0
  0
LINE
  8
0
 62
     0
 10
35.1248
 20
20.931
 30
0.0
 11
31.8244
 21
20.931
 31
0.0
  0
LINE
  8
0
 62
     0
 10
31.8244
 20
20.931
 30
0.0
 11
31.8244
 21
21.9108
 31
0.0
  0
LINE
  8
0
 62
     0
 10
31.8244
 20
21.9108
 30
0.0
 11
30.0991
 21
21.9108
 31
0.0
  0
LINE
  8
0
 62
     0
 10
30.0991
 20
21.9108
 30
0.0
 11
30.0991
 21
22.7114
 31
0.0
  0
LINE
  8
0
 62
     0
 10
30.0991
 20
22.7114
 30
0.0
 11
29.3247
 21
22.7114
 31
0.0
  0
LINE
  8
0
 62
     0
 10
29.3247
 20
22.7114
 30
0.0
 11
29.3247
 21
22.6811
 31
0.0
  0
LINE
  8
0
 62
     0
 10
29.3247
 20
22.6811
 30
0.0
 11
28.5254
 21
22.6811
 31
0.0
  0
LINE
  8
0
 62
     0
 10
28.5254
 20
22.6811
 30
0.0
 11
28.5254
 21
21.6807
 31
0.0
  0
LINE
  8
0
 62
     0
 10
28.5254
 20
21.6807
 30
0.0
 11
14.5245
 21
21.6807
 31
0.0
  0
LINE
  8
0
 62
     0
 10
14.5245
 20
21.6807
 30
0.0
 11
14.5245
 21
22.6811
 31
0.0
  0
LINE
  8
0
 62
     0
 10
14.5245
 20
22.6811
 30
0.0
 11
13.7253
 21
22.6811
 31
0.0
  0
LINE
  8
0
 62
     0
 10
13.7253
 20
22.6811
 30
0.0
 11
13.7253
 21
22.7114
 31
0.0
  0
LINE
  8
0
 62
     0
 10
13.7253
 20
22.7114
 30
0.0
 11
12.9494
 21
22.7114
 31
0.0
  0
LINE
  8
0
 62
     0
 10
12.9494
 20
22.7114
 30
0.0
 11
12.9494
 21
21.9108
 31
0.0
  0
LINE
  8
0
 62
     0
 10
12.9494
 20
21.9108
 30
0.0
 11
11.2241
 21
21.9108
 31
0.0
  0
LINE
  8
0
 62
     0
 10
11.2241
 20
21.9108
 30
0.0
 11
11.2241
 21
20.931
 31
0.0
  0
LINE
  8
0
 62
     0
 10
11.2241
 20
20.931
 30
0.0
 11
7.92508
 21
20.931
 31
0.0
  0
LINE
  8
0
 62
     0
 10
7.92508
 20
20.931
 30
0.0
 11
7.92508
 21
21.9108
 31
0.0
  0
LINE
  8
0
 62
     0
 10
7.92508
 20
21.9108
 30
0.0
 11
6.3004
 21
21.9108
 31
0.0
  0
LINE
  8
0
 62
     0
 10
6.3004
 20
21.9108
 30
0.0
 11
6.3004
 21
28.1809
 31
0.0
  0
LINE
  8
0
 62
     0
 10
6.3004
 20
28.1809
 30
0.0
 11
5.42533
 21
28.1809
 31
0.0
  0
LINE
  8
0
 62
     0
 10
5.42533
 20
28.1809
 30
0.0
 11
5.42533
 21
30.981
 31
0.0
  0
LINE
  8
0
 62
     0
 10
5.42533
 20
30.981
 30
0.0
 11
6.3004
 21
30.981
 31
0.0
  0
LINE
  8
0
 62
     0
 10
6.3004
 20
30.981
 30
0.0
 11
6.3004
 21
34.2112
 31
0.0
  0
LINE
  8
0
 62
     0
 10
6.3004
 20
34.2112
 30
0.0
 11
7.92508
 21
34.2112
 31
0.0
  0
LINE
  8
0
 62
     0
 10
7.92508
 20
34.2112
 30
0.0
 11
7.92508
 21
35.1317
 31
0.0
  0
LINE
  8
0
 62
     0
 10
7.92508
 20
35.1317
 30
0.0
 11
11.2241
 21
35.1317
 31
0.0
  0
LINE
  8
0
 62
     0
 10
11.2241
 20
35.1317
 30
0.0
 11
11.2241
 21
34.2112
 31
0.0
  0
LINE
  8
0
 62
     0
 10
11.2241
 20
34.2112
 30
0.0
 11
12.9494
 21
34.2112
 31
0.0
  0
LINE
  8
0
 62
     0
 10
12.9494
 20
34.2112
 30
0.0
 11
12.9494
 21
33.4105
 31
0.0
  0
LINE
  8
0
 62
     0
 10
12.9494
 20
33.4105
 30
0.0
 11
13.7253
 21
33.4105
 31
0.0
  0
LINE
  8
0
 62
     0
 10
13.7253
 20
33.4105
 30
0.0
 11
13.7253
 21
34.6811
 31
0.0
  0
LINE
  8
0
 62
     0
 10
13.7253
 20
34.6811
 30
0.0
 11
14.5245
 21
34.6811
 31
0.0
  0
LINE
  8
0
 62
     0
 10
14.5245
 20
34.6811
 30
0.0
 11
14.5245
 21
35.6817
 31
0.0
  0
LINE
  8
0
 62
     0
 10
14.5245
 20
35.6817
 30
0.0
 11
28.5254
 21
35.6817
 31
0.0
  0
LINE
  8
0
 62
     0
 10
28.5254
 20
35.6817
 30
0.0
 11
28.5254
 21
34.6811
 31
0.0
  0
LINE
  8
0
 62
     0
 10
28.5254
 20
34.6811
 30
0.0
 11
29.3247
 21
34.6811
 31
0.0
  0
LINE
  8
0
 62
     0
 10
29.3247
 20
34.6811
 30
0.0
 11
29.3247
 21
33.4105
 31
0.0
  0
LINE
  8
0
 62
     0
 10
29.3247
 20
33.4105
 30
0.0
 11
30.0991
 21
33.4105
 31
0.0
  0
LINE
  8
0
 62
     0
 10
30.0991
 20
33.4105
 30
0.0
 11
30.0991
 21
34.2112
 31
0.0
  0
LINE
  8
0
 62
     0
 10
30.0991
 20
34.2112
 30
0.0
 11
31.8244
 21
34.2112
 31
0.0
  0
LINE
  8
0
 62
     0
 10
31.8244
 20
34.2112
 30
0.0
 11
31.8244
 21
35.1317
 31
0.0
  0
LINE
  8
0
 62
     0
 10
31.8244
 20
35.1317
 30
0.0
 11
35.1248
 21
35.1317
 31
0.0
  0
LINE
  8
0
 62
     0
 10
35.1248
 20
35.1317
 30
0.0
 11
35.1248
 21
34.2112
 31
0.0
  0
LINE
  8
0
 62
     0
 10
35.1248
 20
34.2112
 30
0.0
 11
36.7496
 21
34.2112
 31
0.0
  0
LINE
  8
0
 62
     0
 10
36.7496
 20
34.2112
 30
0.0
 11
36.7496
 21
30.981
 31
0.0
  0
LINE
  8
0
 62
     0
 10
36.7496
 20
30.981
 30
0.0
 11
37.6245
 21
30.981
 31
0.0
  0
LINE
  8
0
 62
     0
 10
37.6245
 20
30.981
 30
0.0
 11
37.6245
 21
28.1809
 31
0.0
  0
LINE
  8
0
 62
     0
 10
37.6245
 20
28.1809
 30
0.0
 11
36.7496
 21
28.1809
 31
0.0
  0
LINE
  8
0
 62
     0
 10
42.8128
 20
3.63114
 30
0.0
 11
42.8128
 21
2.63067
 31
0.0
  0
LINE
  8
0
 62
     0
 10
42.8128
 20
2.63067
 30
0.0
 11
28.8134
 21
2.63067
 31
0.0
  0
LINE
  8
0
 62
     0
 10
28.8134
 20
2.63067
 30
0.0
 11
28.8134
 21
3.63114
 31
0.0
  0
LINE
  8
0
 62
     0
 10
28.8134
 20
3.63114
 30
0.0
 11
28.0128
 21
3.63114
 31
0.0
  0
LINE
  8
0
 62
     0
 10
28.0128
 20
3.63114
 30
0.0
 11
28.0128
 21
6.73171
 31
0.0
  0
LINE
  8
0
 62
     0
 10
28.0128
 20
6.73171
 30
0.0
 11
28.8134
 21
6.73171
 31
0.0
  0
LINE
  8
0
 62
     0
 10
28.8134
 20
6.73171
 30
0.0
 11
28.8134
 21
12.5305
 31
0.0
  0
LINE
  8
0
 62
     0
 10
28.8134
 20
12.5305
 30
0.0
 11
28.0128
 21
12.5305
 31
0.0
  0
LINE
  8
0
 62
     0
 10
28.0128
 20
12.5305
 30
0.0
 11
28.0128
 21
15.6311
 31
0.0
  0
LINE
  8
0
 62
     0
 10
28.0128
 20
15.6311
 30
0.0
 11
28.8134
 21
15.6311
 31
0.0
  0
LINE
  8
0
 62
     0
 10
28.8134
 20
15.6311
 30
0.0
 11
28.8134
 21
16.6315
 31
0.0
  0
LINE
  8
0
 62
     0
 10
28.8134
 20
16.6315
 30
0.0
 11
42.8128
 21
16.6315
 31
0.0
  0
LINE
  8
0
 62
     0
 10
42.8128
 20
16.6315
 30
0.0
 11
42.8128
 21
15.6311
 31
0.0
  0
LINE
  8
0
 62
     0
 10
42.8128
 20
15.6311
 30
0.0
 11
43.6122
 21
15.6311
 31
0.0
  0
LINE
  8
0
 62
     0
 10
43.6122
 20
15.6311
 30
0.0
 11
43.6122
 21
12.5305
 31
0.0
  0
LINE
  8
0
 62
     0
 10
43.6122
 20
12.5305
 30
0.0
 11
42.8128
 21
12.5305
 31
0.0
  0
LINE
  8
0
 62
     0
 10
42.8128
 20
12.5305
 30
0.0
 11
42.8128
 21
6.73171
 31
0.0
  0
LINE
  8
0
 62
     0
 10
42.8128
 20
6.73171
 30
0.0
 11
43.6122
 21
6.73171
 31
0.0
  0
LINE
  8
0
 62
     0
 10
43.6122
 20
6.73171
 30
0.0
 11
43.6122
 21
3.63114
 31
0.0
  0
LINE
  8
0
 62
     0
 10
43.6122
 20
3.63114
 30
0.0
 11
42.8128
 21
3.63114
 31
0.0
  0
LINE
  8
0
 62
     0
 10
45.194
 20
60.7811
 30
0.0
 11
45.194
 21
59.7807
 31
0.0
  0
LINE
  8
0
 62
     0
 10
45.194
 20
59.7807
 30
0.0
 11
31.1933
 21
59.7807
 31
0.0
  0
LINE
  8
0
 62
     0
 10
31.1933
 20
59.7807
 30
0.0
 11
31.1933
 21
60.7811
 31
0.0
  0
LINE
  8
0
 62
     0
 10
31.1933
 20
60.7811
 30
0.0
 11
30.394
 21
60.7811
 31
0.0
  0
LINE
  8
0
 62
     0
 10
30.394
 20
60.7811
 30
0.0
 11
30.394
 21
63.8817
 31
0.0
  0
LINE
  8
0
 62
     0
 10
30.394
 20
63.8817
 30
0.0
 11
31.1933
 21
63.8817
 31
0.0
  0
LINE
  8
0
 62
     0
 10
31.1933
 20
63.8817
 30
0.0
 11
31.1933
 21
69.6807
 31
0.0
  0
LINE
  8
0
 62
     0
 10
31.1933
 20
69.6807
 30
0.0
 11
30.394
 21
69.6807
 31
0.0
  0
LINE
  8
0
 62
     0
 10
30.394
 20
69.6807
 30
0.0
 11
30.394
 21
72.7812
 31
0.0
  0
LINE
  8
0
 62
     0
 10
30.394
 20
72.7812
 30
0.0
 11
31.1933
 21
72.7812
 31
0.0
  0
LINE
  8
0
 62
     0
 10
31.1933
 20
72.7812
 30
0.0
 11
31.1933
 21
73.7817
 31
0.0
  0
LINE
  8
0
 62
     0
 10
31.1933
 20
73.7817
 30
0.0
 11
45.194
 21
73.7817
 31
0.0
  0
LINE
  8
0
 62
     0
 10
45.194
 20
73.7817
 30
0.0
 11
45.194
 21
72.7812
 31
0.0
  0
LINE
  8
0
 62
     0
 10
45.194
 20
72.7812
 30
0.0
 11
45.9934
 21
72.7812
 31
0.0
  0
LINE
  8
0
 62
     0
 10
45.9934
 20
72.7812
 30
0.0
 11
45.9934
 21
69.6807
 31
0.0
  0
LINE
  8
0
 62
     0
 10
45.9934
 20
69.6807
 30
0.0
 11
45.194
 21
69.6807
 31
0.0
  0
LINE
  8
0
 62
     0
 10
45.194
 20
69.6807
 30
0.0
 11
45.194
 21
63.8817
 31
0.0
  0
LINE
  8
0
 62
     0
 10
45.194
 20
63.8817
 30
0.0
 11
45.9934
 21
63.8817
 31
0.0
  0
LINE
  8
0
 62
     0
 10
45.9934
 20
63.8817
 30
0.0
 11
45.9934
 21
60.7811
 31
0.0
  0
LINE
  8
0
 62
     0
 10
45.9934
 20
60.7811
 30
0.0
 11
45.194
 21
60.7811
 31
0.0
  0
LINE
  8
0
 62
     0
 10
49.9551
 20
41.7311
 30
0.0
 11
49.9551
 21
40.7307
 31
0.0
  0
LINE
  8
0
 62
     0
 10
49.9551
 20
40.7307
 30
0.0
 11
35.9558
 21
40.7307
 31
0.0
  0
LINE
  8
0
 62
     0
 10
35.9558
 20
40.7307
 30
0.0
 11
35.9558
 21
41.7311
 31
0.0
  0
LINE
  8
0
 62
     0
 10
35.9558
 20
41.7311
 30
0.0
 11
35.1551
 21
41.7311
 31
0.0
  0
LINE
  8
0
 62
     0
 10
35.1551
 20
41.7311
 30
0.0
 11
35.1551
 21
44.8317
 31
0.0
  0
LINE
  8
0
 62
     0
 10
35.1551
 20
44.8317
 30
0.0
 11
35.9558
 21
44.8317
 31
0.0
  0
LINE
  8
0
 62
     0
 10
35.9558
 20
44.8317
 30
0.0
 11
35.9558
 21
50.6307
 31
0.0
  0
LINE
  8
0
 62
     0
 10
35.9558
 20
50.6307
 30
0.0
 11
35.1551
 21
50.6307
 31
0.0
  0
LINE
  8
0
 62
     0
 10
35.1551
 20
50.6307
 30
0.0
 11
35.1551
 21
53.7312
 31
0.0
  0
LINE
  8
0
 62
     0
 10
35.1551
 20
53.7312
 30
0.0
 11
35.9558
 21
53.7312
 31
0.0
  0
LINE
  8
0
 62
     0
 10
35.9558
 20
53.7312
 30
0.0
 11
35.9558
 21
54.7317
 31
0.0
  0
LINE
  8
0
 62
     0
 10
35.9558
 20
54.7317
 30
0.0
 11
49.9551
 21
54.7317
 31
0.0
  0
LINE
  8
0
 62
     0
 10
49.9551
 20
54.7317
 30
0.0
 11
49.9551
 21
53.7312
 31
0.0
  0
LINE
  8
0
 62
     0
 10
49.9551
 20
53.7312
 30
0.0
 11
50.7559
 21
53.7312
 31
0.0
  0
LINE
  8
0
 62
     0
 10
50.7559
 20
53.7312
 30
0.0
 11
50.7559
 21
50.6307
 31
0.0
  0
LINE
  8
0
 62
     0
 10
50.7559
 20
50.6307
 30
0.0
 11
49.9551
 21
50.6307
 31
0.0
  0
LINE
  8
0
 62
     0
 10
49.9551
 20
50.6307
 30
0.0
 11
49.9551
 21
44.8317
 31
0.0
  0
LINE
  8
0
 62
     0
 10
49.9551
 20
44.8317
 30
0.0
 11
50.7559
 21
44.8317
 31
0.0
  0
LINE
  8
0
 62
     0
 10
50.7559
 20
44.8317
 30
0.0
 11
50.7559
 21
41.7311
 31
0.0
  0
LINE
  8
0
 62
     0
 10
50.7559
 20
41.7311
 30
0.0
 11
49.9551
 21
41.7311
 31
0.0
  0
LINE
  8
0
 62
     0
 10
54.719
 20
98.8811
 30
0.0
 11
54.719
 21
97.8807
 31
0.0
  0
LINE
  8
0
 62
     0
 10
54.719
 20
97.8807
 30
0.0
 11
40.7183
 21
97.8807
 31
0.0
  0
LINE
  8
0
 62
     0
 10
40.7183
 20
97.8807
 30
0.0
 11
40.7183
 21
98.8811
 31
0.0
  0
LINE
  8
0
 62
     0
 10
40.7183
 20
98.8811
 30
0.0
 11
39.9189
 21
98.8811
 31
0.0
  0
LINE
  8
0
 62
     0
 10
39.9189
 20
98.8811
 30
0.0
 11
39.9189
 21
101.982
 31
0.0
  0
LINE
  8
0
 62
     0
 10
39.9189
 20
101.982
 30
0.0
 11
40.7183
 21
101.982
 31
0.0
  0
LINE
  8
0
 62
     0
 10
40.7183
 20
101.982
 30
0.0
 11
40.7183
 21
107.781
 31
0.0
  0
LINE
  8
0
 62
     0
 10
40.7183
 20
107.781
 30
0.0
 11
39.9189
 21
107.781
 31
0.0
  0
LINE
  8
0
 62
     0
 10
39.9189
 20
107.781
 30
0.0
 11
39.9189
 21
110.881
 31
0.0
  0
LINE
  8
0
 62
     0
 10
39.9189
 20
110.881
 30
0.0
 11
40.7183
 21
110.881
 31
0.0
  0
LINE
  8
0
 62
     0
 10
40.7183
 20
110.881
 30
0.0
 11
40.7183
 21
111.882
 31
0.0
  0
LINE
  8
0
 62
     0
 10
40.7183
 20
111.882
 30
0.0
 11
54.719
 21
111.882
 31
0.0
  0
LINE
  8
0
 62
     0
 10
54.719
 20
111.882
 30
0.0
 11
54.719
 21
110.881
 31
0.0
  0
LINE
  8
0
 62
     0
 10
54.719
 20
110.881
 30
0.0
 11
55.5184
 21
110.881
 31
0.0
  0
LINE
  8
0
 62
     0
 10
55.5184
 20
110.881
 30
0.0
 11
55.5184
 21
107.781
 31
0.0
  0
LINE
  8
0
 62
     0
 10
55.5184
 20
107.781
 30
0.0
 11
54.719
 21
107.781
 31
0.0
  0
LINE
  8
0
 62
     0
 10
54.719
 20
107.781
 30
0.0
 11
54.719
 21
101.982
 31
0.0
  0
LINE
  8
0
 62
     0
 10
54.719
 20
101.982
 30
0.0
 11
55.5184
 21
101.982
 31
0.0
  0
LINE
  8
0
 62
     0
 10
55.5184
 20
101.982
 30
0.0
 11
55.5184
 21
98.8811
 31
0.0
  0
LINE
  8
0
 62
     0
 10
55.5184
 20
98.8811
 30
0.0
 11
54.719
 21
98.8811
 31
0.0
  0
LINE
  8
0
 62
     0
 10
54.719
 20
79.8311
 30
0.0
 11
54.719
 21
78.8307
 31
0.0
  0
LINE
  8
0
 62
     0
 10
54.719
 20
78.8307
 30
0.0
 11
40.7183
 21
78.8307
 31
0.0
  0
LINE
  8
0
 62
     0
 10
40.7183
 20
78.8307
 30
0.0
 11
40.7183
 21
79.8311
 31
0.0
  0
LINE
  8
0
 62
     0
 10
40.7183
 20
79.8311
 30
0.0
 11
39.9189
 21
79.8311
 31
0.0
  0
LINE
  8
0
 62
     0
 10
39.9189
 20
79.8311
 30
0.0
 11
39.9189
 21
82.9317
 31
0.0
  0
LINE
  8
0
 62
     0
 10
39.9189
 20
82.9317
 30
0.0
 11
40.7183
 21
82.9317
 31
0.0
  0
LINE
  8
0
 62
     0
 10
40.7183
 20
82.9317
 30
0.0
 11
40.7183
 21
88.7307
 31
0.0
  0
LINE
  8
0
 62
     0
 10
40.7183
 20
88.7307
 30
0.0
 11
39.9189
 21
88.7307
 31
0.0
  0
LINE
  8
0
 62
     0
 10
39.9189
 20
88.7307
 30
0.0
 11
39.9189
 21
91.8312
 31
0.0
  0
LINE
  8
0
 62
     0
 10
39.9189
 20
91.8312
 30
0.0
 11
40.7183
 21
91.8312
 31
0.0
  0
LINE
  8
0
 62
     0
 10
40.7183
 20
91.8312
 30
0.0
 11
40.7183
 21
92.8317
 31
0.0
  0
LINE
  8
0
 62
     0
 10
40.7183
 20
92.8317
 30
0.0
 11
54.719
 21
92.8317
 31
0.0
  0
LINE
  8
0
 62
     0
 10
54.719
 20
92.8317
 30
0.0
 11
54.719
 21
91.8312
 31
0.0
  0
LINE
  8
0
 62
     0
 10
54.719
 20
91.8312
 30
0.0
 11
55.5184
 21
91.8312
 31
0.0
  0
LINE
  8
0
 62
     0
 10
55.5184
 20
91.8312
 30
0.0
 11
55.5184
 21
88.7307
 31
0.0
  0
LINE
  8
0
 62
     0
 10
55.5184
 20
88.7307
 30
0.0
 11
54.719
 21
88.7307
 31
0.0
  0
LINE
  8
0
 62
     0
 10
54.719
 20
88.7307
 30
0.0
 11
54.719
 21
82.9317
 31
0.0
  0
LINE
  8
0
 62
     0
 10
54.719
 20
82.9317
 30
0.0
 11
55.5184
 21
82.9317
 31
0.0
  0
LINE
  8
0
 62
     0
 10
55.5184
 20
82.9317
 30
0.0
 11
55.5184
 21
79.8311
 31
0.0
  0
LINE
  8
0
 62
     0
 10
55.5184
 20
79.8311
 30
0.0
 11
54.719
 21
79.8311
 31
0.0
  0
LINE
  8
0
 62
     0
 10
59.4815
 20
22.6811
 30
0.0
 11
59.4815
 21
21.6807
 31
0.0
  0
LINE
  8
0
 62
     0
 10
59.4815
 20
21.6807
 30
0.0
 11
45.4822
 21
21.6807
 31
0.0
  0
LINE
  8
0
 62
     0
 10
45.4822
 20
21.6807
 30
0.0
 11
45.4822
 21
22.6811
 31
0.0
  0
LINE
  8
0
 62
     0
 10
45.4822
 20
22.6811
 30
0.0
 11
44.6814
 21
22.6811
 31
0.0
  0
LINE
  8
0
 62
     0
 10
44.6814
 20
22.6811
 30
0.0
 11
44.6814
 21
25.7817
 31
0.0
  0
LINE
  8
0
 62
     0
 10
44.6814
 20
25.7817
 30
0.0
 11
45.4822
 21
25.7817
 31
0.0
  0
LINE
  8
0
 62
     0
 10
45.4822
 20
25.7817
 30
0.0
 11
45.4822
 21
31.5805
 31
0.0
  0
LINE
  8
0
 62
     0
 10
45.4822
 20
31.5805
 30
0.0
 11
44.6814
 21
31.5805
 31
0.0
  0
LINE
  8
0
 62
     0
 10
44.6814
 20
31.5805
 30
0.0
 11
44.6814
 21
34.6811
 31
0.0
  0
LINE
  8
0
 62
     0
 10
44.6814
 20
34.6811
 30
0.0
 11
45.4822
 21
34.6811
 31
0.0
  0
LINE
  8
0
 62
     0
 10
45.4822
 20
34.6811
 30
0.0
 11
45.4822
 21
35.6817
 31
0.0
  0
LINE
  8
0
 62
     0
 10
45.4822
 20
35.6817
 30
0.0
 11
59.4815
 21
35.6817
 31
0.0
  0
LINE
  8
0
 62
     0
 10
59.4815
 20
35.6817
 30
0.0
 11
59.4815
 21
34.6811
 31
0.0
  0
LINE
  8
0
 62
     0
 10
59.4815
 20
34.6811
 30
0.0
 11
60.2823
 21
34.6811
 31
0.0
  0
LINE
  8
0
 62
     0
 10
60.2823
 20
34.6811
 30
0.0
 11
60.2823
 21
31.5805
 31
0.0
  0
LINE
  8
0
 62
     0
 10
60.2823
 20
31.5805
 30
0.0
 11
59.4815
 21
31.5805
 31
0.0
  0
LINE
  8
0
 62
     0
 10
59.4815
 20
31.5805
 30
0.0
 11
59.4815
 21
25.7817
 31
0.0
  0
LINE
  8
0
 62
     0
 10
59.4815
 20
25.7817
 30
0.0
 11
60.2823
 21
25.7817
 31
0.0
  0
LINE
  8
0
 62
     0
 10
60.2823
 20
25.7817
 30
0.0
 11
60.2823
 21
22.6811
 31
0.0
  0
LINE
  8
0
 62
     0
 10
60.2823
 20
22.6811
 30
0.0
 11
59.4815
 21
22.6811
 31
0.0
  0
LINE
  8
0
 62
     0
 10
64.244
 20
60.7811
 30
0.0
 11
64.244
 21
59.7807
 31
0.0
  0
LINE
  8
0
 62
     0
 10
64.244
 20
59.7807
 30
0.0
 11
50.2433
 21
59.7807
 31
0.0
  0
LINE
  8
0
 62
     0
 10
50.2433
 20
59.7807
 30
0.0
 11
50.2433
 21
60.7811
 31
0.0
  0
LINE
  8
0
 62
     0
 10
50.2433
 20
60.7811
 30
0.0
 11
49.4439
 21
60.7811
 31
0.0
  0
LINE
  8
0
 62
     0
 10
49.4439
 20
60.7811
 30
0.0
 11
49.4439
 21
63.8817
 31
0.0
  0
LINE
  8
0
 62
     0
 10
49.4439
 20
63.8817
 30
0.0
 11
50.2433
 21
63.8817
 31
0.0
  0
LINE
  8
0
 62
     0
 10
50.2433
 20
63.8817
 30
0.0
 11
50.2433
 21
69.6807
 31
0.0
  0
LINE
  8
0
 62
     0
 10
50.2433
 20
69.6807
 30
0.0
 11
49.4439
 21
69.6807
 31
0.0
  0
LINE
  8
0
 62
     0
 10
49.4439
 20
69.6807
 30
0.0
 11
49.4439
 21
72.7812
 31
0.0
  0
LINE
  8
0
 62
     0
 10
49.4439
 20
72.7812
 30
0.0
 11
50.2433
 21
72.7812
 31
0.0
  0
LINE
  8
0
 62
     0
 10
50.2433
 20
72.7812
 30
0.0
 11
50.2433
 21
73.7817
 31
0.0
  0
LINE
  8
0
 62
     0
 10
50.2433
 20
73.7817
 30
0.0
 11
64.244
 21
73.7817
 31
0.0
  0
LINE
  8
0
 62
     0
 10
64.244
 20
73.7817
 30
0.0
 11
64.244
 21
72.7812
 31
0.0
  0
LINE
  8
0
 62
     0
 10
64.244
 20
72.7812
 30
0.0
 11
65.0434
 21
72.7812
 31
0.0
  0
LINE
  8
0
 62
     0
 10
65.0434
 20
72.7812
 30
0.0
 11
65.0434
 21
69.6807
 31
0.0
  0
LINE
  8
0
 62
     0
 10
65.0434
 20
69.6807
 30
0.0
 11
64.244
 21
69.6807
 31
0.0
  0
LINE
  8
0
 62
     0
 10
64.244
 20
69.6807
 30
0.0
 11
64.244
 21
63.8817
 31
0.0
  0
LINE
  8
0
 62
     0
 10
64.244
 20
63.8817
 30
0.0
 11
65.0434
 21
63.8817
 31
0.0
  0
LINE
  8
0
 62
     0
 10
65.0434
 20
63.8817
 30
0.0
 11
65.0434
 21
60.7811
 31
0.0
  0
LINE
  8
0
 62
     0
 10
65.0434
 20
60.7811
 30
0.0
 11
64.244
 21
60.7811
 31
0.0
  0
LINE
  8
0
 62
     0
 10
66.6253
 20
3.63114
 30
0.0
 11
66.6253
 21
2.63067
 31
0.0
  0
LINE
  8
0
 62
     0
 10
66.6253
 20
2.63067
 30
0.0
 11
52.6246
 21
2.63067
 31
0.0
  0
LINE
  8
0
 62
     0
 10
52.6246
 20
2.63067
 30
0.0
 11
52.6246
 21
3.63114
 31
0.0
  0
LINE
  8
0
 62
     0
 10
52.6246
 20
3.63114
 30
0.0
 11
51.8252
 21
3.63114
 31
0.0
  0
LINE
  8
0
 62
     0
 10
51.8252
 20
3.63114
 30
0.0
 11
51.8252
 21
6.73171
 31
0.0
  0
LINE
  8
0
 62
     0
 10
51.8252
 20
6.73171
 30
0.0
 11
52.6246
 21
6.73171
 31
0.0
  0
LINE
  8
0
 62
     0
 10
52.6246
 20
6.73171
 30
0.0
 11
52.6246
 21
12.5305
 31
0.0
  0
LINE
  8
0
 62
     0
 10
52.6246
 20
12.5305
 30
0.0
 11
51.8252
 21
12.5305
 31
0.0
  0
LINE
  8
0
 62
     0
 10
51.8252
 20
12.5305
 30
0.0
 11
51.8252
 21
15.6311
 31
0.0
  0
LINE
  8
0
 62
     0
 10
51.8252
 20
15.6311
 30
0.0
 11
52.6246
 21
15.6311
 31
0.0
  0
LINE
  8
0
 62
     0
 10
52.6246
 20
15.6311
 30
0.0
 11
52.6246
 21
16.6315
 31
0.0
  0
LINE
  8
0
 62
     0
 10
52.6246
 20
16.6315
 30
0.0
 11
66.6253
 21
16.6315
 31
0.0
  0
LINE
  8
0
 62
     0
 10
66.6253
 20
16.6315
 30
0.0
 11
66.6253
 21
15.6311
 31
0.0
  0
LINE
  8
0
 62
     0
 10
66.6253
 20
15.6311
 30
0.0
 11
67.4247
 21
15.6311
 31
0.0
  0
LINE
  8
0
 62
     0
 10
67.4247
 20
15.6311
 30
0.0
 11
67.4247
 21
12.5305
 31
0.0
  0
LINE
  8
0
 62
     0
 10
67.4247
 20
12.5305
 30
0.0
 11
66.6253
 21
12.5305
 31
0.0
  0
LINE
  8
0
 62
     0
 10
66.6253
 20
12.5305
 30
0.0
 11
66.6253
 21
6.73171
 31
0.0
  0
LINE
  8
0
 62
     0
 10
66.6253
 20
6.73171
 30
0.0
 11
67.4247
 21
6.73171
 31
0.0
  0
LINE
  8
0
 62
     0
 10
67.4247
 20
6.73171
 30
0.0
 11
67.4247
 21
3.63114
 31
0.0
  0
LINE
  8
0
 62
     0
 10
67.4247
 20
3.63114
 30
0.0
 11
66.6253
 21
3.63114
 31
0.0
  0
LINE
  8
0
 62
     0
 10
69.0051
 20
41.7311
 30
0.0
 11
69.0051
 21
40.7307
 31
0.0
  0
LINE
  8
0
 62
     0
 10
69.0051
 20
40.7307
 30
0.0
 11
55.0058
 21
40.7307
 31
0.0
  0
LINE
  8
0
 62
     0
 10
55.0058
 20
40.7307
 30
0.0
 11
55.0058
 21
41.7311
 31
0.0
  0
LINE
  8
0
 62
     0
 10
55.0058
 20
41.7311
 30
0.0
 11
54.205
 21
41.7311
 31
0.0
  0
LINE
  8
0
 62
     0
 10
54.205
 20
41.7311
 30
0.0
 11
54.205
 21
44.8317
 31
0.0
  0
LINE
  8
0
 62
     0
 10
54.205
 20
44.8317
 30
0.0
 11
55.0058
 21
44.8317
 31
0.0
  0
LINE
  8
0
 62
     0
 10
55.0058
 20
44.8317
 30
0.0
 11
55.0058
 21
50.6307
 31
0.0
  0
LINE
  8
0
 62
     0
 10
55.0058
 20
50.6307
 30
0.0
 11
54.205
 21
50.6307
 31
0.0
  0
LINE
  8
0
 62
     0
 10
54.205
 20
50.6307
 30
0.0
 11
54.205
 21
53.7312
 31
0.0
  0
LINE
  8
0
 62
     0
 10
54.205
 20
53.7312
 30
0.0
 11
55.0058
 21
53.7312
 31
0.0
  0
LINE
  8
0
 62
     0
 10
55.0058
 20
53.7312
 30
0.0
 11
55.0058
 21
54.7317
 31
0.0
  0
LINE
  8
0
 62
     0
 10
55.0058
 20
54.7317
 30
0.0
 11
69.0051
 21
54.7317
 31
0.0
  0
LINE
  8
0
 62
     0
 10
69.0051
 20
54.7317
 30
0.0
 11
69.0051
 21
53.7312
 31
0.0
  0
LINE
  8
0
 62
     0
 10
69.0051
 20
53.7312
 30
0.0
 11
69.8059
 21
53.7312
 31
0.0
  0
LINE
  8
0
 62
     0
 10
69.8059
 20
53.7312
 30
0.0
 11
69.8059
 21
50.6307
 31
0.0
  0
LINE
  8
0
 62
     0
 10
69.8059
 20
50.6307
 30
0.0
 11
69.0051
 21
50.6307
 31
0.0
  0
LINE
  8
0
 62
     0
 10
69.0051
 20
50.6307
 30
0.0
 11
69.0051
 21
44.8317
 31
0.0
  0
LINE
  8
0
 62
     0
 10
69.0051
 20
44.8317
 30
0.0
 11
69.8059
 21
44.8317
 31
0.0
  0
LINE
  8
0
 62
     0
 10
69.8059
 20
44.8317
 30
0.0
 11
69.8059
 21
41.7311
 31
0.0
  0
LINE
  8
0
 62
     0
 10
69.8059
 20
41.7311
 30
0.0
 11
69.0051
 21
41.7311
 31
0.0
  0
LINE
  8
0
 62
     0
 10
73.769
 20
98.8811
 30
0.0
 11
73.769
 21
97.8807
 31
0.0
  0
LINE
  8
0
 62
     0
 10
73.769
 20
97.8807
 30
0.0
 11
59.7683
 21
97.8807
 31
0.0
  0
LINE
  8
0
 62
     0
 10
59.7683
 20
97.8807
 30
0.0
 11
59.7683
 21
98.8811
 31
0.0
  0
LINE
  8
0
 62
     0
 10
59.7683
 20
98.8811
 30
0.0
 11
58.9689
 21
98.8811
 31
0.0
  0
LINE
  8
0
 62
     0
 10
58.9689
 20
98.8811
 30
0.0
 11
58.9689
 21
101.982
 31
0.0
  0
LINE
  8
0
 62
     0
 10
58.9689
 20
101.982
 30
0.0
 11
59.7683
 21
101.982
 31
0.0
  0
LINE
  8
0
 62
     0
 10
59.7683
 20
101.982
 30
0.0
 11
59.7683
 21
107.781
 31
0.0
  0
LINE
  8
0
 62
     0
 10
59.7683
 20
107.781
 30
0.0
 11
58.9689
 21
107.781
 31
0.0
  0
LINE
  8
0
 62
     0
 10
58.9689
 20
107.781
 30
0.0
 11
58.9689
 21
110.881
 31
0.0
  0
LINE
  8
0
 62
     0
 10
58.9689
 20
110.881
 30
0.0
 11
59.7683
 21
110.881
 31
0.0
  0
LINE
  8
0
 62
     0
 10
59.7683
 20
110.881
 30
0.0
 11
59.7683
 21
111.882
 31
0.0
  0
LINE
  8
0
 62
     0
 10
59.7683
 20
111.882
 30
0.0
 11
73.769
 21
111.882
 31
0.0
  0
LINE
  8
0
 62
     0
 10
73.769
 20
111.882
 30
0.0
 11
73.769
 21
110.881
 31
0.0
  0
LINE
  8
0
 62
     0
 10
73.769
 20
110.881
 30
0.0
 11
74.5684
 21
110.881
 31
0.0
  0
LINE
  8
0
 62
     0
 10
74.5684
 20
110.881
 30
0.0
 11
74.5684
 21
107.781
 31
0.0
  0
LINE
  8
0
 62
     0
 10
74.5684
 20
107.781
 30
0.0
 11
73.769
 21
107.781
 31
0.0
  0
LINE
  8
0
 62
     0
 10
73.769
 20
107.781
 30
0.0
 11
73.769
 21
101.982
 31
0.0
  0
LINE
  8
0
 62
     0
 10
73.769
 20
101.982
 30
0.0
 11
74.5684
 21
101.982
 31
0.0
  0
LINE
  8
0
 62
     0
 10
74.5684
 20
101.982
 30
0.0
 11
74.5684
 21
98.8811
 31
0.0
  0
LINE
  8
0
 62
     0
 10
74.5684
 20
98.8811
 30
0.0
 11
73.769
 21
98.8811
 31
0.0
  0
LINE
  8
0
 62
     0
 10
73.769
 20
79.8311
 30
0.0
 11
73.769
 21
78.8307
 31
0.0
  0
LINE
  8
0
 62
     0
 10
73.769
 20
78.8307
 30
0.0
 11
59.7683
 21
78.8307
 31
0.0
  0
LINE
  8
0
 62
     0
 10
59.7683
 20
78.8307
 30
0.0
 11
59.7683
 21
79.8311
 31
0.0
  0
LINE
  8
0
 62
     0
 10
59.7683
 20
79.8311
 30
0.0
 11
58.9689
 21
79.8311
 31
0.0
  0
LINE
  8
0
 62
     0
 10
58.9689
 20
79.8311
 30
0.0
 11
58.9689
 21
82.9317
 31
0.0
  0
LINE
  8
0
 62
     0
 10
58.9689
 20
82.9317
 30
0.0
 11
59.7683
 21
82.9317
 31
0.0
  0
LINE
  8
0
 62
     0
 10
59.7683
 20
82.9317
 30
0.0
 11
59.7683
 21
88.7307
 31
0.0
  0
LINE
  8
0
 62
     0
 10
59.7683
 20
88.7307
 30
0.0
 11
58.9689
 21
88.7307
 31
0.0
  0
LINE
  8
0
 62
     0
 10
58.9689
 20
88.7307
 30
0.0
 11
58.9689
 21
91.8312
 31
0.0
  0
LINE
  8
0
 62
     0
 10
58.9689
 20
91.8312
 30
0.0
 11
59.7683
 21
91.8312
 31
0.0
  0
LINE
  8
0
 62
     0
 10
59.7683
 20
91.8312
 30
0.0
 11
59.7683
 21
92.8317
 31
0.0
  0
LINE
  8
0
 62
     0
 10
59.7683
 20
92.8317
 30
0.0
 11
73.769
 21
92.8317
 31
0.0
  0
LINE
  8
0
 62
     0
 10
73.769
 20
92.8317
 30
0.0
 11
73.769
 21
91.8312
 31
0.0
  0
LINE
  8
0
 62
     0
 10
73.769
 20
91.8312
 30
0.0
 11
74.5684
 21
91.8312
 31
0.0
  0
LINE
  8
0
 62
     0
 10
74.5684
 20
91.8312
 30
0.0
 11
74.5684
 21
88.7307
 31
0.0
  0
LINE
  8
0
 62
     0
 10
74.5684
 20
88.7307
 30
0.0
 11
73.769
 21
88.7307
 31
0.0
  0
LINE
  8
0
 62
     0
 10
73.769
 20
88.7307
 30
0.0
 11
73.769
 21
82.9317
 31
0.0
  0
LINE
  8
0
 62
     0
 10
73.769
 20
82.9317
 30
0.0
 11
74.5684
 21
82.9317
 31
0.0
  0
LINE
  8
0
 62
     0
 10
74.5684
 20
82.9317
 30
0.0
 11
74.5684
 21
79.8311
 31
0.0
  0
LINE
  8
0
 62
     0
 10
74.5684
 20
79.8311
 30
0.0
 11
73.769
 21
79.8311
 31
0.0
  0
LINE
  8
0
 62
     0
 10
78.5315
 20
22.6811
 30
0.0
 11
78.5315
 21
21.6807
 31
0.0
  0
LINE
  8
0
 62
     0
 10
78.5315
 20
21.6807
 30
0.0
 11
64.5322
 21
21.6807
 31
0.0
  0
LINE
  8
0
 62
     0
 10
64.5322
 20
21.6807
 30
0.0
 11
64.5322
 21
22.6811
 31
0.0
  0
LINE
  8
0
 62
     0
 10
64.5322
 20
22.6811
 30
0.0
 11
63.7314
 21
22.6811
 31
0.0
  0
LINE
  8
0
 62
     0
 10
63.7314
 20
22.6811
 30
0.0
 11
63.7314
 21
25.7817
 31
0.0
  0
LINE
  8
0
 62
     0
 10
63.7314
 20
25.7817
 30
0.0
 11
64.5322
 21
25.7817
 31
0.0
  0
LINE
  8
0
 62
     0
 10
64.5322
 20
25.7817
 30
0.0
 11
64.5322
 21
31.5805
 31
0.0
  0
LINE
  8
0
 62
     0
 10
64.5322
 20
31.5805
 30
0.0
 11
63.7314
 21
31.5805
 31
0.0
  0
LINE
  8
0
 62
     0
 10
63.7314
 20
31.5805
 30
0.0
 11
63.7314
 21
34.6811
 31
0.0
  0
LINE
  8
0
 62
     0
 10
63.7314
 20
34.6811
 30
0.0
 11
64.5322
 21
34.6811
 31
0.0
  0
LINE
  8
0
 62
     0
 10
64.5322
 20
34.6811
 30
0.0
 11
64.5322
 21
35.6817
 31
0.0
  0
LINE
  8
0
 62
     0
 10
64.5322
 20
35.6817
 30
0.0
 11
78.5315
 21
35.6817
 31
0.0
  0
LINE
  8
0
 62
     0
 10
78.5315
 20
35.6817
 30
0.0
 11
78.5315
 21
34.6811
 31
0.0
  0
LINE
  8
0
 62
     0
 10
78.5315
 20
34.6811
 30
0.0
 11
79.3309
 21
34.6811
 31
0.0
  0
LINE
  8
0
 62
     0
 10
79.3309
 20
34.6811
 30
0.0
 11
79.3309
 21
31.5805
 31
0.0
  0
LINE
  8
0
 62
     0
 10
79.3309
 20
31.5805
 30
0.0
 11
78.5315
 21
31.5805
 31
0.0
  0
LINE
  8
0
 62
     0
 10
78.5315
 20
31.5805
 30
0.0
 11
78.5315
 21
25.7817
 31
0.0
  0
LINE
  8
0
 62
     0
 10
78.5315
 20
25.7817
 30
0.0
 11
79.3309
 21
25.7817
 31
0.0
  0
LINE
  8
0
 62
     0
 10
79.3309
 20
25.7817
 30
0.0
 11
79.3309
 21
22.6811
 31
0.0
  0
LINE
  8
0
 62
     0
 10
79.3309
 20
22.6811
 30
0.0
 11
78.5315
 21
22.6811
 31
0.0
  0
LINE
  8
0
 62
     0
 10
83.294
 20
60.7811
 30
0.0
 11
83.294
 21
59.7807
 31
0.0
  0
LINE
  8
0
 62
     0
 10
83.294
 20
59.7807
 30
0.0
 11
69.2933
 21
59.7807
 31
0.0
  0
LINE
  8
0
 62
     0
 10
69.2933
 20
59.7807
 30
0.0
 11
69.2933
 21
60.7811
 31
0.0
  0
LINE
  8
0
 62
     0
 10
69.2933
 20
60.7811
 30
0.0
 11
68.4939
 21
60.7811
 31
0.0
  0
LINE
  8
0
 62
     0
 10
68.4939
 20
60.7811
 30
0.0
 11
68.4939
 21
63.8817
 31
0.0
  0
LINE
  8
0
 62
     0
 10
68.4939
 20
63.8817
 30
0.0
 11
69.2933
 21
63.8817
 31
0.0
  0
LINE
  8
0
 62
     0
 10
69.2933
 20
63.8817
 30
0.0
 11
69.2933
 21
69.6807
 31
0.0
  0
LINE
  8
0
 62
     0
 10
69.2933
 20
69.6807
 30
0.0
 11
68.4939
 21
69.6807
 31
0.0
  0
LINE
  8
0
 62
     0
 10
68.4939
 20
69.6807
 30
0.0
 11
68.4939
 21
72.7812
 31
0.0
  0
LINE
  8
0
 62
     0
 10
68.4939
 20
72.7812
 30
0.0
 11
69.2933
 21
72.7812
 31
0.0
  0
LINE
  8
0
 62
     0
 10
69.2933
 20
72.7812
 30
0.0
 11
69.2933
 21
73.7817
 31
0.0
  0
LINE
  8
0
 62
     0
 10
69.2933
 20
73.7817
 30
0.0
 11
83.294
 21
73.7817
 31
0.0
  0
LINE
  8
0
 62
     0
 10
83.294
 20
73.7817
 30
0.0
 11
83.294
 21
72.7812
 31
0.0
  0
LINE
  8
0
 62
     0
 10
83.294
 20
72.7812
 30
0.0
 11
84.0934
 21
72.7812
 31
0.0
  0
LINE
  8
0
 62
     0
 10
84.0934
 20
72.7812
 30
0.0
 11
84.0934
 21
69.6807
 31
0.0
  0
LINE
  8
0
 62
     0
 10
84.0934
 20
69.6807
 30
0.0
 11
83.294
 21
69.6807
 31
0.0
  0
LINE
  8
0
 62
     0
 10
83.294
 20
69.6807
 30
0.0
 11
83.294
 21
63.8817
 31
0.0
  0
LINE
  8
0
 62
     0
 10
83.294
 20
63.8817
 30
0.0
 11
84.0934
 21
63.8817
 31
0.0
  0
LINE
  8
0
 62
     0
 10
84.0934
 20
63.8817
 30
0.0
 11
84.0934
 21
60.7811
 31
0.0
  0
LINE
  8
0
 62
     0
 10
84.0934
 20
60.7811
 30
0.0
 11
83.294
 21
60.7811
 31
0.0
  0
LINE
  8
0
 62
     0
 10
88.0551
 20
41.7311
 30
0.0
 11
88.0551
 21
40.7307
 31
0.0
  0
LINE
  8
0
 62
     0
 10
88.0551
 20
40.7307
 30
0.0
 11
74.0558
 21
40.7307
 31
0.0
  0
LINE
  8
0
 62
     0
 10
74.0558
 20
40.7307
 30
0.0
 11
74.0558
 21
41.7311
 31
0.0
  0
LINE
  8
0
 62
     0
 10
74.0558
 20
41.7311
 30
0.0
 11
73.255
 21
41.7311
 31
0.0
  0
LINE
  8
0
 62
     0
 10
73.255
 20
41.7311
 30
0.0
 11
73.255
 21
44.8317
 31
0.0
  0
LINE
  8
0
 62
     0
 10
73.255
 20
44.8317
 30
0.0
 11
74.0558
 21
44.8317
 31
0.0
  0
LINE
  8
0
 62
     0
 10
74.0558
 20
44.8317
 30
0.0
 11
74.0558
 21
50.6307
 31
0.0
  0
LINE
  8
0
 62
     0
 10
74.0558
 20
50.6307
 30
0.0
 11
73.255
 21
50.6307
 31
0.0
  0
LINE
  8
0
 62
     0
 10
73.255
 20
50.6307
 30
0.0
 11
73.255
 21
53.7312
 31
0.0
  0
LINE
  8
0
 62
     0
 10
73.255
 20
53.7312
 30
0.0
 11
74.0558
 21
53.7312
 31
0.0
  0
LINE
  8
0
 62
     0
 10
74.0558
 20
53.7312
 30
0.0
 11
74.0558
 21
54.7317
 31
0.0
  0
LINE
  8
0
 62
     0
 10
74.0558
 20
54.7317
 30
0.0
 11
88.0551
 21
54.7317
 31
0.0
  0
LINE
  8
0
 62
     0
 10
88.0551
 20
54.7317
 30
0.0
 11
88.0551
 21
53.7312
 31
0.0
  0
LINE
  8
0
 62
     0
 10
88.0551
 20
53.7312
 30
0.0
 11
88.8559
 21
53.7312
 31
0.0
  0
LINE
  8
0
 62
     0
 10
88.8559
 20
53.7312
 30
0.0
 11
88.8559
 21
50.6307
 31
0.0
  0
LINE
  8
0
 62
     0
 10
88.8559
 20
50.6307
 30
0.0
 11
88.0551
 21
50.6307
 31
0.0
  0
LINE
  8
0
 62
     0
 10
88.0551
 20
50.6307
 30
0.0
 11
88.0551
 21
44.8317
 31
0.0
  0
LINE
  8
0
 62
     0
 10
88.0551
 20
44.8317
 30
0.0
 11
88.8559
 21
44.8317
 31
0.0
  0
LINE
  8
0
 62
     0
 10
88.8559
 20
44.8317
 30
0.0
 11
88.8559
 21
41.7311
 31
0.0
  0
LINE
  8
0
 62
     0
 10
88.8559
 20
41.7311
 30
0.0
 11
88.0551
 21
41.7311
 31
0.0
  0
LINE
  8
0
 62
     0
 10
92.819
 20
98.8811
 30
0.0
 11
92.819
 21
97.8807
 31
0.0
  0
LINE
  8
0
 62
     0
 10
92.819
 20
97.8807
 30
0.0
 11
78.8183
 21
97.8807
 31
0.0
  0
LINE
  8
0
 62
     0
 10
78.8183
 20
97.8807
 30
0.0
 11
78.8183
 21
98.8811
 31
0.0
  0
LINE
  8
0
 62
     0
 10
78.8183
 20
98.8811
 30
0.0
 11
78.0189
 21
98.8811
 31
0.0
  0
LINE
  8
0
 62
     0
 10
78.0189
 20
98.8811
 30
0.0
 11
78.0189
 21
101.982
 31
0.0
  0
LINE
  8
0
 62
     0
 10
78.0189
 20
101.982
 30
0.0
 11
78.8183
 21
101.982
 31
0.0
  0
LINE
  8
0
 62
     0
 10
78.8183
 20
101.982
 30
0.0
 11
78.8183
 21
107.781
 31
0.0
  0
LINE
  8
0
 62
     0
 10
78.8183
 20
107.781
 30
0.0
 11
78.0189
 21
107.781
 31
0.0
  0
LINE
  8
0
 62
     0
 10
78.0189
 20
107.781
 30
0.0
 11
78.0189
 21
110.881
 31
0.0
  0
LINE
  8
0
 62
     0
 10
78.0189
 20
110.881
 30
0.0
 11
78.8183
 21
110.881
 31
0.0
  0
LINE
  8
0
 62
     0
 10
78.8183
 20
110.881
 30
0.0
 11
78.8183
 21
111.882
 31
0.0
  0
LINE
  8
0
 62
     0
 10
78.8183
 20
111.882
 30
0.0
 11
92.819
 21
111.882
 31
0.0
  0
LINE
  8
0
 62
     0
 10
92.819
 20
111.882
 30
0.0
 11
92.819
 21
110.881
 31
0.0
  0
LINE
  8
0
 62
     0
 10
92.819
 20
110.881
 30
0.0
 11
93.6184
 21
110.881
 31
0.0
  0
LINE
  8
0
 62
     0
 10
93.6184
 20
110.881
 30
0.0
 11
93.6184
 21
107.781
 31
0.0
  0
LINE
  8
0
 62
     0
 10
93.6184
 20
107.781
 30
0.0
 11
92.819
 21
107.781
 31
0.0
  0
LINE
  8
0
 62
     0
 10
92.819
 20
107.781
 30
0.0
 11
92.819
 21
101.982
 31
0.0
  0
LINE
  8
0
 62
     0
 10
92.819
 20
101.982
 30
0.0
 11
93.6184
 21
101.982
 31
0.0
  0
LINE
  8
0
 62
     0
 10
93.6184
 20
101.982
 30
0.0
 11
93.6184
 21
98.8811
 31
0.0
  0
LINE
  8
0
 62
     0
 10
93.6184
 20
98.8811
 30
0.0
 11
92.819
 21
98.8811
 31
0.0
  0
LINE
  8
0
 62
     0
 10
92.819
 20
79.8311
 30
0.0
 11
92.819
 21
78.8307
 31
0.0
  0
LINE
  8
0
 62
     0
 10
92.819
 20
78.8307
 30
0.0
 11
78.8183
 21
78.8307
 31
0.0
  0
LINE
  8
0
 62
     0
 10
78.8183
 20
78.8307
 30
0.0
 11
78.8183
 21
79.8311
 31
0.0
  0
LINE
  8
0
 62
     0
 10
78.8183
 20
79.8311
 30
0.0
 11
78.0189
 21
79.8311
 31
0.0
  0
LINE
  8
0
 62
     0
 10
78.0189
 20
79.8311
 30
0.0
 11
78.0189
 21
82.9317
 31
0.0
  0
LINE
  8
0
 62
     0
 10
78.0189
 20
82.9317
 30
0.0
 11
78.8183
 21
82.9317
 31
0.0
  0
LINE
  8
0
 62
     0
 10
78.8183
 20
82.9317
 30
0.0
 11
78.8183
 21
88.7307
 31
0.0
  0
LINE
  8
0
 62
     0
 10
78.8183
 20
88.7307
 30
0.0
 11
78.0189
 21
88.7307
 31
0.0
  0
LINE
  8
0
 62
     0
 10
78.0189
 20
88.7307
 30
0.0
 11
78.0189
 21
91.8312
 31
0.0
  0
LINE
  8
0
 62
     0
 10
78.0189
 20
91.8312
 30
0.0
 11
78.8183
 21
91.8312
 31
0.0
  0
LINE
  8
0
 62
     0
 10
78.8183
 20
91.8312
 30
0.0
 11
78.8183
 21
92.8317
 31
0.0
  0
LINE
  8
0
 62
     0
 10
78.8183
 20
92.8317
 30
0.0
 11
92.819
 21
92.8317
 31
0.0
  0
LINE
  8
0
 62
     0
 10
92.819
 20
92.8317
 30
0.0
 11
92.819
 21
91.8312
 31
0.0
  0
LINE
  8
0
 62
     0
 10
92.819
 20
91.8312
 30
0.0
 11
93.6184
 21
91.8312
 31
0.0
  0
LINE
  8
0
 62
     0
 10
93.6184
 20
91.8312
 30
0.0
 11
93.6184
 21
88.7307
 31
0.0
  0
LINE
  8
0
 62
     0
 10
93.6184
 20
88.7307
 30
0.0
 11
92.819
 21
88.7307
 31
0.0
  0
LINE
  8
0
 62
     0
 10
92.819
 20
88.7307
 30
0.0
 11
92.819
 21
82.9317
 31
0.0
  0
LINE
  8
0
 62
     0
 10
92.819
 20
82.9317
 30
0.0
 11
93.6184
 21
82.9317
 31
0.0
  0
LINE
  8
0
 62
     0
 10
93.6184
 20
82.9317
 30
0.0
 11
93.6184
 21
79.8311
 31
0.0
  0
LINE
  8
0
 62
     0
 10
93.6184
 20
79.8311
 30
0.0
 11
92.819
 21
79.8311
 31
0.0
  0
LINE
  8
0
 62
     0
 10
97.5801
 20
22.6811
 30
0.0
 11
97.5801
 21
21.6807
 31
0.0
  0
LINE
  8
0
 62
     0
 10
97.5801
 20
21.6807
 30
0.0
 11
83.5808
 21
21.6807
 31
0.0
  0
LINE
  8
0
 62
     0
 10
83.5808
 20
21.6807
 30
0.0
 11
83.5808
 21
22.6811
 31
0.0
  0
LINE
  8
0
 62
     0
 10
83.5808
 20
22.6811
 30
0.0
 11
82.7814
 21
22.6811
 31
0.0
  0
LINE
  8
0
 62
     0
 10
82.7814
 20
22.6811
 30
0.0
 11
82.7814
 21
25.7817
 31
0.0
  0
LINE
  8
0
 62
     0
 10
82.7814
 20
25.7817
 30
0.0
 11
83.5808
 21
25.7817
 31
0.0
  0
LINE
  8
0
 62
     0
 10
83.5808
 20
25.7817
 30
0.0
 11
83.5808
 21
31.5805
 31
0.0
  0
LINE
  8
0
 62
     0
 10
83.5808
 20
31.5805
 30
0.0
 11
82.7814
 21
31.5805
 31
0.0
  0
LINE
  8
0
 62
     0
 10
82.7814
 20
31.5805
 30
0.0
 11
82.7814
 21
34.6811
 31
0.0
  0
LINE
  8
0
 62
     0
 10
82.7814
 20
34.6811
 30
0.0
 11
83.5808
 21
34.6811
 31
0.0
  0
LINE
  8
0
 62
     0
 10
83.5808
 20
34.6811
 30
0.0
 11
83.5808
 21
35.6817
 31
0.0
  0
LINE
  8
0
 62
     0
 10
83.5808
 20
35.6817
 30
0.0
 11
97.5801
 21
35.6817
 31
0.0
  0
LINE
  8
0
 62
     0
 10
97.5801
 20
35.6817
 30
0.0
 11
97.5801
 21
34.6811
 31
0.0
  0
LINE
  8
0
 62
     0
 10
97.5801
 20
34.6811
 30
0.0
 11
98.3809
 21
34.6811
 31
0.0
  0
LINE
  8
0
 62
     0
 10
98.3809
 20
34.6811
 30
0.0
 11
98.3809
 21
31.5805
 31
0.0
  0
LINE
  8
0
 62
     0
 10
98.3809
 20
31.5805
 30
0.0
 11
97.5801
 21
31.5805
 31
0.0
  0
LINE
  8
0
 62
     0
 10
97.5801
 20
31.5805
 30
0.0
 11
97.5801
 21
25.7817
 31
0.0
  0
LINE
  8
0
 62
     0
 10
97.5801
 20
25.7817
 30
0.0
 11
98.3809
 21
25.7817
 31
0.0
  0
LINE
  8
0
 62
     0
 10
98.3809
 20
25.7817
 30
0.0
 11
98.3809
 21
22.6811
 31
0.0
  0
LINE
  8
0
 62
     0
 10
98.3809
 20
22.6811
 30
0.0
 11
97.5801
 21
22.6811
 31
0.0
  0
LINE
  8
0
 62
     0
 10
102.344
 20
60.7811
 30
0.0
 11
102.344
 21
59.7807
 31
0.0
  0
LINE
  8
0
 62
     0
 10
102.344
 20
59.7807
 30
0.0
 11
88.3433
 21
59.7807
 31
0.0
  0
LINE
  8
0
 62
     0
 10
88.3433
 20
59.7807
 30
0.0
 11
88.3433
 21
60.7811
 31
0.0
  0
LINE
  8
0
 62
     0
 10
88.3433
 20
60.7811
 30
0.0
 11
87.5439
 21
60.7811
 31
0.0
  0
LINE
  8
0
 62
     0
 10
87.5439
 20
60.7811
 30
0.0
 11
87.5439
 21
63.8817
 31
0.0
  0
LINE
  8
0
 62
     0
 10
87.5439
 20
63.8817
 30
0.0
 11
88.3433
 21
63.8817
 31
0.0
  0
LINE
  8
0
 62
     0
 10
88.3433
 20
63.8817
 30
0.0
 11
88.3433
 21
69.6807
 31
0.0
  0
LINE
  8
0
 62
     0
 10
88.3433
 20
69.6807
 30
0.0
 11
87.5439
 21
69.6807
 31
0.0
  0
LINE
  8
0
 62
     0
 10
87.5439
 20
69.6807
 30
0.0
 11
87.5439
 21
72.7812
 31
0.0
  0
LINE
  8
0
 62
     0
 10
87.5439
 20
72.7812
 30
0.0
 11
88.3433
 21
72.7812
 31
0.0
  0
LINE
  8
0
 62
     0
 10
88.3433
 20
72.7812
 30
0.0
 11
88.3433
 21
73.7817
 31
0.0
  0
LINE
  8
0
 62
     0
 10
88.3433
 20
73.7817
 30
0.0
 11
102.344
 21
73.7817
 31
0.0
  0
LINE
  8
0
 62
     0
 10
102.344
 20
73.7817
 30
0.0
 11
102.344
 21
72.7812
 31
0.0
  0
LINE
  8
0
 62
     0
 10
102.344
 20
72.7812
 30
0.0
 11
103.143
 21
72.7812
 31
0.0
  0
LINE
  8
0
 62
     0
 10
103.143
 20
72.7812
 30
0.0
 11
103.143
 21
69.6807
 31
0.0
  0
LINE
  8
0
 62
     0
 10
103.143
 20
69.6807
 30
0.0
 11
102.344
 21
69.6807
 31
0.0
  0
LINE
  8
0
 62
     0
 10
102.344
 20
69.6807
 30
0.0
 11
102.344
 21
63.8817
 31
0.0
  0
LINE
  8
0
 62
     0
 10
102.344
 20
63.8817
 30
0.0
 11
103.143
 21
63.8817
 31
0.0
  0
LINE
  8
0
 62
     0
 10
103.143
 20
63.8817
 30
0.0
 11
103.143
 21
60.7811
 31
0.0
  0
LINE
  8
0
 62
     0
 10
103.143
 20
60.7811
 30
0.0
 11
102.344
 21
60.7811
 31
0.0
  0
LINE
  8
0
 62
     0
 10
107.105
 20
41.7311
 30
0.0
 11
107.105
 21
40.7307
 31
0.0
  0
LINE
  8
0
 62
     0
 10
107.105
 20
40.7307
 30
0.0
 11
93.1058
 21
40.7307
 31
0.0
  0
LINE
  8
0
 62
     0
 10
93.1058
 20
40.7307
 30
0.0
 11
93.1058
 21
41.7311
 31
0.0
  0
LINE
  8
0
 62
     0
 10
93.1058
 20
41.7311
 30
0.0
 11
92.305
 21
41.7311
 31
0.0
  0
LINE
  8
0
 62
     0
 10
92.305
 20
41.7311
 30
0.0
 11
92.305
 21
44.8317
 31
0.0
  0
LINE
  8
0
 62
     0
 10
92.305
 20
44.8317
 30
0.0
 11
93.1058
 21
44.8317
 31
0.0
  0
LINE
  8
0
 62
     0
 10
93.1058
 20
44.8317
 30
0.0
 11
93.1058
 21
50.6307
 31
0.0
  0
LINE
  8
0
 62
     0
 10
93.1058
 20
50.6307
 30
0.0
 11
92.305
 21
50.6307
 31
0.0
  0
LINE
  8
0
 62
     0
 10
92.305
 20
50.6307
 30
0.0
 11
92.305
 21
53.7312
 31
0.0
  0
LINE
  8
0
 62
     0
 10
92.305
 20
53.7312
 30
0.0
 11
93.1058
 21
53.7312
 31
0.0
  0
LINE
  8
0
 62
     0
 10
93.1058
 20
53.7312
 30
0.0
 11
93.1058
 21
54.7317
 31
0.0
  0
LINE
  8
0
 62
     0
 10
93.1058
 20
54.7317
 30
0.0
 11
107.105
 21
54.7317
 31
0.0
  0
LINE
  8
0
 62
     0
 10
107.105
 20
54.7317
 30
0.0
 11
107.105
 21
53.7312
 31
0.0
  0
LINE
  8
0
 62
     0
 10
107.105
 20
53.7312
 30
0.0
 11
107.906
 21
53.7312
 31
0.0
  0
LINE
  8
0
 62
     0
 10
107.906
 20
53.7312
 30
0.0
 11
107.906
 21
50.6307
 31
0.0
  0
LINE
  8
0
 62
     0
 10
107.906
 20
50.6307
 30
0.0
 11
107.105
 21
50.6307
 31
0.0
  0
LINE
  8
0
 62
     0
 10
107.105
 20
50.6307
 30
0.0
 11
107.105
 21
44.8317
 31
0.0
  0
LINE
  8
0
 62
     0
 10
107.105
 20
44.8317
 30
0.0
 11
107.906
 21
44.8317
 31
0.0
  0
LINE
  8
0
 62
     0
 10
107.906
 20
44.8317
 30
0.0
 11
107.906
 21
41.7311
 31
0.0
  0
LINE
  8
0
 62
     0
 10
107.906
 20
41.7311
 30
0.0
 11
107.105
 21
41.7311
 31
0.0
  0
LINE
  8
0
 62
     0
 10
111.869
 20
98.8811
 30
0.0
 11
111.869
 21
97.8807
 31
0.0
  0
LINE
  8
0
 62
     0
 10
111.869
 20
97.8807
 30
0.0
 11
97.8683
 21
97.8807
 31
0.0
  0
LINE
  8
0
 62
     0
 10
97.8683
 20
97.8807
 30
0.0
 11
97.8683
 21
98.8811
 31
0.0
  0
LINE
  8
0
 62
     0
 10
97.8683
 20
98.8811
 30
0.0
 11
97.0689
 21
98.8811
 31
0.0
  0
LINE
  8
0
 62
     0
 10
97.0689
 20
98.8811
 30
0.0
 11
97.0689
 21
101.982
 31
0.0
  0
LINE
  8
0
 62
     0
 10
97.0689
 20
101.982
 30
0.0
 11
97.8683
 21
101.982
 31
0.0
  0
LINE
  8
0
 62
     0
 10
97.8683
 20
101.982
 30
0.0
 11
97.8683
 21
107.781
 31
0.0
  0
LINE
  8
0
 62
     0
 10
97.8683
 20
107.781
 30
0.0
 11
97.0689
 21
107.781
 31
0.0
  0
LINE
  8
0
 62
     0
 10
97.0689
 20
107.781
 30
0.0
 11
97.0689
 21
110.881
 31
0.0
  0
LINE
  8
0
 62
     0
 10
97.0689
 20
110.881
 30
0.0
 11
97.8683
 21
110.881
 31
0.0
  0
LINE
  8
0
 62
     0
 10
97.8683
 20
110.881
 30
0.0
 11
97.8683
 21
111.882
 31
0.0
  0
LINE
  8
0
 62
     0
 10
97.8683
 20
111.882
 30
0.0
 11
111.869
 21
111.882
 31
0.0
  0
LINE
  8
0
 62
     0
 10
111.869
 20
111.882
 30
0.0
 11
111.869
 21
110.881
 31
0.0
  0
LINE
  8
0
 62
     0
 10
111.869
 20
110.881
 30
0.0
 11
112.668
 21
110.881
 31
0.0
  0
LINE
  8
0
 62
     0
 10
112.668
 20
110.881
 30
0.0
 11
112.668
 21
107.781
 31
0.0
  0
LINE
  8
0
 62
     0
 10
112.668
 20
107.781
 30
0.0
 11
111.869
 21
107.781
 31
0.0
  0
LINE
  8
0
 62
     0
 10
111.869
 20
107.781
 30
0.0
 11
111.869
 21
101.982
 31
0.0
  0
LINE
  8
0
 62
     0
 10
111.869
 20
101.982
 30
0.0
 11
112.668
 21
101.982
 31
0.0
  0
LINE
  8
0
 62
     0
 10
112.668
 20
101.982
 30
0.0
 11
112.668
 21
98.8811
 31
0.0
  0
LINE
  8
0
 62
     0
 10
112.668
 20
98.8811
 30
0.0
 11
111.869
 21
98.8811
 31
0.0
  0
LINE
  8
0
 62
     0
 10
111.869
 20
79.8311
 30
0.0
 11
111.869
 21
78.8307
 31
0.0
  0
LINE
  8
0
 62
     0
 10
111.869
 20
78.8307
 30
0.0
 11
97.8683
 21
78.8307
 31
0.0
  0
LINE
  8
0
 62
     0
 10
97.8683
 20
78.8307
 30
0.0
 11
97.8683
 21
79.8311
 31
0.0
  0
LINE
  8
0
 62
     0
 10
97.8683
 20
79.8311
 30
0.0
 11
97.0689
 21
79.8311
 31
0.0
  0
LINE
  8
0
 62
     0
 10
97.0689
 20
79.8311
 30
0.0
 11
97.0689
 21
82.9317
 31
0.0
  0
LINE
  8
0
 62
     0
 10
97.0689
 20
82.9317
 30
0.0
 11
97.8683
 21
82.9317
 31
0.0
  0
LINE
  8
0
 62
     0
 10
97.8683
 20
82.9317
 30
0.0
 11
97.8683
 21
88.7307
 31
0.0
  0
LINE
  8
0
 62
     0
 10
97.8683
 20
88.7307
 30
0.0
 11
97.0689
 21
88.7307
 31
0.0
  0
LINE
  8
0
 62
     0
 10
97.0689
 20
88.7307
 30
0.0
 11
97.0689
 21
91.8312
 31
0.0
  0
LINE
  8
0
 62
     0
 10
97.0689
 20
91.8312
 30
0.0
 11
97.8683
 21
91.8312
 31
0.0
  0
LINE
  8
0
 62
     0
 10
97.8683
 20
91.8312
 30
0.0
 11
97.8683
 21
92.8317
 31
0.0
  0
LINE
  8
0
 62
     0
 10
97.8683
 20
92.8317
 30
0.0
 11
111.869
 21
92.8317
 31
0.0
  0
LINE
  8
0
 62
     0
 10
111.869
 20
92.8317
 30
0.0
 11
111.869
 21
91.8312
 31
0.0
  0
LINE
  8
0
 62
     0
 10
111.869
 20
91.8312
 30
0.0
 11
112.668
 21
91.8312
 31
0.0
  0
LINE
  8
0
 62
     0
 10
112.668
 20
91.8312
 30
0.0
 11
112.668
 21
88.7307
 31
0.0
  0
LINE
  8
0
 62
     0
 10
112.668
 20
88.7307
 30
0.0
 11
111.869
 21
88.7307
 31
0.0
  0
LINE
  8
0
 62
     0
 10
111.869
 20
88.7307
 30
0.0
 11
111.869
 21
82.9317
 31
0.0
  0
LINE
  8
0
 62
     0
 10
111.869
 20
82.9317
 30
0.0
 11
112.668
 21
82.9317
 31
0.0
  0
LINE
  8
0
 62
     0
 10
112.668
 20
82.9317
 30
0.0
 11
112.668
 21
79.8311
 31
0.0
  0
LINE
  8
0
 62
     0
 10
112.668
 20
79.8311
 30
0.0
 11
111.869
 21
79.8311
 31
0.0
  0
LINE
  8
0
 62
     0
 10
116.63
 20
22.6811
 30
0.0
 11
116.63
 21
21.6807
 31
0.0
  0
LINE
  8
0
 62
     0
 10
116.63
 20
21.6807
 30
0.0
 11
102.631
 21
21.6807
 31
0.0
  0
LINE
  8
0
 62
     0
 10
102.631
 20
21.6807
 30
0.0
 11
102.631
 21
22.6811
 31
0.0
  0
LINE
  8
0
 62
     0
 10
102.631
 20
22.6811
 30
0.0
 11
101.83
 21
22.6811
 31
0.0
  0
LINE
  8
0
 62
     0
 10
101.83
 20
22.6811
 30
0.0
 11
101.83
 21
25.7817
 31
0.0
  0
LINE
  8
0
 62
     0
 10
101.83
 20
25.7817
 30
0.0
 11
102.631
 21
25.7817
 31
0.0
  0
LINE
  8
0
 62
     0
 10
102.631
 20
25.7817
 30
0.0
 11
102.631
 21
31.5805
 31
0.0
  0
LINE
  8
0
 62
     0
 10
102.631
 20
31.5805
 30
0.0
 11
101.83
 21
31.5805
 31
0.0
  0
LINE
  8
0
 62
     0
 10
101.83
 20
31.5805
 30
0.0
 11
101.83
 21
34.6811
 31
0.0
  0
LINE
  8
0
 62
     0
 10
101.83
 20
34.6811
 30
0.0
 11
102.631
 21
34.6811
 31
0.0
  0
LINE
  8
0
 62
     0
 10
102.631
 20
34.6811
 30
0.0
 11
102.631
 21
35.6817
 31
0.0
  0
LINE
  8
0
 62
     0
 10
102.631
 20
35.6817
 30
0.0
 11
116.63
 21
35.6817
 31
0.0
  0
LINE
  8
0
 62
     0
 10
116.63
 20
35.6817
 30
0.0
 11
116.63
 21
34.6811
 31
0.0
  0
LINE
  8
0
 62
     0
 10
116.63
 20
34.6811
 30
0.0
 11
117.431
 21
34.6811
 31
0.0
  0
LINE
  8
0
 62
     0
 10
117.431
 20
34.6811
 30
0.0
 11
117.431
 21
31.5805
 31
0.0
  0
LINE
  8
0
 62
     0
 10
117.431
 20
31.5805
 30
0.0
 11
116.63
 21
31.5805
 31
0.0
  0
LINE
  8
0
 62
     0
 10
116.63
 20
31.5805
 30
0.0
 11
116.63
 21
25.7817
 31
0.0
  0
LINE
  8
0
 62
     0
 10
116.63
 20
25.7817
 30
0.0
 11
117.431
 21
25.7817
 31
0.0
  0
LINE
  8
0
 62
     0
 10
117.431
 20
25.7817
 30
0.0
 11
117.431
 21
22.6811
 31
0.0
  0
LINE
  8
0
 62
     0
 10
117.431
 20
22.6811
 30
0.0
 11
116.63
 21
22.6811
 31
0.0
  0
LINE
  8
0
 62
     0
 10
121.394
 20
60.7811
 30
0.0
 11
121.394
 21
59.7807
 31
0.0
  0
LINE
  8
0
 62
     0
 10
121.394
 20
59.7807
 30
0.0
 11
107.393
 21
59.7807
 31
0.0
  0
LINE
  8
0
 62
     0
 10
107.393
 20
59.7807
 30
0.0
 11
107.393
 21
60.7811
 31
0.0
  0
LINE
  8
0
 62
     0
 10
107.393
 20
60.7811
 30
0.0
 11
106.594
 21
60.7811
 31
0.0
  0
LINE
  8
0
 62
     0
 10
106.594
 20
60.7811
 30
0.0
 11
106.594
 21
63.8817
 31
0.0
  0
LINE
  8
0
 62
     0
 10
106.594
 20
63.8817
 30
0.0
 11
107.393
 21
63.8817
 31
0.0
  0
LINE
  8
0
 62
     0
 10
107.393
 20
63.8817
 30
0.0
 11
107.393
 21
69.6807
 31
0.0
  0
LINE
  8
0
 62
     0
 10
107.393
 20
69.6807
 30
0.0
 11
106.594
 21
69.6807
 31
0.0
  0
LINE
  8
0
 62
     0
 10
106.594
 20
69.6807
 30
0.0
 11
106.594
 21
72.7812
 31
0.0
  0
LINE
  8
0
 62
     0
 10
106.594
 20
72.7812
 30
0.0
 11
107.393
 21
72.7812
 31
0.0
  0
LINE
  8
0
 62
     0
 10
107.393
 20
72.7812
 30
0.0
 11
107.393
 21
73.7817
 31
0.0
  0
LINE
  8
0
 62
     0
 10
107.393
 20
73.7817
 30
0.0
 11
121.394
 21
73.7817
 31
0.0
  0
LINE
  8
0
 62
     0
 10
121.394
 20
73.7817
 30
0.0
 11
121.394
 21
72.7812
 31
0.0
  0
LINE
  8
0
 62
     0
 10
121.394
 20
72.7812
 30
0.0
 11
122.193
 21
72.7812
 31
0.0
  0
LINE
  8
0
 62
     0
 10
122.193
 20
72.7812
 30
0.0
 11
122.193
 21
69.6807
 31
0.0
  0
LINE
  8
0
 62
     0
 10
122.193
 20
69.6807
 30
0.0
 11
121.394
 21
69.6807
 31
0.0
  0
LINE
  8
0
 62
     0
 10
121.394
 20
69.6807
 30
0.0
 11
121.394
 21
63.8817
 31
0.0
  0
LINE
  8
0
 62
     0
 10
121.394
 20
63.8817
 30
0.0
 11
122.193
 21
63.8817
 31
0.0
  0
LINE
  8
0
 62
     0
 10
122.193
 20
63.8817
 30
0.0
 11
122.193
 21
60.7811
 31
0.0
  0
LINE
  8
0
 62
     0
 10
122.193
 20
60.7811
 30
0.0
 11
121.394
 21
60.7811
 31
0.0
  0
LINE
  8
0
 62
     0
 10
126.155
 20
41.7311
 30
0.0
 11
126.155
 21
40.7307
 31
0.0
  0
LINE
  8
0
 62
     0
 10
126.155
 20
40.7307
 30
0.0
 11
112.156
 21
40.7307
 31
0.0
  0
LINE
  8
0
 62
     0
 10
112.156
 20
40.7307
 30
0.0
 11
112.156
 21
41.7311
 31
0.0
  0
LINE
  8
0
 62
     0
 10
112.156
 20
41.7311
 30
0.0
 11
111.355
 21
41.7311
 31
0.0
  0
LINE
  8
0
 62
     0
 10
111.355
 20
41.7311
 30
0.0
 11
111.355
 21
44.8317
 31
0.0
  0
LINE
  8
0
 62
     0
 10
111.355
 20
44.8317
 30
0.0
 11
112.156
 21
44.8317
 31
0.0
  0
LINE
  8
0
 62
     0
 10
112.156
 20
44.8317
 30
0.0
 11
112.156
 21
50.6307
 31
0.0
  0
LINE
  8
0
 62
     0
 10
112.156
 20
50.6307
 30
0.0
 11
111.355
 21
50.6307
 31
0.0
  0
LINE
  8
0
 62
     0
 10
111.355
 20
50.6307
 30
0.0
 11
111.355
 21
53.7312
 31
0.0
  0
LINE
  8
0
 62
     0
 10
111.355
 20
53.7312
 30
0.0
 11
112.156
 21
53.7312
 31
0.0
  0
LINE
  8
0
 62
     0
 10
112.156
 20
53.7312
 30
0.0
 11
112.156
 21
54.7317
 31
0.0
  0
LINE
  8
0
 62
     0
 10
112.156
 20
54.7317
 30
0.0
 11
126.155
 21
54.7317
 31
0.0
  0
LINE
  8
0
 62
     0
 10
126.155
 20
54.7317
 30
0.0
 11
126.155
 21
53.7312
 31
0.0
  0
LINE
  8
0
 62
     0
 10
126.155
 20
53.7312
 30
0.0
 11
126.956
 21
53.7312
 31
0.0
  0
LINE
  8
0
 62
     0
 10
126.956
 20
53.7312
 30
0.0
 11
126.956
 21
50.6307
 31
0.0
  0
LINE
  8
0
 62
     0
 10
126.956
 20
50.6307
 30
0.0
 11
126.155
 21
50.6307
 31
0.0
  0
LINE
  8
0
 62
     0
 10
126.155
 20
50.6307
 30
0.0
 11
126.155
 21
44.8317
 31
0.0
  0
LINE
  8
0
 62
     0
 10
126.155
 20
44.8317
 30
0.0
 11
126.956
 21
44.8317
 31
0.0
  0
LINE
  8
0
 62
     0
 10
126.956
 20
44.8317
 30
0.0
 11
126.956
 21
41.7311
 31
0.0
  0
LINE
  8
0
 62
     0
 10
126.956
 20
41.7311
 30
0.0
 11
126.155
 21
41.7311
 31
0.0
  0
LINE
  8
0
 62
     0
 10
130.919
 20
98.8811
 30
0.0
 11
130.919
 21
97.8807
 31
0.0
  0
LINE
  8
0
 62
     0
 10
130.919
 20
97.8807
 30
0.0
 11
116.918
 21
97.8807
 31
0.0
  0
LINE
  8
0
 62
     0
 10
116.918
 20
97.8807
 30
0.0
 11
116.918
 21
98.8811
 31
0.0
  0
LINE
  8
0
 62
     0
 10
116.918
 20
98.8811
 30
0.0
 11
116.119
 21
98.8811
 31
0.0
  0
LINE
  8
0
 62
     0
 10
116.119
 20
98.8811
 30
0.0
 11
116.119
 21
101.982
 31
0.0
  0
LINE
  8
0
 62
     0
 10
116.119
 20
101.982
 30
0.0
 11
116.918
 21
101.982
 31
0.0
  0
LINE
  8
0
 62
     0
 10
116.918
 20
101.982
 30
0.0
 11
116.918
 21
107.781
 31
0.0
  0
LINE
  8
0
 62
     0
 10
116.918
 20
107.781
 30
0.0
 11
116.119
 21
107.781
 31
0.0
  0
LINE
  8
0
 62
     0
 10
116.119
 20
107.781
 30
0.0
 11
116.119
 21
110.881
 31
0.0
  0
LINE
  8
0
 62
     0
 10
116.119
 20
110.881
 30
0.0
 11
116.918
 21
110.881
 31
0.0
  0
LINE
  8
0
 62
     0
 10
116.918
 20
110.881
 30
0.0
 11
116.918
 21
111.882
 31
0.0
  0
LINE
  8
0
 62
     0
 10
116.918
 20
111.882
 30
0.0
 11
130.919
 21
111.882
 31
0.0
  0
LINE
  8
0
 62
     0
 10
130.919
 20
111.882
 30
0.0
 11
130.919
 21
110.881
 31
0.0
  0
LINE
  8
0
 62
     0
 10
130.919
 20
110.881
 30
0.0
 11
131.718
 21
110.881
 31
0.0
  0
LINE
  8
0
 62
     0
 10
131.718
 20
110.881
 30
0.0
 11
131.718
 21
107.781
 31
0.0
  0
LINE
  8
0
 62
     0
 10
131.718
 20
107.781
 30
0.0
 11
130.919
 21
107.781
 31
0.0
  0
LINE
  8
0
 62
     0
 10
130.919
 20
107.781
 30
0.0
 11
130.919
 21
101.982
 31
0.0
  0
LINE
  8
0
 62
     0
 10
130.919
 20
101.982
 30
0.0
 11
131.718
 21
101.982
 31
0.0
  0
LINE
  8
0
 62
     0
 10
131.718
 20
101.982
 30
0.0
 11
131.718
 21
98.8811
 31
0.0
  0
LINE
  8
0
 62
     0
 10
131.718
 20
98.8811
 30
0.0
 11
130.919
 21
98.8811
 31
0.0
  0
LINE
  8
0
 62
     0
 10
130.919
 20
79.8311
 30
0.0
 11
130.919
 21
78.8307
 31
0.0
  0
LINE
  8
0
 62
     0
 10
130.919
 20
78.8307
 30
0.0
 11
116.918
 21
78.8307
 31
0.0
  0
LINE
  8
0
 62
     0
 10
116.918
 20
78.8307
 30
0.0
 11
116.918
 21
79.8311
 31
0.0
  0
LINE
  8
0
 62
     0
 10
116.918
 20
79.8311
 30
0.0
 11
116.119
 21
79.8311
 31
0.0
  0
LINE
  8
0
 62
     0
 10
116.119
 20
79.8311
 30
0.0
 11
116.119
 21
82.9317
 31
0.0
  0
LINE
  8
0
 62
     0
 10
116.119
 20
82.9317
 30
0.0
 11
116.918
 21
82.9317
 31
0.0
  0
LINE
  8
0
 62
     0
 10
116.918
 20
82.9317
 30
0.0
 11
116.918
 21
88.7307
 31
0.0
  0
LINE
  8
0
 62
     0
 10
116.918
 20
88.7307
 30
0.0
 11
116.119
 21
88.7307
 31
0.0
  0
LINE
  8
0
 62
     0
 10
116.119
 20
88.7307
 30
0.0
 11
116.119
 21
91.8312
 31
0.0
  0
LINE
  8
0
 62
     0
 10
116.119
 20
91.8312
 30
0.0
 11
116.918
 21
91.8312
 31
0.0
  0
LINE
  8
0
 62
     0
 10
116.918
 20
91.8312
 30
0.0
 11
116.918
 21
92.8317
 31
0.0
  0
LINE
  8
0
 62
     0
 10
116.918
 20
92.8317
 30
0.0
 11
130.919
 21
92.8317
 31
0.0
  0
LINE
  8
0
 62
     0
 10
130.919
 20
92.8317
 30
0.0
 11
130.919
 21
91.8312
 31
0.0
  0
LINE
  8
0
 62
     0
 10
130.919
 20
91.8312
 30
0.0
 11
131.718
 21
91.8312
 31
0.0
  0
LINE
  8
0
 62
     0
 10
131.718
 20
91.8312
 30
0.0
 11
131.718
 21
88.7307
 31
0.0
  0
LINE
  8
0
 62
     0
 10
131.718
 20
88.7307
 30
0.0
 11
130.919
 21
88.7307
 31
0.0
  0
LINE
  8
0
 62
     0
 10
130.919
 20
88.7307
 30
0.0
 11
130.919
 21
82.9317
 31
0.0
  0
LINE
  8
0
 62
     0
 10
130.919
 20
82.9317
 30
0.0
 11
131.718
 21
82.9317
 31
0.0
  0
LINE
  8
0
 62
     0
 10
131.718
 20
82.9317
 30
0.0
 11
131.718
 21
79.8311
 31
0.0
  0
LINE
  8
0
 62
     0
 10
131.718
 20
79.8311
 30
0.0
 11
130.919
 21
79.8311
 31
0.0
  0
LINE
  8
0
 62
     0
 10
135.682
 20
22.6811
 30
0.0
 11
135.682
 21
21.6807
 31
0.0
  0
LINE
  8
0
 62
     0
 10
135.682
 20
21.6807
 30
0.0
 11
121.682
 21
21.6807
 31
0.0
  0
LINE
  8
0
 62
     0
 10
121.682
 20
21.6807
 30
0.0
 11
121.682
 21
22.6811
 31
0.0
  0
LINE
  8
0
 62
     0
 10
121.682
 20
22.6811
 30
0.0
 11
120.881
 21
22.6811
 31
0.0
  0
LINE
  8
0
 62
     0
 10
120.881
 20
22.6811
 30
0.0
 11
120.881
 21
25.7817
 31
0.0
  0
LINE
  8
0
 62
     0
 10
120.881
 20
25.7817
 30
0.0
 11
121.682
 21
25.7817
 31
0.0
  0
LINE
  8
0
 62
     0
 10
121.682
 20
25.7817
 30
0.0
 11
121.682
 21
31.5805
 31
0.0
  0
LINE
  8
0
 62
     0
 10
121.682
 20
31.5805
 30
0.0
 11
120.881
 21
31.5805
 31
0.0
  0
LINE
  8
0
 62
     0
 10
120.881
 20
31.5805
 30
0.0
 11
120.881
 21
34.6811
 31
0.0
  0
LINE
  8
0
 62
     0
 10
120.881
 20
34.6811
 30
0.0
 11
121.682
 21
34.6811
 31
0.0
  0
LINE
  8
0
 62
     0
 10
121.682
 20
34.6811
 30
0.0
 11
121.682
 21
35.6817
 31
0.0
  0
LINE
  8
0
 62
     0
 10
121.682
 20
35.6817
 30
0.0
 11
135.682
 21
35.6817
 31
0.0
  0
LINE
  8
0
 62
     0
 10
135.682
 20
35.6817
 30
0.0
 11
135.682
 21
34.6811
 31
0.0
  0
LINE
  8
0
 62
     0
 10
135.682
 20
34.6811
 30
0.0
 11
136.482
 21
34.6811
 31
0.0
  0
LINE
  8
0
 62
     0
 10
136.482
 20
34.6811
 30
0.0
 11
136.482
 21
31.5805
 31
0.0
  0
LINE
  8
0
 62
     0
 10
136.482
 20
31.5805
 30
0.0
 11
135.682
 21
31.5805
 31
0.0
  0
LINE
  8
0
 62
     0
 10
135.682
 20
31.5805
 30
0.0
 11
135.682
 21
25.7817
 31
0.0
  0
LINE
  8
0
 62
     0
 10
135.682
 20
25.7817
 30
0.0
 11
136.482
 21
25.7817
 31
0.0
  0
LINE
  8
0
 62
     0
 10
136.482
 20
25.7817
 30
0.0
 11
136.482
 21
22.6811
 31
0.0
  0
LINE
  8
0
 62
     0
 10
136.482
 20
22.6811
 30
0.0
 11
135.682
 21
22.6811
 31
0.0
  0
LINE
  8
0
 62
     0
 10
140.444
 20
60.7811
 30
0.0
 11
140.444
 21
59.7807
 31
0.0
  0
LINE
  8
0
 62
     0
 10
140.444
 20
59.7807
 30
0.0
 11
126.443
 21
59.7807
 31
0.0
  0
LINE
  8
0
 62
     0
 10
126.443
 20
59.7807
 30
0.0
 11
126.443
 21
60.7811
 31
0.0
  0
LINE
  8
0
 62
     0
 10
126.443
 20
60.7811
 30
0.0
 11
125.644
 21
60.7811
 31
0.0
  0
LINE
  8
0
 62
     0
 10
125.644
 20
60.7811
 30
0.0
 11
125.644
 21
63.8817
 31
0.0
  0
LINE
  8
0
 62
     0
 10
125.644
 20
63.8817
 30
0.0
 11
126.443
 21
63.8817
 31
0.0
  0
LINE
  8
0
 62
     0
 10
126.443
 20
63.8817
 30
0.0
 11
126.443
 21
69.6807
 31
0.0
  0
LINE
  8
0
 62
     0
 10
126.443
 20
69.6807
 30
0.0
 11
125.644
 21
69.6807
 31
0.0
  0
LINE
  8
0
 62
     0
 10
125.644
 20
69.6807
 30
0.0
 11
125.644
 21
72.7812
 31
0.0
  0
LINE
  8
0
 62
     0
 10
125.644
 20
72.7812
 30
0.0
 11
126.443
 21
72.7812
 31
0.0
  0
LINE
  8
0
 62
     0
 10
126.443
 20
72.7812
 30
0.0
 11
126.443
 21
73.7817
 31
0.0
  0
LINE
  8
0
 62
     0
 10
126.443
 20
73.7817
 30
0.0
 11
140.444
 21
73.7817
 31
0.0
  0
LINE
  8
0
 62
     0
 10
140.444
 20
73.7817
 30
0.0
 11
140.444
 21
72.7812
 31
0.0
  0
LINE
  8
0
 62
     0
 10
140.444
 20
72.7812
 30
0.0
 11
141.243
 21
72.7812
 31
0.0
  0
LINE
  8
0
 62
     0
 10
141.243
 20
72.7812
 30
0.0
 11
141.243
 21
69.6807
 31
0.0
  0
LINE
  8
0
 62
     0
 10
141.243
 20
69.6807
 30
0.0
 11
140.444
 21
69.6807
 31
0.0
  0
LINE
  8
0
 62
     0
 10
140.444
 20
69.6807
 30
0.0
 11
140.444
 21
63.8817
 31
0.0
  0
LINE
  8
0
 62
     0
 10
140.444
 20
63.8817
 30
0.0
 11
141.243
 21
63.8817
 31
0.0
  0
LINE
  8
0
 62
     0
 10
141.243
 20
63.8817
 30
0.0
 11
141.243
 21
60.7811
 31
0.0
  0
LINE
  8
0
 62
     0
 10
141.243
 20
60.7811
 30
0.0
 11
140.444
 21
60.7811
 31
0.0
  0
LINE
  8
0
 62
     0
 10
145.205
 20
41.7311
 30
0.0
 11
145.205
 21
40.7307
 31
0.0
  0
LINE
  8
0
 62
     0
 10
145.205
 20
40.7307
 30
0.0
 11
131.206
 21
40.7307
 31
0.0
  0
LINE
  8
0
 62
     0
 10
131.206
 20
40.7307
 30
0.0
 11
131.206
 21
41.7311
 31
0.0
  0
LINE
  8
0
 62
     0
 10
131.206
 20
41.7311
 30
0.0
 11
130.405
 21
41.7311
 31
0.0
  0
LINE
  8
0
 62
     0
 10
130.405
 20
41.7311
 30
0.0
 11
130.405
 21
44.8317
 31
0.0
  0
LINE
  8
0
 62
     0
 10
130.405
 20
44.8317
 30
0.0
 11
131.206
 21
44.8317
 31
0.0
  0
LINE
  8
0
 62
     0
 10
131.206
 20
44.8317
 30
0.0
 11
131.206
 21
50.6307
 31
0.0
  0
LINE
  8
0
 62
     0
 10
131.206
 20
50.6307
 30
0.0
 11
130.405
 21
50.6307
 31
0.0
  0
LINE
  8
0
 62
     0
 10
130.405
 20
50.6307
 30
0.0
 11
130.405
 21
53.7312
 31
0.0
  0
LINE
  8
0
 62
     0
 10
130.405
 20
53.7312
 30
0.0
 11
131.206
 21
53.7312
 31
0.0
  0
LINE
  8
0
 62
     0
 10
131.206
 20
53.7312
 30
0.0
 11
131.206
 21
54.7317
 31
0.0
  0
LINE
  8
0
 62
     0
 10
131.206
 20
54.7317
 30
0.0
 11
145.205
 21
54.7317
 31
0.0
  0
LINE
  8
0
 62
     0
 10
145.205
 20
54.7317
 30
0.0
 11
145.205
 21
53.7312
 31
0.0
  0
LINE
  8
0
 62
     0
 10
145.205
 20
53.7312
 30
0.0
 11
146.006
 21
53.7312
 31
0.0
  0
LINE
  8
0
 62
     0
 10
146.006
 20
53.7312
 30
0.0
 11
146.006
 21
50.6307
 31
0.0
  0
LINE
  8
0
 62
     0
 10
146.006
 20
50.6307
 30
0.0
 11
145.205
 21
50.6307
 31
0.0
  0
LINE
  8
0
 62
     0
 10
145.205
 20
50.6307
 30
0.0
 11
145.205
 21
44.8317
 31
0.0
  0
LINE
  8
0
 62
     0
 10
145.205
 20
44.8317
 30
0.0
 11
146.006
 21
44.8317
 31
0.0
  0
LINE
  8
0
 62
     0
 10
146.006
 20
44.8317
 30
0.0
 11
146.006
 21
41.7311
 31
0.0
  0
LINE
  8
0
 62
     0
 10
146.006
 20
41.7311
 30
0.0
 11
145.205
 21
41.7311
 31
0.0
  0
LINE
  8
0
 62
     0
 10
149.969
 20
98.8811
 30
0.0
 11
149.969
 21
97.8807
 31
0.0
  0
LINE
  8
0
 62
     0
 10
149.969
 20
97.8807
 30
0.0
 11
135.968
 21
97.8807
 31
0.0
  0
LINE
  8
0
 62
     0
 10
135.968
 20
97.8807
 30
0.0
 11
135.968
 21
98.8811
 31
0.0
  0
LINE
  8
0
 62
     0
 10
135.968
 20
98.8811
 30
0.0
 11
135.169
 21
98.8811
 31
0.0
  0
LINE
  8
0
 62
     0
 10
135.169
 20
98.8811
 30
0.0
 11
135.169
 21
101.982
 31
0.0
  0
LINE
  8
0
 62
     0
 10
135.169
 20
101.982
 30
0.0
 11
135.968
 21
101.982
 31
0.0
  0
LINE
  8
0
 62
     0
 10
135.968
 20
101.982
 30
0.0
 11
135.968
 21
107.781
 31
0.0
  0
LINE
  8
0
 62
     0
 10
135.968
 20
107.781
 30
0.0
 11
135.169
 21
107.781
 31
0.0
  0
LINE
  8
0
 62
     0
 10
135.169
 20
107.781
 30
0.0
 11
135.169
 21
110.881
 31
0.0
  0
LINE
  8
0
 62
     0
 10
135.169
 20
110.881
 30
0.0
 11
135.968
 21
110.881
 31
0.0
  0
LINE
  8
0
 62
     0
 10
135.968
 20
110.881
 30
0.0
 11
135.968
 21
111.882
 31
0.0
  0
LINE
  8
0
 62
     0
 10
135.968
 20
111.882
 30
0.0
 11
149.969
 21
111.882
 31
0.0
  0
LINE
  8
0
 62
     0
 10
149.969
 20
111.882
 30
0.0
 11
149.969
 21
110.881
 31
0.0
  0
LINE
  8
0
 62
     0
 10
149.969
 20
110.881
 30
0.0
 11
150.768
 21
110.881
 31
0.0
  0
LINE
  8
0
 62
     0
 10
150.768
 20
110.881
 30
0.0
 11
150.768
 21
107.781
 31
0.0
  0
LINE
  8
0
 62
     0
 10
150.768
 20
107.781
 30
0.0
 11
149.969
 21
107.781
 31
0.0
  0
LINE
  8
0
 62
     0
 10
149.969
 20
107.781
 30
0.0
 11
149.969
 21
101.982
 31
0.0
  0
LINE
  8
0
 62
     0
 10
149.969
 20
101.982
 30
0.0
 11
150.768
 21
101.982
 31
0.0
  0
LINE
  8
0
 62
     0
 10
150.768
 20
101.982
 30
0.0
 11
150.768
 21
98.8811
 31
0.0
  0
LINE
  8
0
 62
     0
 10
150.768
 20
98.8811
 30
0.0
 11
149.969
 21
98.8811
 31
0.0
  0
LINE
  8
0
 62
     0
 10
149.969
 20
79.8311
 30
0.0
 11
149.969
 21
78.8307
 31
0.0
  0
LINE
  8
0
 62
     0
 10
149.969
 20
78.8307
 30
0.0
 11
135.968
 21
78.8307
 31
0.0
  0
LINE
  8
0
 62
     0
 10
135.968
 20
78.8307
 30
0.0
 11
135.968
 21
79.8311
 31
0.0
  0
LINE
  8
0
 62
     0
 10
135.968
 20
79.8311
 30
0.0
 11
135.169
 21
79.8311
 31
0.0
  0
LINE
  8
0
 62
     0
 10
135.169
 20
79.8311
 30
0.0
 11
135.169
 21
82.9317
 31
0.0
  0
LINE
  8
0
 62
     0
 10
135.169
 20
82.9317
 30
0.0
 11
135.968
 21
82.9317
 31
0.0
  0
LINE
  8
0
 62
     0
 10
135.968
 20
82.9317
 30
0.0
 11
135.968
 21
88.7307
 31
0.0
  0
LINE
  8
0
 62
     0
 10
135.968
 20
88.7307
 30
0.0
 11
135.169
 21
88.7307
 31
0.0
  0
LINE
  8
0
 62
     0
 10
135.169
 20
88.7307
 30
0.0
 11
135.169
 21
91.8312
 31
0.0
  0
LINE
  8
0
 62
     0
 10
135.169
 20
91.8312
 30
0.0
 11
135.968
 21
91.8312
 31
0.0
  0
LINE
  8
0
 62
     0
 10
135.968
 20
91.8312
 30
0.0
 11
135.968
 21
92.8317
 31
0.0
  0
LINE
  8
0
 62
     0
 10
135.968
 20
92.8317
 30
0.0
 11
149.969
 21
92.8317
 31
0.0
  0
LINE
  8
0
 62
     0
 10
149.969
 20
92.8317
 30
0.0
 11
149.969
 21
91.8312
 31
0.0
  0
LINE
  8
0
 62
     0
 10
149.969
 20
91.8312
 30
0.0
 11
150.768
 21
91.8312
 31
0.0
  0
LINE
  8
0
 62
     0
 10
150.768
 20
91.8312
 30
0.0
 11
150.768
 21
88.7307
 31
0.0
  0
LINE
  8
0
 62
     0
 10
150.768
 20
88.7307
 30
0.0
 11
149.969
 21
88.7307
 31
0.0
  0
LINE
  8
0
 62
     0
 10
149.969
 20
88.7307
 30
0.0
 11
149.969
 21
82.9317
 31
0.0
  0
LINE
  8
0
 62
     0
 10
149.969
 20
82.9317
 30
0.0
 11
150.768
 21
82.9317
 31
0.0
  0
LINE
  8
0
 62
     0
 10
150.768
 20
82.9317
 30
0.0
 11
150.768
 21
79.8311
 31
0.0
  0
LINE
  8
0
 62
     0
 10
150.768
 20
79.8311
 30
0.0
 11
149.969
 21
79.8311
 31
0.0
  0
LINE
  8
0
 62
     0
 10
154.732
 20
22.6811
 30
0.0
 11
154.732
 21
21.6807
 31
0.0
  0
LINE
  8
0
 62
     0
 10
154.732
 20
21.6807
 30
0.0
 11
140.732
 21
21.6807
 31
0.0
  0
LINE
  8
0
 62
     0
 10
140.732
 20
21.6807
 30
0.0
 11
140.732
 21
22.6811
 31
0.0
  0
LINE
  8
0
 62
     0
 10
140.732
 20
22.6811
 30
0.0
 11
139.931
 21
22.6811
 31
0.0
  0
LINE
  8
0
 62
     0
 10
139.931
 20
22.6811
 30
0.0
 11
139.931
 21
25.7817
 31
0.0
  0
LINE
  8
0
 62
     0
 10
139.931
 20
25.7817
 30
0.0
 11
140.732
 21
25.7817
 31
0.0
  0
LINE
  8
0
 62
     0
 10
140.732
 20
25.7817
 30
0.0
 11
140.732
 21
31.5805
 31
0.0
  0
LINE
  8
0
 62
     0
 10
140.732
 20
31.5805
 30
0.0
 11
139.931
 21
31.5805
 31
0.0
  0
LINE
  8
0
 62
     0
 10
139.931
 20
31.5805
 30
0.0
 11
139.931
 21
34.6811
 31
0.0
  0
LINE
  8
0
 62
     0
 10
139.931
 20
34.6811
 30
0.0
 11
140.732
 21
34.6811
 31
0.0
  0
LINE
  8
0
 62
     0
 10
140.732
 20
34.6811
 30
0.0
 11
140.732
 21
35.6817
 31
0.0
  0
LINE
  8
0
 62
     0
 10
140.732
 20
35.6817
 30
0.0
 11
154.732
 21
35.6817
 31
0.0
  0
LINE
  8
0
 62
     0
 10
154.732
 20
35.6817
 30
0.0
 11
154.732
 21
34.6811
 31
0.0
  0
LINE
  8
0
 62
     0
 10
154.732
 20
34.6811
 30
0.0
 11
155.532
 21
34.6811
 31
0.0
  0
LINE
  8
0
 62
     0
 10
155.532
 20
34.6811
 30
0.0
 11
155.532
 21
31.5805
 31
0.0
  0
LINE
  8
0
 62
     0
 10
155.532
 20
31.5805
 30
0.0
 11
154.732
 21
31.5805
 31
0.0
  0
LINE
  8
0
 62
     0
 10
154.732
 20
31.5805
 30
0.0
 11
154.732
 21
25.7817
 31
0.0
  0
LINE
  8
0
 62
     0
 10
154.732
 20
25.7817
 30
0.0
 11
155.532
 21
25.7817
 31
0.0
  0
LINE
  8
0
 62
     0
 10
155.532
 20
25.7817
 30
0.0
 11
155.532
 21
22.6811
 31
0.0
  0
LINE
  8
0
 62
     0
 10
155.532
 20
22.6811
 30
0.0
 11
154.732
 21
22.6811
 31
0.0
  0
LINE
  8
0
 62
     0
 10
159.494
 20
60.7811
 30
0.0
 11
159.494
 21
59.7807
 31
0.0
  0
LINE
  8
0
 62
     0
 10
159.494
 20
59.7807
 30
0.0
 11
145.493
 21
59.7807
 31
0.0
  0
LINE
  8
0
 62
     0
 10
145.493
 20
59.7807
 30
0.0
 11
145.493
 21
60.7811
 31
0.0
  0
LINE
  8
0
 62
     0
 10
145.493
 20
60.7811
 30
0.0
 11
144.694
 21
60.7811
 31
0.0
  0
LINE
  8
0
 62
     0
 10
144.694
 20
60.7811
 30
0.0
 11
144.694
 21
63.8817
 31
0.0
  0
LINE
  8
0
 62
     0
 10
144.694
 20
63.8817
 30
0.0
 11
145.493
 21
63.8817
 31
0.0
  0
LINE
  8
0
 62
     0
 10
145.493
 20
63.8817
 30
0.0
 11
145.493
 21
69.6807
 31
0.0
  0
LINE
  8
0
 62
     0
 10
145.493
 20
69.6807
 30
0.0
 11
144.694
 21
69.6807
 31
0.0
  0
LINE
  8
0
 62
     0
 10
144.694
 20
69.6807
 30
0.0
 11
144.694
 21
72.7812
 31
0.0
  0
LINE
  8
0
 62
     0
 10
144.694
 20
72.7812
 30
0.0
 11
145.493
 21
72.7812
 31
0.0
  0
LINE
  8
0
 62
     0
 10
145.493
 20
72.7812
 30
0.0
 11
145.493
 21
73.7817
 31
0.0
  0
LINE
  8
0
 62
     0
 10
145.493
 20
73.7817
 30
0.0
 11
159.494
 21
73.7817
 31
0.0
  0
LINE
  8
0
 62
     0
 10
159.494
 20
73.7817
 30
0.0
 11
159.494
 21
72.7812
 31
0.0
  0
LINE
  8
0
 62
     0
 10
159.494
 20
72.7812
 30
0.0
 11
160.293
 21
72.7812
 31
0.0
  0
LINE
  8
0
 62
     0
 10
160.293
 20
72.7812
 30
0.0
 11
160.293
 21
69.6807
 31
0.0
  0
LINE
  8
0
 62
     0
 10
160.293
 20
69.6807
 30
0.0
 11
159.494
 21
69.6807
 31
0.0
  0
LINE
  8
0
 62
     0
 10
159.494
 20
69.6807
 30
0.0
 11
159.494
 21
63.8817
 31
0.0
  0
LINE
  8
0
 62
     0
 10
159.494
 20
63.8817
 30
0.0
 11
160.293
 21
63.8817
 31
0.0
  0
LINE
  8
0
 62
     0
 10
160.293
 20
63.8817
 30
0.0
 11
160.293
 21
60.7811
 31
0.0
  0
LINE
  8
0
 62
     0
 10
160.293
 20
60.7811
 30
0.0
 11
159.494
 21
60.7811
 31
0.0
  0
LINE
  8
0
 62
     0
 10
164.255
 20
41.7311
 30
0.0
 11
164.255
 21
40.7307
 31
0.0
  0
LINE
  8
0
 62
     0
 10
164.255
 20
40.7307
 30
0.0
 11
150.256
 21
40.7307
 31
0.0
  0
LINE
  8
0
 62
     0
 10
150.256
 20
40.7307
 30
0.0
 11
150.256
 21
41.7311
 31
0.0
  0
LINE
  8
0
 62
     0
 10
150.256
 20
41.7311
 30
0.0
 11
149.455
 21
41.7311
 31
0.0
  0
LINE
  8
0
 62
     0
 10
149.455
 20
41.7311
 30
0.0
 11
149.455
 21
44.8317
 31
0.0
  0
LINE
  8
0
 62
     0
 10
149.455
 20
44.8317
 30
0.0
 11
150.256
 21
44.8317
 31
0.0
  0
LINE
  8
0
 62
     0
 10
150.256
 20
44.8317
 30
0.0
 11
150.256
 21
50.6307
 31
0.0
  0
LINE
  8
0
 62
     0
 10
150.256
 20
50.6307
 30
0.0
 11
149.455
 21
50.6307
 31
0.0
  0
LINE
  8
0
 62
     0
 10
149.455
 20
50.6307
 30
0.0
 11
149.455
 21
53.7312
 31
0.0
  0
LINE
  8
0
 62
     0
 10
149.455
 20
53.7312
 30
0.0
 11
150.256
 21
53.7312
 31
0.0
  0
LINE
  8
0
 62
     0
 10
150.256
 20
53.7312
 30
0.0
 11
150.256
 21
54.7317
 31
0.0
  0
LINE
  8
0
 62
     0
 10
150.256
 20
54.7317
 30
0.0
 11
164.255
 21
54.7317
 31
0.0
  0
LINE
  8
0
 62
     0
 10
164.255
 20
54.7317
 30
0.0
 11
164.255
 21
53.7312
 31
0.0
  0
LINE
  8
0
 62
     0
 10
164.255
 20
53.7312
 30
0.0
 11
165.057
 21
53.7312
 31
0.0
  0
LINE
  8
0
 62
     0
 10
165.057
 20
53.7312
 30
0.0
 11
165.057
 21
50.6307
 31
0.0
  0
LINE
  8
0
 62
     0
 10
165.057
 20
50.6307
 30
0.0
 11
164.255
 21
50.6307
 31
0.0
  0
LINE
  8
0
 62
     0
 10
164.255
 20
50.6307
 30
0.0
 11
164.255
 21
44.8317
 31
0.0
  0
LINE
  8
0
 62
     0
 10
164.255
 20
44.8317
 30
0.0
 11
165.057
 21
44.8317
 31
0.0
  0
LINE
  8
0
 62
     0
 10
165.057
 20
44.8317
 30
0.0
 11
165.057
 21
41.7311
 31
0.0
  0
LINE
  8
0
 62
     0
 10
165.057
 20
41.7311
 30
0.0
 11
164.255
 21
41.7311
 31
0.0
  0
LINE
  8
0
 62
     0
 10
169.019
 20
98.8811
 30
0.0
 11
169.019
 21
97.8807
 31
0.0
  0
LINE
  8
0
 62
     0
 10
169.019
 20
97.8807
 30
0.0
 11
155.018
 21
97.8807
 31
0.0
  0
LINE
  8
0
 62
     0
 10
155.018
 20
97.8807
 30
0.0
 11
155.018
 21
98.8811
 31
0.0
  0
LINE
  8
0
 62
     0
 10
155.018
 20
98.8811
 30
0.0
 11
154.219
 21
98.8811
 31
0.0
  0
LINE
  8
0
 62
     0
 10
154.219
 20
98.8811
 30
0.0
 11
154.219
 21
101.982
 31
0.0
  0
LINE
  8
0
 62
     0
 10
154.219
 20
101.982
 30
0.0
 11
155.018
 21
101.982
 31
0.0
  0
LINE
  8
0
 62
     0
 10
155.018
 20
101.982
 30
0.0
 11
155.018
 21
107.781
 31
0.0
  0
LINE
  8
0
 62
     0
 10
155.018
 20
107.781
 30
0.0
 11
154.219
 21
107.781
 31
0.0
  0
LINE
  8
0
 62
     0
 10
154.219
 20
107.781
 30
0.0
 11
154.219
 21
110.881
 31
0.0
  0
LINE
  8
0
 62
     0
 10
154.219
 20
110.881
 30
0.0
 11
155.018
 21
110.881
 31
0.0
  0
LINE
  8
0
 62
     0
 10
155.018
 20
110.881
 30
0.0
 11
155.018
 21
111.882
 31
0.0
  0
LINE
  8
0
 62
     0
 10
155.018
 20
111.882
 30
0.0
 11
169.019
 21
111.882
 31
0.0
  0
LINE
  8
0
 62
     0
 10
169.019
 20
111.882
 30
0.0
 11
169.019
 21
110.881
 31
0.0
  0
LINE
  8
0
 62
     0
 10
169.019
 20
110.881
 30
0.0
 11
169.818
 21
110.881
 31
0.0
  0
LINE
  8
0
 62
     0
 10
169.818
 20
110.881
 30
0.0
 11
169.818
 21
107.781
 31
0.0
  0
LINE
  8
0
 62
     0
 10
169.818
 20
107.781
 30
0.0
 11
169.019
 21
107.781
 31
0.0
  0
LINE
  8
0
 62
     0
 10
169.019
 20
107.781
 30
0.0
 11
169.019
 21
101.982
 31
0.0
  0
LINE
  8
0
 62
     0
 10
169.019
 20
101.982
 30
0.0
 11
169.818
 21
101.982
 31
0.0
  0
LINE
  8
0
 62
     0
 10
169.818
 20
101.982
 30
0.0
 11
169.818
 21
98.8811
 31
0.0
  0
LINE
  8
0
 62
     0
 10
169.818
 20
98.8811
 30
0.0
 11
169.019
 21
98.8811
 31
0.0
  0
LINE
  8
0
 62
     0
 10
169.019
 20
79.8311
 30
0.0
 11
169.019
 21
78.8307
 31
0.0
  0
LINE
  8
0
 62
     0
 10
169.019
 20
78.8307
 30
0.0
 11
155.018
 21
78.8307
 31
0.0
  0
LINE
  8
0
 62
     0
 10
155.018
 20
78.8307
 30
0.0
 11
155.018
 21
79.8311
 31
0.0
  0
LINE
  8
0
 62
     0
 10
155.018
 20
79.8311
 30
0.0
 11
154.219
 21
79.8311
 31
0.0
  0
LINE
  8
0
 62
     0
 10
154.219
 20
79.8311
 30
0.0
 11
154.219
 21
82.9317
 31
0.0
  0
LINE
  8
0
 62
     0
 10
154.219
 20
82.9317
 30
0.0
 11
155.018
 21
82.9317
 31
0.0
  0
LINE
  8
0
 62
     0
 10
155.018
 20
82.9317
 30
0.0
 11
155.018
 21
88.7307
 31
0.0
  0
LINE
  8
0
 62
     0
 10
155.018
 20
88.7307
 30
0.0
 11
154.219
 21
88.7307
 31
0.0
  0
LINE
  8
0
 62
     0
 10
154.219
 20
88.7307
 30
0.0
 11
154.219
 21
91.8312
 31
0.0
  0
LINE
  8
0
 62
     0
 10
154.219
 20
91.8312
 30
0.0
 11
155.018
 21
91.8312
 31
0.0
  0
LINE
  8
0
 62
     0
 10
155.018
 20
91.8312
 30
0.0
 11
155.018
 21
92.8317
 31
0.0
  0
LINE
  8
0
 62
     0
 10
155.018
 20
92.8317
 30
0.0
 11
169.019
 21
92.8317
 31
0.0
  0
LINE
  8
0
 62
     0
 10
169.019
 20
92.8317
 30
0.0
 11
169.019
 21
91.8312
 31
0.0
  0
LINE
  8
0
 62
     0
 10
169.019
 20
91.8312
 30
0.0
 11
169.818
 21
91.8312
 31
0.0
  0
LINE
  8
0
 62
     0
 10
169.818
 20
91.8312
 30
0.0
 11
169.818
 21
88.7307
 31
0.0
  0
LINE
  8
0
 62
     0
 10
169.818
 20
88.7307
 30
0.0
 11
169.019
 21
88.7307
 31
0.0
  0
LINE
  8
0
 62
     0
 10
169.019
 20
88.7307
 30
0.0
 11
169.019
 21
82.9317
 31
0.0
  0
LINE
  8
0
 62
     0
 10
169.019
 20
82.9317
 30
0.0
 11
169.818
 21
82.9317
 31
0.0
  0
LINE
  8
0
 62
     0
 10
169.818
 20
82.9317
 30
0.0
 11
169.818
 21
79.8311
 31
0.0
  0
LINE
  8
0
 62
     0
 10
169.818
 20
79.8311
 30
0.0
 11
169.019
 21
79.8311
 31
0.0
  0
LINE
  8
0
 62
     0
 10
173.782
 20
22.6811
 30
0.0
 11
173.782
 21
21.6807
 31
0.0
  0
LINE
  8
0
 62
     0
 10
173.782
 20
21.6807
 30
0.0
 11
159.782
 21
21.6807
 31
0.0
  0
LINE
  8
0
 62
     0
 10
159.782
 20
21.6807
 30
0.0
 11
159.782
 21
22.6811
 31
0.0
  0
LINE
  8
0
 62
     0
 10
159.782
 20
22.6811
 30
0.0
 11
158.981
 21
22.6811
 31
0.0
  0
LINE
  8
0
 62
     0
 10
158.981
 20
22.6811
 30
0.0
 11
158.981
 21
25.7817
 31
0.0
  0
LINE
  8
0
 62
     0
 10
158.981
 20
25.7817
 30
0.0
 11
159.782
 21
25.7817
 31
0.0
  0
LINE
  8
0
 62
     0
 10
159.782
 20
25.7817
 30
0.0
 11
159.782
 21
31.5805
 31
0.0
  0
LINE
  8
0
 62
     0
 10
159.782
 20
31.5805
 30
0.0
 11
158.981
 21
31.5805
 31
0.0
  0
LINE
  8
0
 62
     0
 10
158.981
 20
31.5805
 30
0.0
 11
158.981
 21
34.6811
 31
0.0
  0
LINE
  8
0
 62
     0
 10
158.981
 20
34.6811
 30
0.0
 11
159.782
 21
34.6811
 31
0.0
  0
LINE
  8
0
 62
     0
 10
159.782
 20
34.6811
 30
0.0
 11
159.782
 21
35.6817
 31
0.0
  0
LINE
  8
0
 62
     0
 10
159.782
 20
35.6817
 30
0.0
 11
173.782
 21
35.6817
 31
0.0
  0
LINE
  8
0
 62
     0
 10
173.782
 20
35.6817
 30
0.0
 11
173.782
 21
34.6811
 31
0.0
  0
LINE
  8
0
 62
     0
 10
173.782
 20
34.6811
 30
0.0
 11
174.582
 21
34.6811
 31
0.0
  0
LINE
  8
0
 62
     0
 10
174.582
 20
34.6811
 30
0.0
 11
174.582
 21
31.5805
 31
0.0
  0
LINE
  8
0
 62
     0
 10
174.582
 20
31.5805
 30
0.0
 11
173.782
 21
31.5805
 31
0.0
  0
LINE
  8
0
 62
     0
 10
173.782
 20
31.5805
 30
0.0
 11
173.782
 21
25.7817
 31
0.0
  0
LINE
  8
0
 62
     0
 10
173.782
 20
25.7817
 30
0.0
 11
174.582
 21
25.7817
 31
0.0
  0
LINE
  8
0
 62
     0
 10
174.582
 20
25.7817
 30
0.0
 11
174.582
 21
22.6811
 31
0.0
  0
LINE
  8
0
 62
     0
 10
174.582
 20
22.6811
 30
0.0
 11
173.782
 21
22.6811
 31
0.0
  0
LINE
  8
0
 62
     0
 10
178.544
 20
60.7811
 30
0.0
 11
178.544
 21
59.7807
 31
0.0
  0
LINE
  8
0
 62
     0
 10
178.544
 20
59.7807
 30
0.0
 11
164.543
 21
59.7807
 31
0.0
  0
LINE
  8
0
 62
     0
 10
164.543
 20
59.7807
 30
0.0
 11
164.543
 21
60.7811
 31
0.0
  0
LINE
  8
0
 62
     0
 10
164.543
 20
60.7811
 30
0.0
 11
163.744
 21
60.7811
 31
0.0
  0
LINE
  8
0
 62
     0
 10
163.744
 20
60.7811
 30
0.0
 11
163.744
 21
63.8817
 31
0.0
  0
LINE
  8
0
 62
     0
 10
163.744
 20
63.8817
 30
0.0
 11
164.543
 21
63.8817
 31
0.0
  0
LINE
  8
0
 62
     0
 10
164.543
 20
63.8817
 30
0.0
 11
164.543
 21
69.6807
 31
0.0
  0
LINE
  8
0
 62
     0
 10
164.543
 20
69.6807
 30
0.0
 11
163.744
 21
69.6807
 31
0.0
  0
LINE
  8
0
 62
     0
 10
163.744
 20
69.6807
 30
0.0
 11
163.744
 21
72.7812
 31
0.0
  0
LINE
  8
0
 62
     0
 10
163.744
 20
72.7812
 30
0.0
 11
164.543
 21
72.7812
 31
0.0
  0
LINE
  8
0
 62
     0
 10
164.543
 20
72.7812
 30
0.0
 11
164.543
 21
73.7817
 31
0.0
  0
LINE
  8
0
 62
     0
 10
164.543
 20
73.7817
 30
0.0
 11
178.544
 21
73.7817
 31
0.0
  0
LINE
  8
0
 62
     0
 10
178.544
 20
73.7817
 30
0.0
 11
178.544
 21
72.7812
 31
0.0
  0
LINE
  8
0
 62
     0
 10
178.544
 20
72.7812
 30
0.0
 11
179.343
 21
72.7812
 31
0.0
  0
LINE
  8
0
 62
     0
 10
179.343
 20
72.7812
 30
0.0
 11
179.343
 21
69.6807
 31
0.0
  0
LINE
  8
0
 62
     0
 10
179.343
 20
69.6807
 30
0.0
 11
178.544
 21
69.6807
 31
0.0
  0
LINE
  8
0
 62
     0
 10
178.544
 20
69.6807
 30
0.0
 11
178.544
 21
63.8817
 31
0.0
  0
LINE
  8
0
 62
     0
 10
178.544
 20
63.8817
 30
0.0
 11
179.343
 21
63.8817
 31
0.0
  0
LINE
  8
0
 62
     0
 10
179.343
 20
63.8817
 30
0.0
 11
179.343
 21
60.7811
 31
0.0
  0
LINE
  8
0
 62
     0
 10
179.343
 20
60.7811
 30
0.0
 11
178.544
 21
60.7811
 31
0.0
  0
LINE
  8
0
 62
     0
 10
183.307
 20
41.7311
 30
0.0
 11
183.307
 21
40.7307
 31
0.0
  0
LINE
  8
0
 62
     0
 10
183.307
 20
40.7307
 30
0.0
 11
169.307
 21
40.7307
 31
0.0
  0
LINE
  8
0
 62
     0
 10
169.307
 20
40.7307
 30
0.0
 11
169.307
 21
41.7311
 31
0.0
  0
LINE
  8
0
 62
     0
 10
169.307
 20
41.7311
 30
0.0
 11
168.505
 21
41.7311
 31
0.0
  0
LINE
  8
0
 62
     0
 10
168.505
 20
41.7311
 30
0.0
 11
168.505
 21
44.8317
 31
0.0
  0
LINE
  8
0
 62
     0
 10
168.505
 20
44.8317
 30
0.0
 11
169.307
 21
44.8317
 31
0.0
  0
LINE
  8
0
 62
     0
 10
169.307
 20
44.8317
 30
0.0
 11
169.307
 21
50.6307
 31
0.0
  0
LINE
  8
0
 62
     0
 10
169.307
 20
50.6307
 30
0.0
 11
168.505
 21
50.6307
 31
0.0
  0
LINE
  8
0
 62
     0
 10
168.505
 20
50.6307
 30
0.0
 11
168.505
 21
53.7312
 31
0.0
  0
LINE
  8
0
 62
     0
 10
168.505
 20
53.7312
 30
0.0
 11
169.307
 21
53.7312
 31
0.0
  0
LINE
  8
0
 62
     0
 10
169.307
 20
53.7312
 30
0.0
 11
169.307
 21
54.7317
 31
0.0
  0
LINE
  8
0
 62
     0
 10
169.307
 20
54.7317
 30
0.0
 11
183.307
 21
54.7317
 31
0.0
  0
LINE
  8
0
 62
     0
 10
183.307
 20
54.7317
 30
0.0
 11
183.307
 21
53.7312
 31
0.0
  0
LINE
  8
0
 62
     0
 10
183.307
 20
53.7312
 30
0.0
 11
184.107
 21
53.7312
 31
0.0
  0
LINE
  8
0
 62
     0
 10
184.107
 20
53.7312
 30
0.0
 11
184.107
 21
50.6307
 31
0.0
  0
LINE
  8
0
 62
     0
 10
184.107
 20
50.6307
 30
0.0
 11
183.307
 21
50.6307
 31
0.0
  0
LINE
  8
0
 62
     0
 10
183.307
 20
50.6307
 30
0.0
 11
183.307
 21
44.8317
 31
0.0
  0
LINE
  8
0
 62
     0
 10
183.307
 20
44.8317
 30
0.0
 11
184.107
 21
44.8317
 31
0.0
  0
LINE
  8
0
 62
     0
 10
184.107
 20
44.8317
 30
0.0
 11
184.107
 21
41.7311
 31
0.0
  0
LINE
  8
0
 62
     0
 10
184.107
 20
41.7311
 30
0.0
 11
183.307
 21
41.7311
 31
0.0
  0
LINE
  8
0
 62
     0
 10
184.388
 20
9.13088
 30
0.0
 11
184.388
 21
2.86081
 31
0.0
  0
LINE
  8
0
 62
     0
 10
184.388
 20
2.86081
 30
0.0
 11
182.713
 21
2.86081
 31
0.0
  0
LINE
  8
0
 62
     0
 10
182.713
 20
2.86081
 30
0.0
 11
182.713
 21
1.88102
 31
0.0
  0
LINE
  8
0
 62
     0
 10
182.713
 20
1.88102
 30
0.0
 11
179.412
 21
1.88102
 31
0.0
  0
LINE
  8
0
 62
     0
 10
179.412
 20
1.88102
 30
0.0
 11
179.412
 21
2.86081
 31
0.0
  0
LINE
  8
0
 62
     0
 10
179.412
 20
2.86081
 30
0.0
 11
177.738
 21
2.86081
 31
0.0
  0
LINE
  8
0
 62
     0
 10
177.738
 20
2.86081
 30
0.0
 11
177.738
 21
7.33118
 31
0.0
  0
LINE
  8
0
 62
     0
 10
177.738
 20
7.33118
 30
0.0
 11
138.063
 21
7.33118
 31
0.0
  0
LINE
  8
0
 62
     0
 10
138.063
 20
7.33118
 30
0.0
 11
138.063
 21
6.73171
 31
0.0
  0
LINE
  8
0
 62
     0
 10
138.063
 20
6.73171
 30
0.0
 11
138.862
 21
6.73171
 31
0.0
  0
LINE
  8
0
 62
     0
 10
138.862
 20
6.73171
 30
0.0
 11
138.862
 21
3.63114
 31
0.0
  0
LINE
  8
0
 62
     0
 10
138.862
 20
3.63114
 30
0.0
 11
138.063
 21
3.63114
 31
0.0
  0
LINE
  8
0
 62
     0
 10
138.063
 20
3.63114
 30
0.0
 11
138.063
 21
2.63067
 31
0.0
  0
LINE
  8
0
 62
     0
 10
138.063
 20
2.63067
 30
0.0
 11
124.063
 21
2.63067
 31
0.0
  0
LINE
  8
0
 62
     0
 10
124.063
 20
2.63067
 30
0.0
 11
124.063
 21
3.63114
 31
0.0
  0
LINE
  8
0
 62
     0
 10
124.063
 20
3.63114
 30
0.0
 11
123.263
 21
3.63114
 31
0.0
  0
LINE
  8
0
 62
     0
 10
123.263
 20
3.63114
 30
0.0
 11
123.263
 21
6.73171
 31
0.0
  0
LINE
  8
0
 62
     0
 10
123.263
 20
6.73171
 30
0.0
 11
124.063
 21
6.73171
 31
0.0
  0
LINE
  8
0
 62
     0
 10
124.063
 20
6.73171
 30
0.0
 11
124.063
 21
7.33118
 31
0.0
  0
LINE
  8
0
 62
     0
 10
124.063
 20
7.33118
 30
0.0
 11
84.3883
 21
7.33118
 31
0.0
  0
LINE
  8
0
 62
     0
 10
84.3883
 20
7.33118
 30
0.0
 11
84.3883
 21
2.86081
 31
0.0
  0
LINE
  8
0
 62
     0
 10
84.3883
 20
2.86081
 30
0.0
 11
82.7126
 21
2.86081
 31
0.0
  0
LINE
  8
0
 62
     0
 10
82.7126
 20
2.86081
 30
0.0
 11
82.7126
 21
1.88102
 31
0.0
  0
LINE
  8
0
 62
     0
 10
82.7126
 20
1.88102
 30
0.0
 11
79.412
 21
1.88102
 31
0.0
  0
LINE
  8
0
 62
     0
 10
79.412
 20
1.88102
 30
0.0
 11
79.412
 21
2.86081
 31
0.0
  0
LINE
  8
0
 62
     0
 10
79.412
 20
2.86081
 30
0.0
 11
77.7378
 21
2.86081
 31
0.0
  0
LINE
  8
0
 62
     0
 10
77.7378
 20
2.86081
 30
0.0
 11
77.7378
 21
9.13088
 31
0.0
  0
LINE
  8
0
 62
     0
 10
77.7378
 20
9.13088
 30
0.0
 11
76.8629
 21
9.13088
 31
0.0
  0
LINE
  8
0
 62
     0
 10
76.8629
 20
9.13088
 30
0.0
 11
76.8629
 21
11.9311
 31
0.0
  0
LINE
  8
0
 62
     0
 10
76.8629
 20
11.9311
 30
0.0
 11
77.7378
 21
11.9311
 31
0.0
  0
LINE
  8
0
 62
     0
 10
77.7378
 20
11.9311
 30
0.0
 11
77.7378
 21
15.1612
 31
0.0
  0
LINE
  8
0
 62
     0
 10
77.7378
 20
15.1612
 30
0.0
 11
79.412
 21
15.1612
 31
0.0
  0
LINE
  8
0
 62
     0
 10
79.412
 20
15.1612
 30
0.0
 11
79.412
 21
16.0817
 31
0.0
  0
LINE
  8
0
 62
     0
 10
79.412
 20
16.0817
 30
0.0
 11
82.7126
 21
16.0817
 31
0.0
  0
LINE
  8
0
 62
     0
 10
82.7126
 20
16.0817
 30
0.0
 11
82.7126
 21
15.1612
 31
0.0
  0
LINE
  8
0
 62
     0
 10
82.7126
 20
15.1612
 30
0.0
 11
84.3883
 21
15.1612
 31
0.0
  0
LINE
  8
0
 62
     0
 10
84.3883
 20
15.1612
 30
0.0
 11
84.3883
 21
11.9311
 31
0.0
  0
LINE
  8
0
 62
     0
 10
84.3883
 20
11.9311
 30
0.0
 11
124.063
 21
11.9311
 31
0.0
  0
LINE
  8
0
 62
     0
 10
124.063
 20
11.9311
 30
0.0
 11
124.063
 21
12.5305
 31
0.0
  0
LINE
  8
0
 62
     0
 10
124.063
 20
12.5305
 30
0.0
 11
123.263
 21
12.5305
 31
0.0
  0
LINE
  8
0
 62
     0
 10
123.263
 20
12.5305
 30
0.0
 11
123.263
 21
15.6311
 31
0.0
  0
LINE
  8
0
 62
     0
 10
123.263
 20
15.6311
 30
0.0
 11
124.063
 21
15.6311
 31
0.0
  0
LINE
  8
0
 62
     0
 10
124.063
 20
15.6311
 30
0.0
 11
124.063
 21
16.6315
 31
0.0
  0
LINE
  8
0
 62
     0
 10
124.063
 20
16.6315
 30
0.0
 11
138.063
 21
16.6315
 31
0.0
  0
LINE
  8
0
 62
     0
 10
138.063
 20
16.6315
 30
0.0
 11
138.063
 21
15.6311
 31
0.0
  0
LINE
  8
0
 62
     0
 10
138.063
 20
15.6311
 30
0.0
 11
138.862
 21
15.6311
 31
0.0
  0
LINE
  8
0
 62
     0
 10
138.862
 20
15.6311
 30
0.0
 11
138.862
 21
12.5305
 31
0.0
  0
LINE
  8
0
 62
     0
 10
138.862
 20
12.5305
 30
0.0
 11
138.063
 21
12.5305
 31
0.0
  0
LINE
  8
0
 62
     0
 10
138.063
 20
12.5305
 30
0.0
 11
138.063
 21
11.9311
 31
0.0
  0
LINE
  8
0
 62
     0
 10
138.063
 20
11.9311
 30
0.0
 11
177.738
 21
11.9311
 31
0.0
  0
LINE
  8
0
 62
     0
 10
177.738
 20
11.9311
 30
0.0
 11
177.738
 21
15.1612
 31
0.0
  0
LINE
  8
0
 62
     0
 10
177.738
 20
15.1612
 30
0.0
 11
179.412
 21
15.1612
 31
0.0
  0
LINE
  8
0
 62
     0
 10
179.412
 20
15.1612
 30
0.0
 11
179.412
 21
16.0817
 31
0.0
  0
LINE
  8
0
 62
     0
 10
179.412
 20
16.0817
 30
0.0
 11
182.713
 21
16.0817
 31
0.0
  0
LINE
  8
0
 62
     0
 10
182.713
 20
16.0817
 30
0.0
 11
182.713
 21
15.1612
 31
0.0
  0
LINE
  8
0
 62
     0
 10
182.713
 20
15.1612
 30
0.0
 11
184.388
 21
15.1612
 31
0.0
  0
LINE
  8
0
 62
     0
 10
184.388
 20
15.1612
 30
0.0
 11
184.388
 21
11.9311
 31
0.0
  0
LINE
  8
0
 62
     0
 10
184.388
 20
11.9311
 30
0.0
 11
185.262
 21
11.9311
 31
0.0
  0
LINE
  8
0
 62
     0
 10
185.262
 20
11.9311
 30
0.0
 11
185.262
 21
9.13088
 31
0.0
  0
LINE
  8
0
 62
     0
 10
185.262
 20
9.13088
 30
0.0
 11
184.388
 21
9.13088
 31
0.0
  0
LINE
  8
0
 62
     0
 10
188.069
 20
98.8811
 30
0.0
 11
188.069
 21
97.8807
 31
0.0
  0
LINE
  8
0
 62
     0
 10
188.069
 20
97.8807
 30
0.0
 11
174.068
 21
97.8807
 31
0.0
  0
LINE
  8
0
 62
     0
 10
174.068
 20
97.8807
 30
0.0
 11
174.068
 21
98.8811
 31
0.0
  0
LINE
  8
0
 62
     0
 10
174.068
 20
98.8811
 30
0.0
 11
173.269
 21
98.8811
 31
0.0
  0
LINE
  8
0
 62
     0
 10
173.269
 20
98.8811
 30
0.0
 11
173.269
 21
101.982
 31
0.0
  0
LINE
  8
0
 62
     0
 10
173.269
 20
101.982
 30
0.0
 11
174.068
 21
101.982
 31
0.0
  0
LINE
  8
0
 62
     0
 10
174.068
 20
101.982
 30
0.0
 11
174.068
 21
107.781
 31
0.0
  0
LINE
  8
0
 62
     0
 10
174.068
 20
107.781
 30
0.0
 11
173.269
 21
107.781
 31
0.0
  0
LINE
  8
0
 62
     0
 10
173.269
 20
107.781
 30
0.0
 11
173.269
 21
110.881
 31
0.0
  0
LINE
  8
0
 62
     0
 10
173.269
 20
110.881
 30
0.0
 11
174.068
 21
110.881
 31
0.0
  0
LINE
  8
0
 62
     0
 10
174.068
 20
110.881
 30
0.0
 11
174.068
 21
111.882
 31
0.0
  0
LINE
  8
0
 62
     0
 10
174.068
 20
111.882
 30
0.0
 11
188.069
 21
111.882
 31
0.0
  0
LINE
  8
0
 62
     0
 10
188.069
 20
111.882
 30
0.0
 11
188.069
 21
110.881
 31
0.0
  0
LINE
  8
0
 62
     0
 10
188.069
 20
110.881
 30
0.0
 11
188.868
 21
110.881
 31
0.0
  0
LINE
  8
0
 62
     0
 10
188.868
 20
110.881
 30
0.0
 11
188.868
 21
107.781
 31
0.0
  0
LINE
  8
0
 62
     0
 10
188.868
 20
107.781
 30
0.0
 11
188.069
 21
107.781
 31
0.0
  0
LINE
  8
0
 62
     0
 10
188.069
 20
107.781
 30
0.0
 11
188.069
 21
101.982
 31
0.0
  0
LINE
  8
0
 62
     0
 10
188.069
 20
101.982
 30
0.0
 11
188.868
 21
101.982
 31
0.0
  0
LINE
  8
0
 62
     0
 10
188.868
 20
101.982
 30
0.0
 11
188.868
 21
98.8811
 31
0.0
  0
LINE
  8
0
 62
     0
 10
188.868
 20
98.8811
 30
0.0
 11
188.069
 21
98.8811
 31
0.0
  0
LINE
  8
0
 62
     0
 10
188.069
 20
79.8311
 30
0.0
 11
188.069
 21
78.8307
 31
0.0
  0
LINE
  8
0
 62
     0
 10
188.069
 20
78.8307
 30
0.0
 11
174.068
 21
78.8307
 31
0.0
  0
LINE
  8
0
 62
     0
 10
174.068
 20
78.8307
 30
0.0
 11
174.068
 21
79.8311
 31
0.0
  0
LINE
  8
0
 62
     0
 10
174.068
 20
79.8311
 30
0.0
 11
173.269
 21
79.8311
 31
0.0
  0
LINE
  8
0
 62
     0
 10
173.269
 20
79.8311
 30
0.0
 11
173.269
 21
82.9317
 31
0.0
  0
LINE
  8
0
 62
     0
 10
173.269
 20
82.9317
 30
0.0
 11
174.068
 21
82.9317
 31
0.0
  0
LINE
  8
0
 62
     0
 10
174.068
 20
82.9317
 30
0.0
 11
174.068
 21
88.7307
 31
0.0
  0
LINE
  8
0
 62
     0
 10
174.068
 20
88.7307
 30
0.0
 11
173.269
 21
88.7307
 31
0.0
  0
LINE
  8
0
 62
     0
 10
173.269
 20
88.7307
 30
0.0
 11
173.269
 21
91.8312
 31
0.0
  0
LINE
  8
0
 62
     0
 10
173.269
 20
91.8312
 30
0.0
 11
174.068
 21
91.8312
 31
0.0
  0
LINE
  8
0
 62
     0
 10
174.068
 20
91.8312
 30
0.0
 11
174.068
 21
92.8317
 31
0.0
  0
LINE
  8
0
 62
     0
 10
174.068
 20
92.8317
 30
0.0
 11
188.069
 21
92.8317
 31
0.0
  0
LINE
  8
0
 62
     0
 10
188.069
 20
92.8317
 30
0.0
 11
188.069
 21
91.8312
 31
0.0
  0
LINE
  8
0
 62
     0
 10
188.069
 20
91.8312
 30
0.0
 11
188.868
 21
91.8312
 31
0.0
  0
LINE
  8
0
 62
     0
 10
188.868
 20
91.8312
 30
0.0
 11
188.868
 21
88.7307
 31
0.0
  0
LINE
  8
0
 62
     0
 10
188.868
 20
88.7307
 30
0.0
 11
188.069
 21
88.7307
 31
0.0
  0
LINE
  8
0
 62
     0
 10
188.069
 20
88.7307
 30
0.0
 11
188.069
 21
82.9317
 31
0.0
  0
LINE
  8
0
 62
     0
 10
188.069
 20
82.9317
 30
0.0
 11
188.868
 21
82.9317
 31
0.0
  0
LINE
  8
0
 62
     0
 10
188.868
 20
82.9317
 30
0.0
 11
188.868
 21
79.8311
 31
0.0
  0
LINE
  8
0
 62
     0
 10
188.868
 20
79.8311
 30
0.0
 11
188.069
 21
79.8311
 31
0.0
  0
LINE
  8
0
 62
     0
 10
192.832
 20
22.6811
 30
0.0
 11
192.832
 21
21.6807
 31
0.0
  0
LINE
  8
0
 62
     0
 10
192.832
 20
21.6807
 30
0.0
 11
178.832
 21
21.6807
 31
0.0
  0
LINE
  8
0
 62
     0
 10
178.832
 20
21.6807
 30
0.0
 11
178.832
 21
22.6811
 31
0.0
  0
LINE
  8
0
 62
     0
 10
178.832
 20
22.6811
 30
0.0
 11
178.031
 21
22.6811
 31
0.0
  0
LINE
  8
0
 62
     0
 10
178.031
 20
22.6811
 30
0.0
 11
178.031
 21
25.7817
 31
0.0
  0
LINE
  8
0
 62
     0
 10
178.031
 20
25.7817
 30
0.0
 11
178.832
 21
25.7817
 31
0.0
  0
LINE
  8
0
 62
     0
 10
178.832
 20
25.7817
 30
0.0
 11
178.832
 21
31.5805
 31
0.0
  0
LINE
  8
0
 62
     0
 10
178.832
 20
31.5805
 30
0.0
 11
178.031
 21
31.5805
 31
0.0
  0
LINE
  8
0
 62
     0
 10
178.031
 20
31.5805
 30
0.0
 11
178.031
 21
34.6811
 31
0.0
  0
LINE
  8
0
 62
     0
 10
178.031
 20
34.6811
 30
0.0
 11
178.832
 21
34.6811
 31
0.0
  0
LINE
  8
0
 62
     0
 10
178.832
 20
34.6811
 30
0.0
 11
178.832
 21
35.6817
 31
0.0
  0
LINE
  8
0
 62
     0
 10
178.832
 20
35.6817
 30
0.0
 11
192.832
 21
35.6817
 31
0.0
  0
LINE
  8
0
 62
     0
 10
192.832
 20
35.6817
 30
0.0
 11
192.832
 21
34.6811
 31
0.0
  0
LINE
  8
0
 62
     0
 10
192.832
 20
34.6811
 30
0.0
 11
193.632
 21
34.6811
 31
0.0
  0
LINE
  8
0
 62
     0
 10
193.632
 20
34.6811
 30
0.0
 11
193.632
 21
31.5805
 31
0.0
  0
LINE
  8
0
 62
     0
 10
193.632
 20
31.5805
 30
0.0
 11
192.832
 21
31.5805
 31
0.0
  0
LINE
  8
0
 62
     0
 10
192.832
 20
31.5805
 30
0.0
 11
192.832
 21
25.7817
 31
0.0
  0
LINE
  8
0
 62
     0
 10
192.832
 20
25.7817
 30
0.0
 11
193.632
 21
25.7817
 31
0.0
  0
LINE
  8
0
 62
     0
 10
193.632
 20
25.7817
 30
0.0
 11
193.632
 21
22.6811
 31
0.0
  0
LINE
  8
0
 62
     0
 10
193.632
 20
22.6811
 30
0.0
 11
192.832
 21
22.6811
 31
0.0
  0
LINE
  8
0
 62
     0
 10
197.594
 20
60.7811
 30
0.0
 11
197.594
 21
59.7807
 31
0.0
  0
LINE
  8
0
 62
     0
 10
197.594
 20
59.7807
 30
0.0
 11
183.593
 21
59.7807
 31
0.0
  0
LINE
  8
0
 62
     0
 10
183.593
 20
59.7807
 30
0.0
 11
183.593
 21
60.7811
 31
0.0
  0
LINE
  8
0
 62
     0
 10
183.593
 20
60.7811
 30
0.0
 11
182.794
 21
60.7811
 31
0.0
  0
LINE
  8
0
 62
     0
 10
182.794
 20
60.7811
 30
0.0
 11
182.794
 21
63.8817
 31
0.0
  0
LINE
  8
0
 62
     0
 10
182.794
 20
63.8817
 30
0.0
 11
183.593
 21
63.8817
 31
0.0
  0
LINE
  8
0
 62
     0
 10
183.593
 20
63.8817
 30
0.0
 11
183.593
 21
69.6807
 31
0.0
  0
LINE
  8
0
 62
     0
 10
183.593
 20
69.6807
 30
0.0
 11
182.794
 21
69.6807
 31
0.0
  0
LINE
  8
0
 62
     0
 10
182.794
 20
69.6807
 30
0.0
 11
182.794
 21
72.7812
 31
0.0
  0
LINE
  8
0
 62
     0
 10
182.794
 20
72.7812
 30
0.0
 11
183.593
 21
72.7812
 31
0.0
  0
LINE
  8
0
 62
     0
 10
183.593
 20
72.7812
 30
0.0
 11
183.593
 21
73.7817
 31
0.0
  0
LINE
  8
0
 62
     0
 10
183.593
 20
73.7817
 30
0.0
 11
197.594
 21
73.7817
 31
0.0
  0
LINE
  8
0
 62
     0
 10
197.594
 20
73.7817
 30
0.0
 11
197.594
 21
72.7812
 31
0.0
  0
LINE
  8
0
 62
     0
 10
197.594
 20
72.7812
 30
0.0
 11
198.393
 21
72.7812
 31
0.0
  0
LINE
  8
0
 62
     0
 10
198.393
 20
72.7812
 30
0.0
 11
198.393
 21
69.6807
 31
0.0
  0
LINE
  8
0
 62
     0
 10
198.393
 20
69.6807
 30
0.0
 11
197.594
 21
69.6807
 31
0.0
  0
LINE
  8
0
 62
     0
 10
197.594
 20
69.6807
 30
0.0
 11
197.594
 21
63.8817
 31
0.0
  0
LINE
  8
0
 62
     0
 10
197.594
 20
63.8817
 30
0.0
 11
198.393
 21
63.8817
 31
0.0
  0
LINE
  8
0
 62
     0
 10
198.393
 20
63.8817
 30
0.0
 11
198.393
 21
60.7811
 31
0.0
  0
LINE
  8
0
 62
     0
 10
198.393
 20
60.7811
 30
0.0
 11
197.594
 21
60.7811
 31
0.0
  0
LINE
  8
0
 62
     0
 10
202.357
 20
41.7311
 30
0.0
 11
202.357
 21
40.7307
 31
0.0
  0
LINE
  8
0
 62
     0
 10
202.357
 20
40.7307
 30
0.0
 11
188.357
 21
40.7307
 31
0.0
  0
LINE
  8
0
 62
     0
 10
188.357
 20
40.7307
 30
0.0
 11
188.357
 21
41.7311
 31
0.0
  0
LINE
  8
0
 62
     0
 10
188.357
 20
41.7311
 30
0.0
 11
187.556
 21
41.7311
 31
0.0
  0
LINE
  8
0
 62
     0
 10
187.556
 20
41.7311
 30
0.0
 11
187.556
 21
44.8317
 31
0.0
  0
LINE
  8
0
 62
     0
 10
187.556
 20
44.8317
 30
0.0
 11
188.357
 21
44.8317
 31
0.0
  0
LINE
  8
0
 62
     0
 10
188.357
 20
44.8317
 30
0.0
 11
188.357
 21
50.6307
 31
0.0
  0
LINE
  8
0
 62
     0
 10
188.357
 20
50.6307
 30
0.0
 11
187.556
 21
50.6307
 31
0.0
  0
LINE
  8
0
 62
     0
 10
187.556
 20
50.6307
 30
0.0
 11
187.556
 21
53.7312
 31
0.0
  0
LINE
  8
0
 62
     0
 10
187.556
 20
53.7312
 30
0.0
 11
188.357
 21
53.7312
 31
0.0
  0
LINE
  8
0
 62
     0
 10
188.357
 20
53.7312
 30
0.0
 11
188.357
 21
54.7317
 31
0.0
  0
LINE
  8
0
 62
     0
 10
188.357
 20
54.7317
 30
0.0
 11
202.357
 21
54.7317
 31
0.0
  0
LINE
  8
0
 62
     0
 10
202.357
 20
54.7317
 30
0.0
 11
202.357
 21
53.7312
 31
0.0
  0
LINE
  8
0
 62
     0
 10
202.357
 20
53.7312
 30
0.0
 11
203.157
 21
53.7312
 31
0.0
  0
LINE
  8
0
 62
     0
 10
203.157
 20
53.7312
 30
0.0
 11
203.157
 21
50.6307
 31
0.0
  0
LINE
  8
0
 62
     0
 10
203.157
 20
50.6307
 30
0.0
 11
202.357
 21
50.6307
 31
0.0
  0
LINE
  8
0
 62
     0
 10
202.357
 20
50.6307
 30
0.0
 11
202.357
 21
44.8317
 31
0.0
  0
LINE
  8
0
 62
     0
 10
202.357
 20
44.8317
 30
0.0
 11
203.157
 21
44.8317
 31
0.0
  0
LINE
  8
0
 62
     0
 10
203.157
 20
44.8317
 30
0.0
 11
203.157
 21
41.7311
 31
0.0
  0
LINE
  8
0
 62
     0
 10
203.157
 20
41.7311
 30
0.0
 11
202.357
 21
41.7311
 31
0.0
  0
LINE
  8
0
 62
     0
 10
207.119
 20
98.8811
 30
0.0
 11
207.119
 21
97.8807
 31
0.0
  0
LINE
  8
0
 62
     0
 10
207.119
 20
97.8807
 30
0.0
 11
193.118
 21
97.8807
 31
0.0
  0
LINE
  8
0
 62
     0
 10
193.118
 20
97.8807
 30
0.0
 11
193.118
 21
98.8811
 31
0.0
  0
LINE
  8
0
 62
     0
 10
193.118
 20
98.8811
 30
0.0
 11
192.319
 21
98.8811
 31
0.0
  0
LINE
  8
0
 62
     0
 10
192.319
 20
98.8811
 30
0.0
 11
192.319
 21
101.982
 31
0.0
  0
LINE
  8
0
 62
     0
 10
192.319
 20
101.982
 30
0.0
 11
193.118
 21
101.982
 31
0.0
  0
LINE
  8
0
 62
     0
 10
193.118
 20
101.982
 30
0.0
 11
193.118
 21
107.781
 31
0.0
  0
LINE
  8
0
 62
     0
 10
193.118
 20
107.781
 30
0.0
 11
192.319
 21
107.781
 31
0.0
  0
LINE
  8
0
 62
     0
 10
192.319
 20
107.781
 30
0.0
 11
192.319
 21
110.881
 31
0.0
  0
LINE
  8
0
 62
     0
 10
192.319
 20
110.881
 30
0.0
 11
193.118
 21
110.881
 31
0.0
  0
LINE
  8
0
 62
     0
 10
193.118
 20
110.881
 30
0.0
 11
193.118
 21
111.882
 31
0.0
  0
LINE
  8
0
 62
     0
 10
193.118
 20
111.882
 30
0.0
 11
207.119
 21
111.882
 31
0.0
  0
LINE
  8
0
 62
     0
 10
207.119
 20
111.882
 30
0.0
 11
207.119
 21
110.881
 31
0.0
  0
LINE
  8
0
 62
     0
 10
207.119
 20
110.881
 30
0.0
 11
207.918
 21
110.881
 31
0.0
  0
LINE
  8
0
 62
     0
 10
207.918
 20
110.881
 30
0.0
 11
207.918
 21
107.781
 31
0.0
  0
LINE
  8
0
 62
     0
 10
207.918
 20
107.781
 30
0.0
 11
207.119
 21
107.781
 31
0.0
  0
LINE
  8
0
 62
     0
 10
207.119
 20
107.781
 30
0.0
 11
207.119
 21
101.982
 31
0.0
  0
LINE
  8
0
 62
     0
 10
207.119
 20
101.982
 30
0.0
 11
207.918
 21
101.982
 31
0.0
  0
LINE
  8
0
 62
     0
 10
207.918
 20
101.982
 30
0.0
 11
207.918
 21
98.8811
 31
0.0
  0
LINE
  8
0
 62
     0
 10
207.918
 20
98.8811
 30
0.0
 11
207.119
 21
98.8811
 31
0.0
  0
LINE
  8
0
 62
     0
 10
207.119
 20
79.8311
 30
0.0
 11
207.119
 21
78.8307
 31
0.0
  0
LINE
  8
0
 62
     0
 10
207.119
 20
78.8307
 30
0.0
 11
193.118
 21
78.8307
 31
0.0
  0
LINE
  8
0
 62
     0
 10
193.118
 20
78.8307
 30
0.0
 11
193.118
 21
79.8311
 31
0.0
  0
LINE
  8
0
 62
     0
 10
193.118
 20
79.8311
 30
0.0
 11
192.319
 21
79.8311
 31
0.0
  0
LINE
  8
0
 62
     0
 10
192.319
 20
79.8311
 30
0.0
 11
192.319
 21
82.9317
 31
0.0
  0
LINE
  8
0
 62
     0
 10
192.319
 20
82.9317
 30
0.0
 11
193.118
 21
82.9317
 31
0.0
  0
LINE
  8
0
 62
     0
 10
193.118
 20
82.9317
 30
0.0
 11
193.118
 21
88.7307
 31
0.0
  0
LINE
  8
0
 62
     0
 10
193.118
 20
88.7307
 30
0.0
 11
192.319
 21
88.7307
 31
0.0
  0
LINE
  8
0
 62
     0
 10
192.319
 20
88.7307
 30
0.0
 11
192.319
 21
91.8312
 31
0.0
  0
LINE
  8
0
 62
     0
 10
192.319
 20
91.8312
 30
0.0
 11
193.118
 21
91.8312
 31
0.0
  0
LINE
  8
0
 62
     0
 10
193.118
 20
91.8312
 30
0.0
 11
193.118
 21
92.8317
 31
0.0
  0
LINE
  8
0
 62
     0
 10
193.118
 20
92.8317
 30
0.0
 11
207.119
 21
92.8317
 31
0.0
  0
LINE
  8
0
 62
     0
 10
207.119
 20
92.8317
 30
0.0
 11
207.119
 21
91.8312
 31
0.0
  0
LINE
  8
0
 62
     0
 10
207.119
 20
91.8312
 30
0.0
 11
207.918
 21
91.8312
 31
0.0
  0
LINE
  8
0
 62
     0
 10
207.918
 20
91.8312
 30
0.0
 11
207.918
 21
88.7307
 31
0.0
  0
LINE
  8
0
 62
     0
 10
207.918
 20
88.7307
 30
0.0
 11
207.119
 21
88.7307
 31
0.0
  0
LINE
  8
0
 62
     0
 10
207.119
 20
88.7307
 30
0.0
 11
207.119
 21
82.9317
 31
0.0
  0
LINE
  8
0
 62
     0
 10
207.119
 20
82.9317
 30
0.0
 11
207.918
 21
82.9317
 31
0.0
  0
LINE
  8
0
 62
     0
 10
207.918
 20
82.9317
 30
0.0
 11
207.918
 21
79.8311
 31
0.0
  0
LINE
  8
0
 62
     0
 10
207.918
 20
79.8311
 30
0.0
 11
207.119
 21
79.8311
 31
0.0
  0
LINE
  8
0
 62
     0
 10
209.5
 20
3.63114
 30
0.0
 11
209.5
 21
2.63067
 31
0.0
  0
LINE
  8
0
 62
     0
 10
209.5
 20
2.63067
 30
0.0
 11
195.5
 21
2.63067
 31
0.0
  0
LINE
  8
0
 62
     0
 10
195.5
 20
2.63067
 30
0.0
 11
195.5
 21
3.63114
 31
0.0
  0
LINE
  8
0
 62
     0
 10
195.5
 20
3.63114
 30
0.0
 11
194.7
 21
3.63114
 31
0.0
  0
LINE
  8
0
 62
     0
 10
194.7
 20
3.63114
 30
0.0
 11
194.7
 21
6.73171
 31
0.0
  0
LINE
  8
0
 62
     0
 10
194.7
 20
6.73171
 30
0.0
 11
195.5
 21
6.73171
 31
0.0
  0
LINE
  8
0
 62
     0
 10
195.5
 20
6.73171
 30
0.0
 11
195.5
 21
12.5305
 31
0.0
  0
LINE
  8
0
 62
     0
 10
195.5
 20
12.5305
 30
0.0
 11
194.7
 21
12.5305
 31
0.0
  0
LINE
  8
0
 62
     0
 10
194.7
 20
12.5305
 30
0.0
 11
194.7
 21
15.6311
 31
0.0
  0
LINE
  8
0
 62
     0
 10
194.7
 20
15.6311
 30
0.0
 11
195.5
 21
15.6311
 31
0.0
  0
LINE
  8
0
 62
     0
 10
195.5
 20
15.6311
 30
0.0
 11
195.5
 21
16.6315
 31
0.0
  0
LINE
  8
0
 62
     0
 10
195.5
 20
16.6315
 30
0.0
 11
209.5
 21
16.6315
 31
0.0
  0
LINE
  8
0
 62
     0
 10
209.5
 20
16.6315
 30
0.0
 11
209.5
 21
15.6311
 31
0.0
  0
LINE
  8
0
 62
     0
 10
209.5
 20
15.6311
 30
0.0
 11
210.3
 21
15.6311
 31
0.0
  0
LINE
  8
0
 62
     0
 10
210.3
 20
15.6311
 30
0.0
 11
210.3
 21
12.5305
 31
0.0
  0
LINE
  8
0
 62
     0
 10
210.3
 20
12.5305
 30
0.0
 11
209.5
 21
12.5305
 31
0.0
  0
LINE
  8
0
 62
     0
 10
209.5
 20
12.5305
 30
0.0
 11
209.5
 21
6.73171
 31
0.0
  0
LINE
  8
0
 62
     0
 10
209.5
 20
6.73171
 30
0.0
 11
210.3
 21
6.73171
 31
0.0
  0
LINE
  8
0
 62
     0
 10
210.3
 20
6.73171
 30
0.0
 11
210.3
 21
3.63114
 31
0.0
  0
LINE
  8
0
 62
     0
 10
210.3
 20
3.63114
 30
0.0
 11
209.5
 21
3.63114
 31
0.0
  0
LINE
  8
0
 62
     0
 10
211.882
 20
22.6811
 30
0.0
 11
211.882
 21
21.6807
 31
0.0
  0
LINE
  8
0
 62
     0
 10
211.882
 20
21.6807
 30
0.0
 11
197.882
 21
21.6807
 31
0.0
  0
LINE
  8
0
 62
     0
 10
197.882
 20
21.6807
 30
0.0
 11
197.882
 21
22.6811
 31
0.0
  0
LINE
  8
0
 62
     0
 10
197.882
 20
22.6811
 30
0.0
 11
197.081
 21
22.6811
 31
0.0
  0
LINE
  8
0
 62
     0
 10
197.081
 20
22.6811
 30
0.0
 11
197.081
 21
25.7817
 31
0.0
  0
LINE
  8
0
 62
     0
 10
197.081
 20
25.7817
 30
0.0
 11
197.882
 21
25.7817
 31
0.0
  0
LINE
  8
0
 62
     0
 10
197.882
 20
25.7817
 30
0.0
 11
197.882
 21
31.5805
 31
0.0
  0
LINE
  8
0
 62
     0
 10
197.882
 20
31.5805
 30
0.0
 11
197.081
 21
31.5805
 31
0.0
  0
LINE
  8
0
 62
     0
 10
197.081
 20
31.5805
 30
0.0
 11
197.081
 21
34.6811
 31
0.0
  0
LINE
  8
0
 62
     0
 10
197.081
 20
34.6811
 30
0.0
 11
197.882
 21
34.6811
 31
0.0
  0
LINE
  8
0
 62
     0
 10
197.882
 20
34.6811
 30
0.0
 11
197.882
 21
35.6817
 31
0.0
  0
LINE
  8
0
 62
     0
 10
197.882
 20
35.6817
 30
0.0
 11
211.882
 21
35.6817
 31
0.0
  0
LINE
  8
0
 62
     0
 10
211.882
 20
35.6817
 30
0.0
 11
211.882
 21
34.6811
 31
0.0
  0
LINE
  8
0
 62
     0
 10
211.882
 20
34.6811
 30
0.0
 11
212.682
 21
34.6811
 31
0.0
  0
LINE
  8
0
 62
     0
 10
212.682
 20
34.6811
 30
0.0
 11
212.682
 21
31.5805
 31
0.0
  0
LINE
  8
0
 62
     0
 10
212.682
 20
31.5805
 30
0.0
 11
211.882
 21
31.5805
 31
0.0
  0
LINE
  8
0
 62
     0
 10
211.882
 20
31.5805
 30
0.0
 11
211.882
 21
25.7817
 31
0.0
  0
LINE
  8
0
 62
     0
 10
211.882
 20
25.7817
 30
0.0
 11
212.682
 21
25.7817
 31
0.0
  0
LINE
  8
0
 62
     0
 10
212.682
 20
25.7817
 30
0.0
 11
212.682
 21
22.6811
 31
0.0
  0
LINE
  8
0
 62
     0
 10
212.682
 20
22.6811
 30
0.0
 11
211.882
 21
22.6811
 31
0.0
  0
LINE
  8
0
 62
     0
 10
216.644
 20
60.7811
 30
0.0
 11
216.644
 21
59.7807
 31
0.0
  0
LINE
  8
0
 62
     0
 10
216.644
 20
59.7807
 30
0.0
 11
202.643
 21
59.7807
 31
0.0
  0
LINE
  8
0
 62
     0
 10
202.643
 20
59.7807
 30
0.0
 11
202.643
 21
60.7811
 31
0.0
  0
LINE
  8
0
 62
     0
 10
202.643
 20
60.7811
 30
0.0
 11
201.844
 21
60.7811
 31
0.0
  0
LINE
  8
0
 62
     0
 10
201.844
 20
60.7811
 30
0.0
 11
201.844
 21
63.8817
 31
0.0
  0
LINE
  8
0
 62
     0
 10
201.844
 20
63.8817
 30
0.0
 11
202.643
 21
63.8817
 31
0.0
  0
LINE
  8
0
 62
     0
 10
202.643
 20
63.8817
 30
0.0
 11
202.643
 21
69.6807
 31
0.0
  0
LINE
  8
0
 62
     0
 10
202.643
 20
69.6807
 30
0.0
 11
201.844
 21
69.6807
 31
0.0
  0
LINE
  8
0
 62
     0
 10
201.844
 20
69.6807
 30
0.0
 11
201.844
 21
72.7812
 31
0.0
  0
LINE
  8
0
 62
     0
 10
201.844
 20
72.7812
 30
0.0
 11
202.643
 21
72.7812
 31
0.0
  0
LINE
  8
0
 62
     0
 10
202.643
 20
72.7812
 30
0.0
 11
202.643
 21
73.7817
 31
0.0
  0
LINE
  8
0
 62
     0
 10
202.643
 20
73.7817
 30
0.0
 11
216.644
 21
73.7817
 31
0.0
  0
LINE
  8
0
 62
     0
 10
216.644
 20
73.7817
 30
0.0
 11
216.644
 21
72.7812
 31
0.0
  0
LINE
  8
0
 62
     0
 10
216.644
 20
72.7812
 30
0.0
 11
217.443
 21
72.7812
 31
0.0
  0
LINE
  8
0
 62
     0
 10
217.443
 20
72.7812
 30
0.0
 11
217.443
 21
69.6807
 31
0.0
  0
LINE
  8
0
 62
     0
 10
217.443
 20
69.6807
 30
0.0
 11
216.644
 21
69.6807
 31
0.0
  0
LINE
  8
0
 62
     0
 10
216.644
 20
69.6807
 30
0.0
 11
216.644
 21
63.8817
 31
0.0
  0
LINE
  8
0
 62
     0
 10
216.644
 20
63.8817
 30
0.0
 11
217.443
 21
63.8817
 31
0.0
  0
LINE
  8
0
 62
     0
 10
217.443
 20
63.8817
 30
0.0
 11
217.443
 21
60.7811
 31
0.0
  0
LINE
  8
0
 62
     0
 10
217.443
 20
60.7811
 30
0.0
 11
216.644
 21
60.7811
 31
0.0
  0
LINE
  8
0
 62
     0
 10
221.407
 20
41.7311
 30
0.0
 11
221.407
 21
40.7307
 31
0.0
  0
LINE
  8
0
 62
     0
 10
221.407
 20
40.7307
 30
0.0
 11
207.407
 21
40.7307
 31
0.0
  0
LINE
  8
0
 62
     0
 10
207.407
 20
40.7307
 30
0.0
 11
207.407
 21
41.7311
 31
0.0
  0
LINE
  8
0
 62
     0
 10
207.407
 20
41.7311
 30
0.0
 11
206.606
 21
41.7311
 31
0.0
  0
LINE
  8
0
 62
     0
 10
206.606
 20
41.7311
 30
0.0
 11
206.606
 21
44.8317
 31
0.0
  0
LINE
  8
0
 62
     0
 10
206.606
 20
44.8317
 30
0.0
 11
207.407
 21
44.8317
 31
0.0
  0
LINE
  8
0
 62
     0
 10
207.407
 20
44.8317
 30
0.0
 11
207.407
 21
50.6307
 31
0.0
  0
LINE
  8
0
 62
     0
 10
207.407
 20
50.6307
 30
0.0
 11
206.606
 21
50.6307
 31
0.0
  0
LINE
  8
0
 62
     0
 10
206.606
 20
50.6307
 30
0.0
 11
206.606
 21
53.7312
 31
0.0
  0
LINE
  8
0
 62
     0
 10
206.606
 20
53.7312
 30
0.0
 11
207.407
 21
53.7312
 31
0.0
  0
LINE
  8
0
 62
     0
 10
207.407
 20
53.7312
 30
0.0
 11
207.407
 21
54.7317
 31
0.0
  0
LINE
  8
0
 62
     0
 10
207.407
 20
54.7317
 30
0.0
 11
221.407
 21
54.7317
 31
0.0
  0
LINE
  8
0
 62
     0
 10
221.407
 20
54.7317
 30
0.0
 11
221.407
 21
53.7312
 31
0.0
  0
LINE
  8
0
 62
     0
 10
221.407
 20
53.7312
 30
0.0
 11
222.207
 21
53.7312
 31
0.0
  0
LINE
  8
0
 62
     0
 10
222.207
 20
53.7312
 30
0.0
 11
222.207
 21
50.6307
 31
0.0
  0
LINE
  8
0
 62
     0
 10
222.207
 20
50.6307
 30
0.0
 11
221.407
 21
50.6307
 31
0.0
  0
LINE
  8
0
 62
     0
 10
221.407
 20
50.6307
 30
0.0
 11
221.407
 21
44.8317
 31
0.0
  0
LINE
  8
0
 62
     0
 10
221.407
 20
44.8317
 30
0.0
 11
222.207
 21
44.8317
 31
0.0
  0
LINE
  8
0
 62
     0
 10
222.207
 20
44.8317
 30
0.0
 11
222.207
 21
41.7311
 31
0.0
  0
LINE
  8
0
 62
     0
 10
222.207
 20
41.7311
 30
0.0
 11
221.407
 21
41.7311
 31
0.0
  0
LINE
  8
0
 62
     0
 10
226.169
 20
98.8811
 30
0.0
 11
226.169
 21
97.8807
 31
0.0
  0
LINE
  8
0
 62
     0
 10
226.169
 20
97.8807
 30
0.0
 11
212.168
 21
97.8807
 31
0.0
  0
LINE
  8
0
 62
     0
 10
212.168
 20
97.8807
 30
0.0
 11
212.168
 21
98.8811
 31
0.0
  0
LINE
  8
0
 62
     0
 10
212.168
 20
98.8811
 30
0.0
 11
211.369
 21
98.8811
 31
0.0
  0
LINE
  8
0
 62
     0
 10
211.369
 20
98.8811
 30
0.0
 11
211.369
 21
101.982
 31
0.0
  0
LINE
  8
0
 62
     0
 10
211.369
 20
101.982
 30
0.0
 11
212.168
 21
101.982
 31
0.0
  0
LINE
  8
0
 62
     0
 10
212.168
 20
101.982
 30
0.0
 11
212.168
 21
107.781
 31
0.0
  0
LINE
  8
0
 62
     0
 10
212.168
 20
107.781
 30
0.0
 11
211.369
 21
107.781
 31
0.0
  0
LINE
  8
0
 62
     0
 10
211.369
 20
107.781
 30
0.0
 11
211.369
 21
110.881
 31
0.0
  0
LINE
  8
0
 62
     0
 10
211.369
 20
110.881
 30
0.0
 11
212.168
 21
110.881
 31
0.0
  0
LINE
  8
0
 62
     0
 10
212.168
 20
110.881
 30
0.0
 11
212.168
 21
111.882
 31
0.0
  0
LINE
  8
0
 62
     0
 10
212.168
 20
111.882
 30
0.0
 11
226.169
 21
111.882
 31
0.0
  0
LINE
  8
0
 62
     0
 10
226.169
 20
111.882
 30
0.0
 11
226.169
 21
110.881
 31
0.0
  0
LINE
  8
0
 62
     0
 10
226.169
 20
110.881
 30
0.0
 11
226.968
 21
110.881
 31
0.0
  0
LINE
  8
0
 62
     0
 10
226.968
 20
110.881
 30
0.0
 11
226.968
 21
107.781
 31
0.0
  0
LINE
  8
0
 62
     0
 10
226.968
 20
107.781
 30
0.0
 11
226.169
 21
107.781
 31
0.0
  0
LINE
  8
0
 62
     0
 10
226.169
 20
107.781
 30
0.0
 11
226.169
 21
101.982
 31
0.0
  0
LINE
  8
0
 62
     0
 10
226.169
 20
101.982
 30
0.0
 11
226.968
 21
101.982
 31
0.0
  0
LINE
  8
0
 62
     0
 10
226.968
 20
101.982
 30
0.0
 11
226.968
 21
98.8811
 31
0.0
  0
LINE
  8
0
 62
     0
 10
226.968
 20
98.8811
 30
0.0
 11
226.169
 21
98.8811
 31
0.0
  0
LINE
  8
0
 62
     0
 10
226.169
 20
79.8311
 30
0.0
 11
226.169
 21
78.8307
 31
0.0
  0
LINE
  8
0
 62
     0
 10
226.169
 20
78.8307
 30
0.0
 11
212.168
 21
78.8307
 31
0.0
  0
LINE
  8
0
 62
     0
 10
212.168
 20
78.8307
 30
0.0
 11
212.168
 21
79.8311
 31
0.0
  0
LINE
  8
0
 62
     0
 10
212.168
 20
79.8311
 30
0.0
 11
211.369
 21
79.8311
 31
0.0
  0
LINE
  8
0
 62
     0
 10
211.369
 20
79.8311
 30
0.0
 11
211.369
 21
82.9317
 31
0.0
  0
LINE
  8
0
 62
     0
 10
211.369
 20
82.9317
 30
0.0
 11
212.168
 21
82.9317
 31
0.0
  0
LINE
  8
0
 62
     0
 10
212.168
 20
82.9317
 30
0.0
 11
212.168
 21
88.7307
 31
0.0
  0
LINE
  8
0
 62
     0
 10
212.168
 20
88.7307
 30
0.0
 11
211.369
 21
88.7307
 31
0.0
  0
LINE
  8
0
 62
     0
 10
211.369
 20
88.7307
 30
0.0
 11
211.369
 21
91.8312
 31
0.0
  0
LINE
  8
0
 62
     0
 10
211.369
 20
91.8312
 30
0.0
 11
212.168
 21
91.8312
 31
0.0
  0
LINE
  8
0
 62
     0
 10
212.168
 20
91.8312
 30
0.0
 11
212.168
 21
92.8317
 31
0.0
  0
LINE
  8
0
 62
     0
 10
212.168
 20
92.8317
 30
0.0
 11
226.169
 21
92.8317
 31
0.0
  0
LINE
  8
0
 62
     0
 10
226.169
 20
92.8317
 30
0.0
 11
226.169
 21
91.8312
 31
0.0
  0
LINE
  8
0
 62
     0
 10
226.169
 20
91.8312
 30
0.0
 11
226.968
 21
91.8312
 31
0.0
  0
LINE
  8
0
 62
     0
 10
226.968
 20
91.8312
 30
0.0
 11
226.968
 21
88.7307
 31
0.0
  0
LINE
  8
0
 62
     0
 10
226.968
 20
88.7307
 30
0.0
 11
226.169
 21
88.7307
 31
0.0
  0
LINE
  8
0
 62
     0
 10
226.169
 20
88.7307
 30
0.0
 11
226.169
 21
82.9317
 31
0.0
  0
LINE
  8
0
 62
     0
 10
226.169
 20
82.9317
 30
0.0
 11
226.968
 21
82.9317
 31
0.0
  0
LINE
  8
0
 62
     0
 10
226.968
 20
82.9317
 30
0.0
 11
226.968
 21
79.8311
 31
0.0
  0
LINE
  8
0
 62
     0
 10
226.968
 20
79.8311
 30
0.0
 11
226.169
 21
79.8311
 31
0.0
  0
LINE
  8
0
 62
     0
 10
230.932
 20
22.6811
 30
0.0
 11
230.932
 21
21.6807
 31
0.0
  0
LINE
  8
0
 62
     0
 10
230.932
 20
21.6807
 30
0.0
 11
216.932
 21
21.6807
 31
0.0
  0
LINE
  8
0
 62
     0
 10
216.932
 20
21.6807
 30
0.0
 11
216.932
 21
22.6811
 31
0.0
  0
LINE
  8
0
 62
     0
 10
216.932
 20
22.6811
 30
0.0
 11
216.131
 21
22.6811
 31
0.0
  0
LINE
  8
0
 62
     0
 10
216.131
 20
22.6811
 30
0.0
 11
216.131
 21
25.7817
 31
0.0
  0
LINE
  8
0
 62
     0
 10
216.131
 20
25.7817
 30
0.0
 11
216.932
 21
25.7817
 31
0.0
  0
LINE
  8
0
 62
     0
 10
216.932
 20
25.7817
 30
0.0
 11
216.932
 21
31.5805
 31
0.0
  0
LINE
  8
0
 62
     0
 10
216.932
 20
31.5805
 30
0.0
 11
216.131
 21
31.5805
 31
0.0
  0
LINE
  8
0
 62
     0
 10
216.131
 20
31.5805
 30
0.0
 11
216.131
 21
34.6811
 31
0.0
  0
LINE
  8
0
 62
     0
 10
216.131
 20
34.6811
 30
0.0
 11
216.932
 21
34.6811
 31
0.0
  0
LINE
  8
0
 62
     0
 10
216.932
 20
34.6811
 30
0.0
 11
216.932
 21
35.6817
 31
0.0
  0
LINE
  8
0
 62
     0
 10
216.932
 20
35.6817
 30
0.0
 11
230.932
 21
35.6817
 31
0.0
  0
LINE
  8
0
 62
     0
 10
230.932
 20
35.6817
 30
0.0
 11
230.932
 21
34.6811
 31
0.0
  0
LINE
  8
0
 62
     0
 10
230.932
 20
34.6811
 30
0.0
 11
231.732
 21
34.6811
 31
0.0
  0
LINE
  8
0
 62
     0
 10
231.732
 20
34.6811
 30
0.0
 11
231.732
 21
31.5805
 31
0.0
  0
LINE
  8
0
 62
     0
 10
231.732
 20
31.5805
 30
0.0
 11
230.932
 21
31.5805
 31
0.0
  0
LINE
  8
0
 62
     0
 10
230.932
 20
31.5805
 30
0.0
 11
230.932
 21
25.7817
 31
0.0
  0
LINE
  8
0
 62
     0
 10
230.932
 20
25.7817
 30
0.0
 11
231.732
 21
25.7817
 31
0.0
  0
LINE
  8
0
 62
     0
 10
231.732
 20
25.7817
 30
0.0
 11
231.732
 21
22.6811
 31
0.0
  0
LINE
  8
0
 62
     0
 10
231.732
 20
22.6811
 30
0.0
 11
230.932
 21
22.6811
 31
0.0
  0
LINE
  8
0
 62
     0
 10
233.313
 20
3.63114
 30
0.0
 11
233.313
 21
2.63067
 31
0.0
  0
LINE
  8
0
 62
     0
 10
233.313
 20
2.63067
 30
0.0
 11
219.313
 21
2.63067
 31
0.0
  0
LINE
  8
0
 62
     0
 10
219.313
 20
2.63067
 30
0.0
 11
219.313
 21
3.63114
 31
0.0
  0
LINE
  8
0
 62
     0
 10
219.313
 20
3.63114
 30
0.0
 11
218.513
 21
3.63114
 31
0.0
  0
LINE
  8
0
 62
     0
 10
218.513
 20
3.63114
 30
0.0
 11
218.513
 21
6.73171
 31
0.0
  0
LINE
  8
0
 62
     0
 10
218.513
 20
6.73171
 30
0.0
 11
219.313
 21
6.73171
 31
0.0
  0
LINE
  8
0
 62
     0
 10
219.313
 20
6.73171
 30
0.0
 11
219.313
 21
12.5305
 31
0.0
  0
LINE
  8
0
 62
     0
 10
219.313
 20
12.5305
 30
0.0
 11
218.513
 21
12.5305
 31
0.0
  0
LINE
  8
0
 62
     0
 10
218.513
 20
12.5305
 30
0.0
 11
218.513
 21
15.6311
 31
0.0
  0
LINE
  8
0
 62
     0
 10
218.513
 20
15.6311
 30
0.0
 11
219.313
 21
15.6311
 31
0.0
  0
LINE
  8
0
 62
     0
 10
219.313
 20
15.6311
 30
0.0
 11
219.313
 21
16.6315
 31
0.0
  0
LINE
  8
0
 62
     0
 10
219.313
 20
16.6315
 30
0.0
 11
233.313
 21
16.6315
 31
0.0
  0
LINE
  8
0
 62
     0
 10
233.313
 20
16.6315
 30
0.0
 11
233.313
 21
15.6311
 31
0.0
  0
LINE
  8
0
 62
     0
 10
233.313
 20
15.6311
 30
0.0
 11
234.112
 21
15.6311
 31
0.0
  0
LINE
  8
0
 62
     0
 10
234.112
 20
15.6311
 30
0.0
 11
234.112
 21
12.5305
 31
0.0
  0
LINE
  8
0
 62
     0
 10
234.112
 20
12.5305
 30
0.0
 11
233.313
 21
12.5305
 31
0.0
  0
LINE
  8
0
 62
     0
 10
233.313
 20
12.5305
 30
0.0
 11
233.313
 21
6.73171
 31
0.0
  0
LINE
  8
0
 62
     0
 10
233.313
 20
6.73171
 30
0.0
 11
234.112
 21
6.73171
 31
0.0
  0
LINE
  8
0
 62
     0
 10
234.112
 20
6.73171
 30
0.0
 11
234.112
 21
3.63114
 31
0.0
  0
LINE
  8
0
 62
     0
 10
234.112
 20
3.63114
 30
0.0
 11
233.313
 21
3.63114
 31
0.0
  0
LINE
  8
0
 62
     0
 10
235.694
 20
60.7811
 30
0.0
 11
235.694
 21
59.7807
 31
0.0
  0
LINE
  8
0
 62
     0
 10
235.694
 20
59.7807
 30
0.0
 11
221.693
 21
59.7807
 31
0.0
  0
LINE
  8
0
 62
     0
 10
221.693
 20
59.7807
 30
0.0
 11
221.693
 21
60.7811
 31
0.0
  0
LINE
  8
0
 62
     0
 10
221.693
 20
60.7811
 30
0.0
 11
220.894
 21
60.7811
 31
0.0
  0
LINE
  8
0
 62
     0
 10
220.894
 20
60.7811
 30
0.0
 11
220.894
 21
63.8817
 31
0.0
  0
LINE
  8
0
 62
     0
 10
220.894
 20
63.8817
 30
0.0
 11
221.693
 21
63.8817
 31
0.0
  0
LINE
  8
0
 62
     0
 10
221.693
 20
63.8817
 30
0.0
 11
221.693
 21
69.6807
 31
0.0
  0
LINE
  8
0
 62
     0
 10
221.693
 20
69.6807
 30
0.0
 11
220.894
 21
69.6807
 31
0.0
  0
LINE
  8
0
 62
     0
 10
220.894
 20
69.6807
 30
0.0
 11
220.894
 21
72.7812
 31
0.0
  0
LINE
  8
0
 62
     0
 10
220.894
 20
72.7812
 30
0.0
 11
221.693
 21
72.7812
 31
0.0
  0
LINE
  8
0
 62
     0
 10
221.693
 20
72.7812
 30
0.0
 11
221.693
 21
73.7817
 31
0.0
  0
LINE
  8
0
 62
     0
 10
221.693
 20
73.7817
 30
0.0
 11
235.694
 21
73.7817
 31
0.0
  0
LINE
  8
0
 62
     0
 10
235.694
 20
73.7817
 30
0.0
 11
235.694
 21
72.7812
 31
0.0
  0
LINE
  8
0
 62
     0
 10
235.694
 20
72.7812
 30
0.0
 11
236.493
 21
72.7812
 31
0.0
  0
LINE
  8
0
 62
     0
 10
236.493
 20
72.7812
 30
0.0
 11
236.493
 21
69.6807
 31
0.0
  0
LINE
  8
0
 62
     0
 10
236.493
 20
69.6807
 30
0.0
 11
235.694
 21
69.6807
 31
0.0
  0
LINE
  8
0
 62
     0
 10
235.694
 20
69.6807
 30
0.0
 11
235.694
 21
63.8817
 31
0.0
  0
LINE
  8
0
 62
     0
 10
235.694
 20
63.8817
 30
0.0
 11
236.493
 21
63.8817
 31
0.0
  0
LINE
  8
0
 62
     0
 10
236.493
 20
63.8817
 30
0.0
 11
236.493
 21
60.7811
 31
0.0
  0
LINE
  8
0
 62
     0
 10
236.493
 20
60.7811
 30
0.0
 11
235.694
 21
60.7811
 31
0.0
  0
LINE
  8
0
 62
     0
 10
240.457
 20
41.7311
 30
0.0
 11
240.457
 21
40.7307
 31
0.0
  0
LINE
  8
0
 62
     0
 10
240.457
 20
40.7307
 30
0.0
 11
226.457
 21
40.7307
 31
0.0
  0
LINE
  8
0
 62
     0
 10
226.457
 20
40.7307
 30
0.0
 11
226.457
 21
41.7311
 31
0.0
  0
LINE
  8
0
 62
     0
 10
226.457
 20
41.7311
 30
0.0
 11
225.656
 21
41.7311
 31
0.0
  0
LINE
  8
0
 62
     0
 10
225.656
 20
41.7311
 30
0.0
 11
225.656
 21
44.8317
 31
0.0
  0
LINE
  8
0
 62
     0
 10
225.656
 20
44.8317
 30
0.0
 11
226.457
 21
44.8317
 31
0.0
  0
LINE
  8
0
 62
     0
 10
226.457
 20
44.8317
 30
0.0
 11
226.457
 21
50.6307
 31
0.0
  0
LINE
  8
0
 62
     0
 10
226.457
 20
50.6307
 30
0.0
 11
225.656
 21
50.6307
 31
0.0
  0
LINE
  8
0
 62
     0
 10
225.656
 20
50.6307
 30
0.0
 11
225.656
 21
53.7312
 31
0.0
  0
LINE
  8
0
 62
     0
 10
225.656
 20
53.7312
 30
0.0
 11
226.457
 21
53.7312
 31
0.0
  0
LINE
  8
0
 62
     0
 10
226.457
 20
53.7312
 30
0.0
 11
226.457
 21
54.7317
 31
0.0
  0
LINE
  8
0
 62
     0
 10
226.457
 20
54.7317
 30
0.0
 11
240.457
 21
54.7317
 31
0.0
  0
LINE
  8
0
 62
     0
 10
240.457
 20
54.7317
 30
0.0
 11
240.457
 21
53.7312
 31
0.0
  0
LINE
  8
0
 62
     0
 10
240.457
 20
53.7312
 30
0.0
 11
241.257
 21
53.7312
 31
0.0
  0
LINE
  8
0
 62
     0
 10
241.257
 20
53.7312
 30
0.0
 11
241.257
 21
50.6307
 31
0.0
  0
LINE
  8
0
 62
     0
 10
241.257
 20
50.6307
 30
0.0
 11
240.457
 21
50.6307
 31
0.0
  0
LINE
  8
0
 62
     0
 10
240.457
 20
50.6307
 30
0.0
 11
240.457
 21
44.8317
 31
0.0
  0
LINE
  8
0
 62
     0
 10
240.457
 20
44.8317
 30
0.0
 11
241.257
 21
44.8317
 31
0.0
  0
LINE
  8
0
 62
     0
 10
241.257
 20
44.8317
 30
0.0
 11
241.257
 21
41.7311
 31
0.0
  0
LINE
  8
0
 62
     0
 10
241.257
 20
41.7311
 30
0.0
 11
240.457
 21
41.7311
 31
0.0
  0
LINE
  8
0
 62
     0
 10
245.219
 20
98.8811
 30
0.0
 11
245.219
 21
97.8807
 31
0.0
  0
LINE
  8
0
 62
     0
 10
245.219
 20
97.8807
 30
0.0
 11
231.218
 21
97.8807
 31
0.0
  0
LINE
  8
0
 62
     0
 10
231.218
 20
97.8807
 30
0.0
 11
231.218
 21
98.8811
 31
0.0
  0
LINE
  8
0
 62
     0
 10
231.218
 20
98.8811
 30
0.0
 11
230.419
 21
98.8811
 31
0.0
  0
LINE
  8
0
 62
     0
 10
230.419
 20
98.8811
 30
0.0
 11
230.419
 21
101.982
 31
0.0
  0
LINE
  8
0
 62
     0
 10
230.419
 20
101.982
 30
0.0
 11
231.218
 21
101.982
 31
0.0
  0
LINE
  8
0
 62
     0
 10
231.218
 20
101.982
 30
0.0
 11
231.218
 21
107.781
 31
0.0
  0
LINE
  8
0
 62
     0
 10
231.218
 20
107.781
 30
0.0
 11
230.419
 21
107.781
 31
0.0
  0
LINE
  8
0
 62
     0
 10
230.419
 20
107.781
 30
0.0
 11
230.419
 21
110.881
 31
0.0
  0
LINE
  8
0
 62
     0
 10
230.419
 20
110.881
 30
0.0
 11
231.218
 21
110.881
 31
0.0
  0
LINE
  8
0
 62
     0
 10
231.218
 20
110.881
 30
0.0
 11
231.218
 21
111.882
 31
0.0
  0
LINE
  8
0
 62
     0
 10
231.218
 20
111.882
 30
0.0
 11
245.219
 21
111.882
 31
0.0
  0
LINE
  8
0
 62
     0
 10
245.219
 20
111.882
 30
0.0
 11
245.219
 21
110.881
 31
0.0
  0
LINE
  8
0
 62
     0
 10
245.219
 20
110.881
 30
0.0
 11
246.018
 21
110.881
 31
0.0
  0
LINE
  8
0
 62
     0
 10
246.018
 20
110.881
 30
0.0
 11
246.018
 21
107.781
 31
0.0
  0
LINE
  8
0
 62
     0
 10
246.018
 20
107.781
 30
0.0
 11
245.219
 21
107.781
 31
0.0
  0
LINE
  8
0
 62
     0
 10
245.219
 20
107.781
 30
0.0
 11
245.219
 21
101.982
 31
0.0
  0
LINE
  8
0
 62
     0
 10
245.219
 20
101.982
 30
0.0
 11
246.018
 21
101.982
 31
0.0
  0
LINE
  8
0
 62
     0
 10
246.018
 20
101.982
 30
0.0
 11
246.018
 21
98.8811
 31
0.0
  0
LINE
  8
0
 62
     0
 10
246.018
 20
98.8811
 30
0.0
 11
245.219
 21
98.8811
 31
0.0
  0
LINE
  8
0
 62
     0
 10
245.219
 20
79.8311
 30
0.0
 11
245.219
 21
78.8307
 31
0.0
  0
LINE
  8
0
 62
     0
 10
245.219
 20
78.8307
 30
0.0
 11
231.218
 21
78.8307
 31
0.0
  0
LINE
  8
0
 62
     0
 10
231.218
 20
78.8307
 30
0.0
 11
231.218
 21
79.8311
 31
0.0
  0
LINE
  8
0
 62
     0
 10
231.218
 20
79.8311
 30
0.0
 11
230.419
 21
79.8311
 31
0.0
  0
LINE
  8
0
 62
     0
 10
230.419
 20
79.8311
 30
0.0
 11
230.419
 21
82.9317
 31
0.0
  0
LINE
  8
0
 62
     0
 10
230.419
 20
82.9317
 30
0.0
 11
231.218
 21
82.9317
 31
0.0
  0
LINE
  8
0
 62
     0
 10
231.218
 20
82.9317
 30
0.0
 11
231.218
 21
88.7307
 31
0.0
  0
LINE
  8
0
 62
     0
 10
231.218
 20
88.7307
 30
0.0
 11
230.419
 21
88.7307
 31
0.0
  0
LINE
  8
0
 62
     0
 10
230.419
 20
88.7307
 30
0.0
 11
230.419
 21
91.8312
 31
0.0
  0
LINE
  8
0
 62
     0
 10
230.419
 20
91.8312
 30
0.0
 11
231.218
 21
91.8312
 31
0.0
  0
LINE
  8
0
 62
     0
 10
231.218
 20
91.8312
 30
0.0
 11
231.218
 21
92.8317
 31
0.0
  0
LINE
  8
0
 62
     0
 10
231.218
 20
92.8317
 30
0.0
 11
245.219
 21
92.8317
 31
0.0
  0
LINE
  8
0
 62
     0
 10
245.219
 20
92.8317
 30
0.0
 11
245.219
 21
91.8312
 31
0.0
  0
LINE
  8
0
 62
     0
 10
245.219
 20
91.8312
 30
0.0
 11
246.018
 21
91.8312
 31
0.0
  0
LINE
  8
0
 62
     0
 10
246.018
 20
91.8312
 30
0.0
 11
246.018
 21
88.7307
 31
0.0
  0
LINE
  8
0
 62
     0
 10
246.018
 20
88.7307
 30
0.0
 11
245.219
 21
88.7307
 31
0.0
  0
LINE
  8
0
 62
     0
 10
245.219
 20
88.7307
 30
0.0
 11
245.219
 21
82.9317
 31
0.0
  0
LINE
  8
0
 62
     0
 10
245.219
 20
82.9317
 30
0.0
 11
246.018
 21
82.9317
 31
0.0
  0
LINE
  8
0
 62
     0
 10
246.018
 20
82.9317
 30
0.0
 11
246.018
 21
79.8311
 31
0.0
  0
LINE
  8
0
 62
     0
 10
246.018
 20
79.8311
 30
0.0
 11
245.219
 21
79.8311
 31
0.0
  0
LINE
  8
0
 62
     0
 10
254.744
 20
60.7811
 30
0.0
 11
254.744
 21
59.7807
 31
0.0
  0
LINE
  8
0
 62
     0
 10
254.744
 20
59.7807
 30
0.0
 11
240.743
 21
59.7807
 31
0.0
  0
LINE
  8
0
 62
     0
 10
240.743
 20
59.7807
 30
0.0
 11
240.743
 21
60.7811
 31
0.0
  0
LINE
  8
0
 62
     0
 10
240.743
 20
60.7811
 30
0.0
 11
239.944
 21
60.7811
 31
0.0
  0
LINE
  8
0
 62
     0
 10
239.944
 20
60.7811
 30
0.0
 11
239.944
 21
63.8817
 31
0.0
  0
LINE
  8
0
 62
     0
 10
239.944
 20
63.8817
 30
0.0
 11
240.743
 21
63.8817
 31
0.0
  0
LINE
  8
0
 62
     0
 10
240.743
 20
63.8817
 30
0.0
 11
240.743
 21
69.6807
 31
0.0
  0
LINE
  8
0
 62
     0
 10
240.743
 20
69.6807
 30
0.0
 11
239.944
 21
69.6807
 31
0.0
  0
LINE
  8
0
 62
     0
 10
239.944
 20
69.6807
 30
0.0
 11
239.944
 21
72.7812
 31
0.0
  0
LINE
  8
0
 62
     0
 10
239.944
 20
72.7812
 30
0.0
 11
240.743
 21
72.7812
 31
0.0
  0
LINE
  8
0
 62
     0
 10
240.743
 20
72.7812
 30
0.0
 11
240.743
 21
73.7817
 31
0.0
  0
LINE
  8
0
 62
     0
 10
240.743
 20
73.7817
 30
0.0
 11
254.744
 21
73.7817
 31
0.0
  0
LINE
  8
0
 62
     0
 10
254.744
 20
73.7817
 30
0.0
 11
254.744
 21
72.7812
 31
0.0
  0
LINE
  8
0
 62
     0
 10
254.744
 20
72.7812
 30
0.0
 11
255.543
 21
72.7812
 31
0.0
  0
LINE
  8
0
 62
     0
 10
255.543
 20
72.7812
 30
0.0
 11
255.543
 21
69.6807
 31
0.0
  0
LINE
  8
0
 62
     0
 10
255.543
 20
69.6807
 30
0.0
 11
254.744
 21
69.6807
 31
0.0
  0
LINE
  8
0
 62
     0
 10
254.744
 20
69.6807
 30
0.0
 11
254.744
 21
63.8817
 31
0.0
  0
LINE
  8
0
 62
     0
 10
254.744
 20
63.8817
 30
0.0
 11
255.543
 21
63.8817
 31
0.0
  0
LINE
  8
0
 62
     0
 10
255.543
 20
63.8817
 30
0.0
 11
255.543
 21
60.7811
 31
0.0
  0
LINE
  8
0
 62
     0
 10
255.543
 20
60.7811
 30
0.0
 11
254.744
 21
60.7811
 31
0.0
  0
LINE
  8
0
 62
     0
 10
257.125
 20
3.63114
 30
0.0
 11
257.125
 21
2.63067
 31
0.0
  0
LINE
  8
0
 62
     0
 10
257.125
 20
2.63067
 30
0.0
 11
243.125
 21
2.63067
 31
0.0
  0
LINE
  8
0
 62
     0
 10
243.125
 20
2.63067
 30
0.0
 11
243.125
 21
3.63114
 31
0.0
  0
LINE
  8
0
 62
     0
 10
243.125
 20
3.63114
 30
0.0
 11
242.325
 21
3.63114
 31
0.0
  0
LINE
  8
0
 62
     0
 10
242.325
 20
3.63114
 30
0.0
 11
242.325
 21
6.73171
 31
0.0
  0
LINE
  8
0
 62
     0
 10
242.325
 20
6.73171
 30
0.0
 11
243.125
 21
6.73171
 31
0.0
  0
LINE
  8
0
 62
     0
 10
243.125
 20
6.73171
 30
0.0
 11
243.125
 21
12.5305
 31
0.0
  0
LINE
  8
0
 62
     0
 10
243.125
 20
12.5305
 30
0.0
 11
242.325
 21
12.5305
 31
0.0
  0
LINE
  8
0
 62
     0
 10
242.325
 20
12.5305
 30
0.0
 11
242.325
 21
15.6311
 31
0.0
  0
LINE
  8
0
 62
     0
 10
242.325
 20
15.6311
 30
0.0
 11
243.125
 21
15.6311
 31
0.0
  0
LINE
  8
0
 62
     0
 10
243.125
 20
15.6311
 30
0.0
 11
243.125
 21
16.6315
 31
0.0
  0
LINE
  8
0
 62
     0
 10
243.125
 20
16.6315
 30
0.0
 11
257.125
 21
16.6315
 31
0.0
  0
LINE
  8
0
 62
     0
 10
257.125
 20
16.6315
 30
0.0
 11
257.125
 21
15.6311
 31
0.0
  0
LINE
  8
0
 62
     0
 10
257.125
 20
15.6311
 30
0.0
 11
257.925
 21
15.6311
 31
0.0
  0
LINE
  8
0
 62
     0
 10
257.925
 20
15.6311
 30
0.0
 11
257.925
 21
12.5305
 31
0.0
  0
LINE
  8
0
 62
     0
 10
257.925
 20
12.5305
 30
0.0
 11
257.125
 21
12.5305
 31
0.0
  0
LINE
  8
0
 62
     0
 10
257.125
 20
12.5305
 30
0.0
 11
257.125
 21
6.73171
 31
0.0
  0
LINE
  8
0
 62
     0
 10
257.125
 20
6.73171
 30
0.0
 11
257.925
 21
6.73171
 31
0.0
  0
LINE
  8
0
 62
     0
 10
257.925
 20
6.73171
 30
0.0
 11
257.925
 21
3.63114
 31
0.0
  0
LINE
  8
0
 62
     0
 10
257.925
 20
3.63114
 30
0.0
 11
257.125
 21
3.63114
 31
0.0
  0
LINE
  8
0
 62
     0
 10
264.269
 20
98.8811
 30
0.0
 11
264.269
 21
97.8807
 31
0.0
  0
LINE
  8
0
 62
     0
 10
264.269
 20
97.8807
 30
0.0
 11
250.268
 21
97.8807
 31
0.0
  0
LINE
  8
0
 62
     0
 10
250.268
 20
97.8807
 30
0.0
 11
250.268
 21
98.8811
 31
0.0
  0
LINE
  8
0
 62
     0
 10
250.268
 20
98.8811
 30
0.0
 11
249.469
 21
98.8811
 31
0.0
  0
LINE
  8
0
 62
     0
 10
249.469
 20
98.8811
 30
0.0
 11
249.469
 21
101.982
 31
0.0
  0
LINE
  8
0
 62
     0
 10
249.469
 20
101.982
 30
0.0
 11
250.268
 21
101.982
 31
0.0
  0
LINE
  8
0
 62
     0
 10
250.268
 20
101.982
 30
0.0
 11
250.268
 21
107.781
 31
0.0
  0
LINE
  8
0
 62
     0
 10
250.268
 20
107.781
 30
0.0
 11
249.469
 21
107.781
 31
0.0
  0
LINE
  8
0
 62
     0
 10
249.469
 20
107.781
 30
0.0
 11
249.469
 21
110.881
 31
0.0
  0
LINE
  8
0
 62
     0
 10
249.469
 20
110.881
 30
0.0
 11
250.268
 21
110.881
 31
0.0
  0
LINE
  8
0
 62
     0
 10
250.268
 20
110.881
 30
0.0
 11
250.268
 21
111.882
 31
0.0
  0
LINE
  8
0
 62
     0
 10
250.268
 20
111.882
 30
0.0
 11
264.269
 21
111.882
 31
0.0
  0
LINE
  8
0
 62
     0
 10
264.269
 20
111.882
 30
0.0
 11
264.269
 21
110.881
 31
0.0
  0
LINE
  8
0
 62
     0
 10
264.269
 20
110.881
 30
0.0
 11
265.068
 21
110.881
 31
0.0
  0
LINE
  8
0
 62
     0
 10
265.068
 20
110.881
 30
0.0
 11
265.068
 21
107.781
 31
0.0
  0
LINE
  8
0
 62
     0
 10
265.068
 20
107.781
 30
0.0
 11
264.269
 21
107.781
 31
0.0
  0
LINE
  8
0
 62
     0
 10
264.269
 20
107.781
 30
0.0
 11
264.269
 21
101.982
 31
0.0
  0
LINE
  8
0
 62
     0
 10
264.269
 20
101.982
 30
0.0
 11
265.068
 21
101.982
 31
0.0
  0
LINE
  8
0
 62
     0
 10
265.068
 20
101.982
 30
0.0
 11
265.068
 21
98.8811
 31
0.0
  0
LINE
  8
0
 62
     0
 10
265.068
 20
98.8811
 30
0.0
 11
264.269
 21
98.8811
 31
0.0
  0
LINE
  8
0
 62
     0
 10
274.875
 20
28.1809
 30
0.0
 11
274.875
 21
21.9108
 31
0.0
  0
LINE
  8
0
 62
     0
 10
274.875
 20
21.9108
 30
0.0
 11
273.25
 21
21.9108
 31
0.0
  0
LINE
  8
0
 62
     0
 10
273.25
 20
21.9108
 30
0.0
 11
273.25
 21
20.931
 31
0.0
  0
LINE
  8
0
 62
     0
 10
273.25
 20
20.931
 30
0.0
 11
269.949
 21
20.931
 31
0.0
  0
LINE
  8
0
 62
     0
 10
269.949
 20
20.931
 30
0.0
 11
269.949
 21
21.9108
 31
0.0
  0
LINE
  8
0
 62
     0
 10
269.949
 20
21.9108
 30
0.0
 11
268.224
 21
21.9108
 31
0.0
  0
LINE
  8
0
 62
     0
 10
268.224
 20
21.9108
 30
0.0
 11
268.224
 21
22.7114
 31
0.0
  0
LINE
  8
0
 62
     0
 10
268.224
 20
22.7114
 30
0.0
 11
267.45
 21
22.7114
 31
0.0
  0
LINE
  8
0
 62
     0
 10
267.45
 20
22.7114
 30
0.0
 11
267.45
 21
22.6811
 31
0.0
  0
LINE
  8
0
 62
     0
 10
267.45
 20
22.6811
 30
0.0
 11
266.65
 21
22.6811
 31
0.0
  0
LINE
  8
0
 62
     0
 10
266.65
 20
22.6811
 30
0.0
 11
266.65
 21
21.6807
 31
0.0
  0
LINE
  8
0
 62
     0
 10
266.65
 20
21.6807
 30
0.0
 11
252.65
 21
21.6807
 31
0.0
  0
LINE
  8
0
 62
     0
 10
252.65
 20
21.6807
 30
0.0
 11
252.65
 21
22.6811
 31
0.0
  0
LINE
  8
0
 62
     0
 10
252.65
 20
22.6811
 30
0.0
 11
251.85
 21
22.6811
 31
0.0
  0
LINE
  8
0
 62
     0
 10
251.85
 20
22.6811
 30
0.0
 11
251.85
 21
22.7114
 31
0.0
  0
LINE
  8
0
 62
     0
 10
251.85
 20
22.7114
 30
0.0
 11
251.074
 21
22.7114
 31
0.0
  0
LINE
  8
0
 62
     0
 10
251.074
 20
22.7114
 30
0.0
 11
251.074
 21
21.9108
 31
0.0
  0
LINE
  8
0
 62
     0
 10
251.074
 20
21.9108
 30
0.0
 11
249.349
 21
21.9108
 31
0.0
  0
LINE
  8
0
 62
     0
 10
249.349
 20
21.9108
 30
0.0
 11
249.349
 21
20.931
 31
0.0
  0
LINE
  8
0
 62
     0
 10
249.349
 20
20.931
 30
0.0
 11
246.05
 21
20.931
 31
0.0
  0
LINE
  8
0
 62
     0
 10
246.05
 20
20.931
 30
0.0
 11
246.05
 21
21.9108
 31
0.0
  0
LINE
  8
0
 62
     0
 10
246.05
 20
21.9108
 30
0.0
 11
244.425
 21
21.9108
 31
0.0
  0
LINE
  8
0
 62
     0
 10
244.425
 20
21.9108
 30
0.0
 11
244.425
 21
28.1809
 31
0.0
  0
LINE
  8
0
 62
     0
 10
244.425
 20
28.1809
 30
0.0
 11
243.55
 21
28.1809
 31
0.0
  0
LINE
  8
0
 62
     0
 10
243.55
 20
28.1809
 30
0.0
 11
243.55
 21
30.981
 31
0.0
  0
LINE
  8
0
 62
     0
 10
243.55
 20
30.981
 30
0.0
 11
244.425
 21
30.981
 31
0.0
  0
LINE
  8
0
 62
     0
 10
244.425
 20
30.981
 30
0.0
 11
244.425
 21
34.2112
 31
0.0
  0
LINE
  8
0
 62
     0
 10
244.425
 20
34.2112
 30
0.0
 11
246.05
 21
34.2112
 31
0.0
  0
LINE
  8
0
 62
     0
 10
246.05
 20
34.2112
 30
0.0
 11
246.05
 21
35.1317
 31
0.0
  0
LINE
  8
0
 62
     0
 10
246.05
 20
35.1317
 30
0.0
 11
249.349
 21
35.1317
 31
0.0
  0
LINE
  8
0
 62
     0
 10
249.349
 20
35.1317
 30
0.0
 11
249.349
 21
34.2112
 31
0.0
  0
LINE
  8
0
 62
     0
 10
249.349
 20
34.2112
 30
0.0
 11
251.074
 21
34.2112
 31
0.0
  0
LINE
  8
0
 62
     0
 10
251.074
 20
34.2112
 30
0.0
 11
251.074
 21
33.4105
 31
0.0
  0
LINE
  8
0
 62
     0
 10
251.074
 20
33.4105
 30
0.0
 11
251.85
 21
33.4105
 31
0.0
  0
LINE
  8
0
 62
     0
 10
251.85
 20
33.4105
 30
0.0
 11
251.85
 21
34.6811
 31
0.0
  0
LINE
  8
0
 62
     0
 10
251.85
 20
34.6811
 30
0.0
 11
252.65
 21
34.6811
 31
0.0
  0
LINE
  8
0
 62
     0
 10
252.65
 20
34.6811
 30
0.0
 11
252.65
 21
35.6817
 31
0.0
  0
LINE
  8
0
 62
     0
 10
252.65
 20
35.6817
 30
0.0
 11
266.65
 21
35.6817
 31
0.0
  0
LINE
  8
0
 62
     0
 10
266.65
 20
35.6817
 30
0.0
 11
266.65
 21
34.6811
 31
0.0
  0
LINE
  8
0
 62
     0
 10
266.65
 20
34.6811
 30
0.0
 11
267.45
 21
34.6811
 31
0.0
  0
LINE
  8
0
 62
     0
 10
267.45
 20
34.6811
 30
0.0
 11
267.45
 21
33.4105
 31
0.0
  0
LINE
  8
0
 62
     0
 10
267.45
 20
33.4105
 30
0.0
 11
268.224
 21
33.4105
 31
0.0
  0
LINE
  8
0
 62
     0
 10
268.224
 20
33.4105
 30
0.0
 11
268.224
 21
34.2112
 31
0.0
  0
LINE
  8
0
 62
     0
 10
268.224
 20
34.2112
 30
0.0
 11
269.949
 21
34.2112
 31
0.0
  0
LINE
  8
0
 62
     0
 10
269.949
 20
34.2112
 30
0.0
 11
269.949
 21
35.1317
 31
0.0
  0
LINE
  8
0
 62
     0
 10
269.949
 20
35.1317
 30
0.0
 11
273.25
 21
35.1317
 31
0.0
  0
LINE
  8
0
 62
     0
 10
273.25
 20
35.1317
 30
0.0
 11
273.25
 21
34.2112
 31
0.0
  0
LINE
  8
0
 62
     0
 10
273.25
 20
34.2112
 30
0.0
 11
274.875
 21
34.2112
 31
0.0
  0
LINE
  8
0
 62
     0
 10
274.875
 20
34.2112
 30
0.0
 11
274.875
 21
30.981
 31
0.0
  0
LINE
  8
0
 62
     0
 10
274.875
 20
30.981
 30
0.0
 11
275.749
 21
30.981
 31
0.0
  0
LINE
  8
0
 62
     0
 10
275.749
 20
30.981
 30
0.0
 11
275.749
 21
28.1809
 31
0.0
  0
LINE
  8
0
 62
     0
 10
275.749
 20
28.1809
 30
0.0
 11
274.875
 21
28.1809
 31
0.0
  0
LINE
  8
0
 62
     0
 10
278.557
 20
60.7811
 30
0.0
 11
278.557
 21
59.7807
 31
0.0
  0
LINE
  8
0
 62
     0
 10
278.557
 20
59.7807
 30
0.0
 11
264.557
 21
59.7807
 31
0.0
  0
LINE
  8
0
 62
     0
 10
264.557
 20
59.7807
 30
0.0
 11
264.557
 21
60.7811
 31
0.0
  0
LINE
  8
0
 62
     0
 10
264.557
 20
60.7811
 30
0.0
 11
263.756
 21
60.7811
 31
0.0
  0
LINE
  8
0
 62
     0
 10
263.756
 20
60.7811
 30
0.0
 11
263.756
 21
63.8817
 31
0.0
  0
LINE
  8
0
 62
     0
 10
263.756
 20
63.8817
 30
0.0
 11
264.557
 21
63.8817
 31
0.0
  0
LINE
  8
0
 62
     0
 10
264.557
 20
63.8817
 30
0.0
 11
264.557
 21
69.6807
 31
0.0
  0
LINE
  8
0
 62
     0
 10
264.557
 20
69.6807
 30
0.0
 11
263.756
 21
69.6807
 31
0.0
  0
LINE
  8
0
 62
     0
 10
263.756
 20
69.6807
 30
0.0
 11
263.756
 21
72.7812
 31
0.0
  0
LINE
  8
0
 62
     0
 10
263.756
 20
72.7812
 30
0.0
 11
264.557
 21
72.7812
 31
0.0
  0
LINE
  8
0
 62
     0
 10
264.557
 20
72.7812
 30
0.0
 11
264.557
 21
73.7817
 31
0.0
  0
LINE
  8
0
 62
     0
 10
264.557
 20
73.7817
 30
0.0
 11
278.557
 21
73.7817
 31
0.0
  0
LINE
  8
0
 62
     0
 10
278.557
 20
73.7817
 30
0.0
 11
278.557
 21
72.7812
 31
0.0
  0
LINE
  8
0
 62
     0
 10
278.557
 20
72.7812
 30
0.0
 11
279.357
 21
72.7812
 31
0.0
  0
LINE
  8
0
 62
     0
 10
279.357
 20
72.7812
 30
0.0
 11
279.357
 21
69.6807
 31
0.0
  0
LINE
  8
0
 62
     0
 10
279.357
 20
69.6807
 30
0.0
 11
278.557
 21
69.6807
 31
0.0
  0
LINE
  8
0
 62
     0
 10
278.557
 20
69.6807
 30
0.0
 11
278.557
 21
63.8817
 31
0.0
  0
LINE
  8
0
 62
     0
 10
278.557
 20
63.8817
 30
0.0
 11
279.357
 21
63.8817
 31
0.0
  0
LINE
  8
0
 62
     0
 10
279.357
 20
63.8817
 30
0.0
 11
279.357
 21
60.7811
 31
0.0
  0
LINE
  8
0
 62
     0
 10
279.357
 20
60.7811
 30
0.0
 11
278.557
 21
60.7811
 31
0.0
  0
LINE
  8
0
 62
     0
 10
279.638
 20
47.2309
 30
0.0
 11
279.638
 21
40.9607
 31
0.0
  0
LINE
  8
0
 62
     0
 10
279.638
 20
40.9607
 30
0.0
 11
278.012
 21
40.9607
 31
0.0
  0
LINE
  8
0
 62
     0
 10
278.012
 20
40.9607
 30
0.0
 11
278.012
 21
39.981
 31
0.0
  0
LINE
  8
0
 62
     0
 10
278.012
 20
39.981
 30
0.0
 11
274.713
 21
39.981
 31
0.0
  0
LINE
  8
0
 62
     0
 10
274.713
 20
39.981
 30
0.0
 11
274.713
 21
40.9607
 31
0.0
  0
LINE
  8
0
 62
     0
 10
274.713
 20
40.9607
 30
0.0
 11
272.988
 21
40.9607
 31
0.0
  0
LINE
  8
0
 62
     0
 10
272.988
 20
40.9607
 30
0.0
 11
272.988
 21
41.7615
 31
0.0
  0
LINE
  8
0
 62
     0
 10
272.988
 20
41.7615
 30
0.0
 11
272.212
 21
41.7615
 31
0.0
  0
LINE
  8
0
 62
     0
 10
272.212
 20
41.7615
 30
0.0
 11
272.212
 21
41.7311
 31
0.0
  0
LINE
  8
0
 62
     0
 10
272.212
 20
41.7311
 30
0.0
 11
271.413
 21
41.7311
 31
0.0
  0
LINE
  8
0
 62
     0
 10
271.413
 20
41.7311
 30
0.0
 11
271.413
 21
40.7307
 31
0.0
  0
LINE
  8
0
 62
     0
 10
271.413
 20
40.7307
 30
0.0
 11
257.413
 21
40.7307
 31
0.0
  0
LINE
  8
0
 62
     0
 10
257.413
 20
40.7307
 30
0.0
 11
257.413
 21
41.7311
 31
0.0
  0
LINE
  8
0
 62
     0
 10
257.413
 20
41.7311
 30
0.0
 11
256.613
 21
41.7311
 31
0.0
  0
LINE
  8
0
 62
     0
 10
256.613
 20
41.7311
 30
0.0
 11
256.613
 21
41.7615
 31
0.0
  0
LINE
  8
0
 62
     0
 10
256.613
 20
41.7615
 30
0.0
 11
255.838
 21
41.7615
 31
0.0
  0
LINE
  8
0
 62
     0
 10
255.838
 20
41.7615
 30
0.0
 11
255.838
 21
40.9607
 31
0.0
  0
LINE
  8
0
 62
     0
 10
255.838
 20
40.9607
 30
0.0
 11
254.113
 21
40.9607
 31
0.0
  0
LINE
  8
0
 62
     0
 10
254.113
 20
40.9607
 30
0.0
 11
254.113
 21
39.981
 31
0.0
  0
LINE
  8
0
 62
     0
 10
254.113
 20
39.981
 30
0.0
 11
250.813
 21
39.981
 31
0.0
  0
LINE
  8
0
 62
     0
 10
250.813
 20
39.981
 30
0.0
 11
250.813
 21
40.9607
 31
0.0
  0
LINE
  8
0
 62
     0
 10
250.813
 20
40.9607
 30
0.0
 11
249.188
 21
40.9607
 31
0.0
  0
LINE
  8
0
 62
     0
 10
249.188
 20
40.9607
 30
0.0
 11
249.188
 21
47.2309
 31
0.0
  0
LINE
  8
0
 62
     0
 10
249.188
 20
47.2309
 30
0.0
 11
248.313
 21
47.2309
 31
0.0
  0
LINE
  8
0
 62
     0
 10
248.313
 20
47.2309
 30
0.0
 11
248.313
 21
50.0309
 31
0.0
  0
LINE
  8
0
 62
     0
 10
248.313
 20
50.0309
 30
0.0
 11
249.188
 21
50.0309
 31
0.0
  0
LINE
  8
0
 62
     0
 10
249.188
 20
50.0309
 30
0.0
 11
249.188
 21
53.2613
 31
0.0
  0
LINE
  8
0
 62
     0
 10
249.188
 20
53.2613
 30
0.0
 11
250.813
 21
53.2613
 31
0.0
  0
LINE
  8
0
 62
     0
 10
250.813
 20
53.2613
 30
0.0
 11
250.813
 21
54.1817
 31
0.0
  0
LINE
  8
0
 62
     0
 10
250.813
 20
54.1817
 30
0.0
 11
254.113
 21
54.1817
 31
0.0
  0
LINE
  8
0
 62
     0
 10
254.113
 20
54.1817
 30
0.0
 11
254.113
 21
53.2613
 31
0.0
  0
LINE
  8
0
 62
     0
 10
254.113
 20
53.2613
 30
0.0
 11
255.838
 21
53.2613
 31
0.0
  0
LINE
  8
0
 62
     0
 10
255.838
 20
53.2613
 30
0.0
 11
255.838
 21
52.4605
 31
0.0
  0
LINE
  8
0
 62
     0
 10
255.838
 20
52.4605
 30
0.0
 11
256.613
 21
52.4605
 31
0.0
  0
LINE
  8
0
 62
     0
 10
256.613
 20
52.4605
 30
0.0
 11
256.613
 21
53.7312
 31
0.0
  0
LINE
  8
0
 62
     0
 10
256.613
 20
53.7312
 30
0.0
 11
257.413
 21
53.7312
 31
0.0
  0
LINE
  8
0
 62
     0
 10
257.413
 20
53.7312
 30
0.0
 11
257.413
 21
54.7317
 31
0.0
  0
LINE
  8
0
 62
     0
 10
257.413
 20
54.7317
 30
0.0
 11
271.413
 21
54.7317
 31
0.0
  0
LINE
  8
0
 62
     0
 10
271.413
 20
54.7317
 30
0.0
 11
271.413
 21
53.7312
 31
0.0
  0
LINE
  8
0
 62
     0
 10
271.413
 20
53.7312
 30
0.0
 11
272.212
 21
53.7312
 31
0.0
  0
LINE
  8
0
 62
     0
 10
272.212
 20
53.7312
 30
0.0
 11
272.212
 21
52.4605
 31
0.0
  0
LINE
  8
0
 62
     0
 10
272.212
 20
52.4605
 30
0.0
 11
272.988
 21
52.4605
 31
0.0
  0
LINE
  8
0
 62
     0
 10
272.988
 20
52.4605
 30
0.0
 11
272.988
 21
53.2613
 31
0.0
  0
LINE
  8
0
 62
     0
 10
272.988
 20
53.2613
 30
0.0
 11
274.713
 21
53.2613
 31
0.0
  0
LINE
  8
0
 62
     0
 10
274.713
 20
53.2613
 30
0.0
 11
274.713
 21
54.1817
 31
0.0
  0
LINE
  8
0
 62
     0
 10
274.713
 20
54.1817
 30
0.0
 11
278.012
 21
54.1817
 31
0.0
  0
LINE
  8
0
 62
     0
 10
278.012
 20
54.1817
 30
0.0
 11
278.012
 21
53.2613
 31
0.0
  0
LINE
  8
0
 62
     0
 10
278.012
 20
53.2613
 30
0.0
 11
279.638
 21
53.2613
 31
0.0
  0
LINE
  8
0
 62
     0
 10
279.638
 20
53.2613
 30
0.0
 11
279.638
 21
50.0309
 31
0.0
  0
LINE
  8
0
 62
     0
 10
279.638
 20
50.0309
 30
0.0
 11
280.512
 21
50.0309
 31
0.0
  0
LINE
  8
0
 62
     0
 10
280.512
 20
50.0309
 30
0.0
 11
280.512
 21
47.2309
 31
0.0
  0
LINE
  8
0
 62
     0
 10
280.512
 20
47.2309
 30
0.0
 11
279.638
 21
47.2309
 31
0.0
  0
LINE
  8
0
 62
     0
 10
280.938
 20
3.63114
 30
0.0
 11
280.938
 21
2.63067
 31
0.0
  0
LINE
  8
0
 62
     0
 10
280.938
 20
2.63067
 30
0.0
 11
266.938
 21
2.63067
 31
0.0
  0
LINE
  8
0
 62
     0
 10
266.938
 20
2.63067
 30
0.0
 11
266.938
 21
3.63114
 31
0.0
  0
LINE
  8
0
 62
     0
 10
266.938
 20
3.63114
 30
0.0
 11
266.138
 21
3.63114
 31
0.0
  0
LINE
  8
0
 62
     0
 10
266.138
 20
3.63114
 30
0.0
 11
266.138
 21
6.73171
 31
0.0
  0
LINE
  8
0
 62
     0
 10
266.138
 20
6.73171
 30
0.0
 11
266.938
 21
6.73171
 31
0.0
  0
LINE
  8
0
 62
     0
 10
266.938
 20
6.73171
 30
0.0
 11
266.938
 21
12.5305
 31
0.0
  0
LINE
  8
0
 62
     0
 10
266.938
 20
12.5305
 30
0.0
 11
266.138
 21
12.5305
 31
0.0
  0
LINE
  8
0
 62
     0
 10
266.138
 20
12.5305
 30
0.0
 11
266.138
 21
15.6311
 31
0.0
  0
LINE
  8
0
 62
     0
 10
266.138
 20
15.6311
 30
0.0
 11
266.938
 21
15.6311
 31
0.0
  0
LINE
  8
0
 62
     0
 10
266.938
 20
15.6311
 30
0.0
 11
266.938
 21
16.6315
 31
0.0
  0
LINE
  8
0
 62
     0
 10
266.938
 20
16.6315
 30
0.0
 11
280.938
 21
16.6315
 31
0.0
  0
LINE
  8
0
 62
     0
 10
280.938
 20
16.6315
 30
0.0
 11
280.938
 21
15.6311
 31
0.0
  0
LINE
  8
0
 62
     0
 10
280.938
 20
15.6311
 30
0.0
 11
281.737
 21
15.6311
 31
0.0
  0
LINE
  8
0
 62
     0
 10
281.737
 20
15.6311
 30
0.0
 11
281.737
 21
12.5305
 31
0.0
  0
LINE
  8
0
 62
     0
 10
281.737
 20
12.5305
 30
0.0
 11
280.938
 21
12.5305
 31
0.0
  0
LINE
  8
0
 62
     0
 10
280.938
 20
12.5305
 30
0.0
 11
280.938
 21
6.73171
 31
0.0
  0
LINE
  8
0
 62
     0
 10
280.938
 20
6.73171
 30
0.0
 11
281.737
 21
6.73171
 31
0.0
  0
LINE
  8
0
 62
     0
 10
281.737
 20
6.73171
 30
0.0
 11
281.737
 21
3.63114
 31
0.0
  0
LINE
  8
0
 62
     0
 10
281.737
 20
3.63114
 30
0.0
 11
280.938
 21
3.63114
 31
0.0
  0
LINE
  8
0
 62
     0
 10
282.018
 20
85.3309
 30
0.0
 11
282.018
 21
79.0607
 31
0.0
  0
LINE
  8
0
 62
     0
 10
282.018
 20
79.0607
 30
0.0
 11
280.393
 21
79.0607
 31
0.0
  0
LINE
  8
0
 62
     0
 10
280.393
 20
79.0607
 30
0.0
 11
280.393
 21
78.081
 31
0.0
  0
LINE
  8
0
 62
     0
 10
280.393
 20
78.081
 30
0.0
 11
277.093
 21
78.081
 31
0.0
  0
LINE
  8
0
 62
     0
 10
277.093
 20
78.081
 30
0.0
 11
277.093
 21
79.0607
 31
0.0
  0
LINE
  8
0
 62
     0
 10
277.093
 20
79.0607
 30
0.0
 11
275.369
 21
79.0607
 31
0.0
  0
LINE
  8
0
 62
     0
 10
275.369
 20
79.0607
 30
0.0
 11
275.369
 21
79.8615
 31
0.0
  0
LINE
  8
0
 62
     0
 10
275.369
 20
79.8615
 30
0.0
 11
274.593
 21
79.8615
 31
0.0
  0
LINE
  8
0
 62
     0
 10
274.593
 20
79.8615
 30
0.0
 11
274.593
 21
79.8311
 31
0.0
  0
LINE
  8
0
 62
     0
 10
274.593
 20
79.8311
 30
0.0
 11
273.794
 21
79.8311
 31
0.0
  0
LINE
  8
0
 62
     0
 10
273.794
 20
79.8311
 30
0.0
 11
273.794
 21
78.8307
 31
0.0
  0
LINE
  8
0
 62
     0
 10
273.794
 20
78.8307
 30
0.0
 11
259.793
 21
78.8307
 31
0.0
  0
LINE
  8
0
 62
     0
 10
259.793
 20
78.8307
 30
0.0
 11
259.793
 21
79.8311
 31
0.0
  0
LINE
  8
0
 62
     0
 10
259.793
 20
79.8311
 30
0.0
 11
258.994
 21
79.8311
 31
0.0
  0
LINE
  8
0
 62
     0
 10
258.994
 20
79.8311
 30
0.0
 11
258.994
 21
79.8615
 31
0.0
  0
LINE
  8
0
 62
     0
 10
258.994
 20
79.8615
 30
0.0
 11
258.218
 21
79.8615
 31
0.0
  0
LINE
  8
0
 62
     0
 10
258.218
 20
79.8615
 30
0.0
 11
258.218
 21
79.0607
 31
0.0
  0
LINE
  8
0
 62
     0
 10
258.218
 20
79.0607
 30
0.0
 11
256.494
 21
79.0607
 31
0.0
  0
LINE
  8
0
 62
     0
 10
256.494
 20
79.0607
 30
0.0
 11
256.494
 21
78.081
 31
0.0
  0
LINE
  8
0
 62
     0
 10
256.494
 20
78.081
 30
0.0
 11
253.194
 21
78.081
 31
0.0
  0
LINE
  8
0
 62
     0
 10
253.194
 20
78.081
 30
0.0
 11
253.194
 21
79.0607
 31
0.0
  0
LINE
  8
0
 62
     0
 10
253.194
 20
79.0607
 30
0.0
 11
251.569
 21
79.0607
 31
0.0
  0
LINE
  8
0
 62
     0
 10
251.569
 20
79.0607
 30
0.0
 11
251.569
 21
85.3309
 31
0.0
  0
LINE
  8
0
 62
     0
 10
251.569
 20
85.3309
 30
0.0
 11
250.694
 21
85.3309
 31
0.0
  0
LINE
  8
0
 62
     0
 10
250.694
 20
85.3309
 30
0.0
 11
250.694
 21
88.1309
 31
0.0
  0
LINE
  8
0
 62
     0
 10
250.694
 20
88.1309
 30
0.0
 11
251.569
 21
88.1309
 31
0.0
  0
LINE
  8
0
 62
     0
 10
251.569
 20
88.1309
 30
0.0
 11
251.569
 21
91.3613
 31
0.0
  0
LINE
  8
0
 62
     0
 10
251.569
 20
91.3613
 30
0.0
 11
253.194
 21
91.3613
 31
0.0
  0
LINE
  8
0
 62
     0
 10
253.194
 20
91.3613
 30
0.0
 11
253.194
 21
92.2817
 31
0.0
  0
LINE
  8
0
 62
     0
 10
253.194
 20
92.2817
 30
0.0
 11
256.494
 21
92.2817
 31
0.0
  0
LINE
  8
0
 62
     0
 10
256.494
 20
92.2817
 30
0.0
 11
256.494
 21
91.3613
 31
0.0
  0
LINE
  8
0
 62
     0
 10
256.494
 20
91.3613
 30
0.0
 11
258.218
 21
91.3613
 31
0.0
  0
LINE
  8
0
 62
     0
 10
258.218
 20
91.3613
 30
0.0
 11
258.218
 21
90.5605
 31
0.0
  0
LINE
  8
0
 62
     0
 10
258.218
 20
90.5605
 30
0.0
 11
258.994
 21
90.5605
 31
0.0
  0
LINE
  8
0
 62
     0
 10
258.994
 20
90.5605
 30
0.0
 11
258.994
 21
91.8312
 31
0.0
  0
LINE
  8
0
 62
     0
 10
258.994
 20
91.8312
 30
0.0
 11
259.793
 21
91.8312
 31
0.0
  0
LINE
  8
0
 62
     0
 10
259.793
 20
91.8312
 30
0.0
 11
259.793
 21
92.8317
 31
0.0
  0
LINE
  8
0
 62
     0
 10
259.793
 20
92.8317
 30
0.0
 11
273.794
 21
92.8317
 31
0.0
  0
LINE
  8
0
 62
     0
 10
273.794
 20
92.8317
 30
0.0
 11
273.794
 21
91.8312
 31
0.0
  0
LINE
  8
0
 62
     0
 10
273.794
 20
91.8312
 30
0.0
 11
274.593
 21
91.8312
 31
0.0
  0
LINE
  8
0
 62
     0
 10
274.593
 20
91.8312
 30
0.0
 11
274.593
 21
90.5605
 31
0.0
  0
LINE
  8
0
 62
     0
 10
274.593
 20
90.5605
 30
0.0
 11
275.369
 21
90.5605
 31
0.0
  0
LINE
  8
0
 62
     0
 10
275.369
 20
90.5605
 30
0.0
 11
275.369
 21
91.3613
 31
0.0
  0
LINE
  8
0
 62
     0
 10
275.369
 20
91.3613
 30
0.0
 11
277.093
 21
91.3613
 31
0.0
  0
LINE
  8
0
 62
     0
 10
277.093
 20
91.3613
 30
0.0
 11
277.093
 21
92.2817
 31
0.0
  0
LINE
  8
0
 62
     0
 10
277.093
 20
92.2817
 30
0.0
 11
280.393
 21
92.2817
 31
0.0
  0
LINE
  8
0
 62
     0
 10
280.393
 20
92.2817
 30
0.0
 11
280.393
 21
91.3613
 31
0.0
  0
LINE
  8
0
 62
     0
 10
280.393
 20
91.3613
 30
0.0
 11
282.018
 21
91.3613
 31
0.0
  0
LINE
  8
0
 62
     0
 10
282.018
 20
91.3613
 30
0.0
 11
282.018
 21
88.1309
 31
0.0
  0
LINE
  8
0
 62
     0
 10
282.018
 20
88.1309
 30
0.0
 11
282.893
 21
88.1309
 31
0.0
  0
LINE
  8
0
 62
     0
 10
282.893
 20
88.1309
 30
0.0
 11
282.893
 21
85.3309
 31
0.0
  0
LINE
  8
0
 62
     0
 10
282.893
 20
85.3309
 30
0.0
 11
282.018
 21
85.3309
 31
0.0
  0
LINE
  8
0
 62
     0
 10
283.319
 20
98.8811
 30
0.0
 11
283.319
 21
97.8807
 31
0.0
  0
LINE
  8
0
 62
     0
 10
283.319
 20
97.8807
 30
0.0
 11
269.318
 21
97.8807
 31
0.0
  0
LINE
  8
0
 62
     0
 10
269.318
 20
97.8807
 30
0.0
 11
269.318
 21
98.8811
 31
0.0
  0
LINE
  8
0
 62
     0
 10
269.318
 20
98.8811
 30
0.0
 11
268.519
 21
98.8811
 31
0.0
  0
LINE
  8
0
 62
     0
 10
268.519
 20
98.8811
 30
0.0
 11
268.519
 21
101.982
 31
0.0
  0
LINE
  8
0
 62
     0
 10
268.519
 20
101.982
 30
0.0
 11
269.318
 21
101.982
 31
0.0
  0
LINE
  8
0
 62
     0
 10
269.318
 20
101.982
 30
0.0
 11
269.318
 21
107.781
 31
0.0
  0
LINE
  8
0
 62
     0
 10
269.318
 20
107.781
 30
0.0
 11
268.519
 21
107.781
 31
0.0
  0
LINE
  8
0
 62
     0
 10
268.519
 20
107.781
 30
0.0
 11
268.519
 21
110.881
 31
0.0
  0
LINE
  8
0
 62
     0
 10
268.519
 20
110.881
 30
0.0
 11
269.318
 21
110.881
 31
0.0
  0
LINE
  8
0
 62
     0
 10
269.318
 20
110.881
 30
0.0
 11
269.318
 21
111.882
 31
0.0
  0
LINE
  8
0
 62
     0
 10
269.318
 20
111.882
 30
0.0
 11
283.319
 21
111.882
 31
0.0
  0
LINE
  8
0
 62
     0
 10
283.319
 20
111.882
 30
0.0
 11
283.319
 21
110.881
 31
0.0
  0
LINE
  8
0
 62
     0
 10
283.319
 20
110.881
 30
0.0
 11
284.118
 21
110.881
 31
0.0
  0
LINE
  8
0
 62
     0
 10
284.118
 20
110.881
 30
0.0
 11
284.118
 21
107.781
 31
0.0
  0
LINE
  8
0
 62
     0
 10
284.118
 20
107.781
 30
0.0
 11
283.319
 21
107.781
 31
0.0
  0
LINE
  8
0
 62
     0
 10
283.319
 20
107.781
 30
0.0
 11
283.319
 21
101.982
 31
0.0
  0
LINE
  8
0
 62
     0
 10
283.319
 20
101.982
 30
0.0
 11
284.118
 21
101.982
 31
0.0
  0
LINE
  8
0
 62
     0
 10
284.118
 20
101.982
 30
0.0
 11
284.118
 21
98.8811
 31
0.0
  0
LINE
  8
0
 62
     0
 10
284.118
 20
98.8811
 30
0.0
 11
283.319
 21
98.8811
 31
0.0
  0
LINE
  8
0
 62
     0
 10
307.132
 20
79.8311
 30
0.0
 11
307.132
 21
78.8307
 31
0.0
  0
LINE
  8
0
 62
     0
 10
307.132
 20
78.8307
 30
0.0
 11
293.132
 21
78.8307
 31
0.0
  0
LINE
  8
0
 62
     0
 10
293.132
 20
78.8307
 30
0.0
 11
293.132
 21
79.8311
 31
0.0
  0
LINE
  8
0
 62
     0
 10
293.132
 20
79.8311
 30
0.0
 11
292.331
 21
79.8311
 31
0.0
  0
LINE
  8
0
 62
     0
 10
292.331
 20
79.8311
 30
0.0
 11
292.331
 21
82.9317
 31
0.0
  0
LINE
  8
0
 62
     0
 10
292.331
 20
82.9317
 30
0.0
 11
293.132
 21
82.9317
 31
0.0
  0
LINE
  8
0
 62
     0
 10
293.132
 20
82.9317
 30
0.0
 11
293.132
 21
88.7307
 31
0.0
  0
LINE
  8
0
 62
     0
 10
293.132
 20
88.7307
 30
0.0
 11
292.331
 21
88.7307
 31
0.0
  0
LINE
  8
0
 62
     0
 10
292.331
 20
88.7307
 30
0.0
 11
292.331
 21
91.8312
 31
0.0
  0
LINE
  8
0
 62
     0
 10
292.331
 20
91.8312
 30
0.0
 11
293.132
 21
91.8312
 31
0.0
  0
LINE
  8
0
 62
     0
 10
293.132
 20
91.8312
 30
0.0
 11
293.132
 21
92.8317
 31
0.0
  0
LINE
  8
0
 62
     0
 10
293.132
 20
92.8317
 30
0.0
 11
307.132
 21
92.8317
 31
0.0
  0
LINE
  8
0
 62
     0
 10
307.132
 20
92.8317
 30
0.0
 11
307.132
 21
91.8312
 31
0.0
  0
LINE
  8
0
 62
     0
 10
307.132
 20
91.8312
 30
0.0
 11
307.932
 21
91.8312
 31
0.0
  0
LINE
  8
0
 62
     0
 10
307.932
 20
91.8312
 30
0.0
 11
307.932
 21
88.7307
 31
0.0
  0
LINE
  8
0
 62
     0
 10
307.932
 20
88.7307
 30
0.0
 11
307.132
 21
88.7307
 31
0.0
  0
LINE
  8
0
 62
     0
 10
307.132
 20
88.7307
 30
0.0
 11
307.132
 21
82.9317
 31
0.0
  0
LINE
  8
0
 62
     0
 10
307.132
 20
82.9317
 30
0.0
 11
307.932
 21
82.9317
 31
0.0
  0
LINE
  8
0
 62
     0
 10
307.932
 20
82.9317
 30
0.0
 11
307.932
 21
79.8311
 31
0.0
  0
LINE
  8
0
 62
     0
 10
307.932
 20
79.8311
 30
0.0
 11
307.132
 21
79.8311
 31
0.0
  0
LINE
  8
0
 62
     0
 10
307.132
 20
3.63114
 30
0.0
 11
307.132
 21
2.63067
 31
0.0
  0
LINE
  8
0
 62
     0
 10
307.132
 20
2.63067
 30
0.0
 11
293.132
 21
2.63067
 31
0.0
  0
LINE
  8
0
 62
     0
 10
293.132
 20
2.63067
 30
0.0
 11
293.132
 21
3.63114
 31
0.0
  0
LINE
  8
0
 62
     0
 10
293.132
 20
3.63114
 30
0.0
 11
292.331
 21
3.63114
 31
0.0
  0
LINE
  8
0
 62
     0
 10
292.331
 20
3.63114
 30
0.0
 11
292.331
 21
6.73171
 31
0.0
  0
LINE
  8
0
 62
     0
 10
292.331
 20
6.73171
 30
0.0
 11
293.132
 21
6.73171
 31
0.0
  0
LINE
  8
0
 62
     0
 10
293.132
 20
6.73171
 30
0.0
 11
293.132
 21
12.5305
 31
0.0
  0
LINE
  8
0
 62
     0
 10
293.132
 20
12.5305
 30
0.0
 11
292.331
 21
12.5305
 31
0.0
  0
LINE
  8
0
 62
     0
 10
292.331
 20
12.5305
 30
0.0
 11
292.331
 21
15.6311
 31
0.0
  0
LINE
  8
0
 62
     0
 10
292.331
 20
15.6311
 30
0.0
 11
293.132
 21
15.6311
 31
0.0
  0
LINE
  8
0
 62
     0
 10
293.132
 20
15.6311
 30
0.0
 11
293.132
 21
16.6315
 31
0.0
  0
LINE
  8
0
 62
     0
 10
293.132
 20
16.6315
 30
0.0
 11
307.132
 21
16.6315
 31
0.0
  0
LINE
  8
0
 62
     0
 10
307.132
 20
16.6315
 30
0.0
 11
307.132
 21
15.6311
 31
0.0
  0
LINE
  8
0
 62
     0
 10
307.132
 20
15.6311
 30
0.0
 11
307.932
 21
15.6311
 31
0.0
  0
LINE
  8
0
 62
     0
 10
307.932
 20
15.6311
 30
0.0
 11
307.932
 21
12.5305
 31
0.0
  0
LINE
  8
0
 62
     0
 10
307.932
 20
12.5305
 30
0.0
 11
307.132
 21
12.5305
 31
0.0
  0
LINE
  8
0
 62
     0
 10
307.132
 20
12.5305
 30
0.0
 11
307.132
 21
6.73171
 31
0.0
  0
LINE
  8
0
 62
     0
 10
307.132
 20
6.73171
 30
0.0
 11
307.932
 21
6.73171
 31
0.0
  0
LINE
  8
0
 62
     0
 10
307.932
 20
6.73171
 30
0.0
 11
307.932
 21
3.63114
 31
0.0
  0
LINE
  8
0
 62
     0
 10
307.932
 20
3.63114
 30
0.0
 11
307.132
 21
3.63114
 31
0.0
  0
LINE
  8
0
 62
     0
 10
307.132
 20
98.8811
 30
0.0
 11
307.132
 21
97.8807
 31
0.0
  0
LINE
  8
0
 62
     0
 10
307.132
 20
97.8807
 30
0.0
 11
293.132
 21
97.8807
 31
0.0
  0
LINE
  8
0
 62
     0
 10
293.132
 20
97.8807
 30
0.0
 11
293.132
 21
98.8811
 31
0.0
  0
LINE
  8
0
 62
     0
 10
293.132
 20
98.8811
 30
0.0
 11
292.331
 21
98.8811
 31
0.0
  0
LINE
  8
0
 62
     0
 10
292.331
 20
98.8811
 30
0.0
 11
292.331
 21
101.982
 31
0.0
  0
LINE
  8
0
 62
     0
 10
292.331
 20
101.982
 30
0.0
 11
293.132
 21
101.982
 31
0.0
  0
LINE
  8
0
 62
     0
 10
293.132
 20
101.982
 30
0.0
 11
293.132
 21
107.781
 31
0.0
  0
LINE
  8
0
 62
     0
 10
293.132
 20
107.781
 30
0.0
 11
292.331
 21
107.781
 31
0.0
  0
LINE
  8
0
 62
     0
 10
292.331
 20
107.781
 30
0.0
 11
292.331
 21
110.881
 31
0.0
  0
LINE
  8
0
 62
     0
 10
292.331
 20
110.881
 30
0.0
 11
293.132
 21
110.881
 31
0.0
  0
LINE
  8
0
 62
     0
 10
293.132
 20
110.881
 30
0.0
 11
293.132
 21
111.882
 31
0.0
  0
LINE
  8
0
 62
     0
 10
293.132
 20
111.882
 30
0.0
 11
307.132
 21
111.882
 31
0.0
  0
LINE
  8
0
 62
     0
 10
307.132
 20
111.882
 30
0.0
 11
307.132
 21
110.881
 31
0.0
  0
LINE
  8
0
 62
     0
 10
307.132
 20
110.881
 30
0.0
 11
307.932
 21
110.881
 31
0.0
  0
LINE
  8
0
 62
     0
 10
307.932
 20
110.881
 30
0.0
 11
307.932
 21
107.781
 31
0.0
  0
LINE
  8
0
 62
     0
 10
307.932
 20
107.781
 30
0.0
 11
307.132
 21
107.781
 31
0.0
  0
LINE
  8
0
 62
     0
 10
307.132
 20
107.781
 30
0.0
 11
307.132
 21
101.982
 31
0.0
  0
LINE
  8
0
 62
     0
 10
307.132
 20
101.982
 30
0.0
 11
307.932
 21
101.982
 31
0.0
  0
LINE
  8
0
 62
     0
 10
307.932
 20
101.982
 30
0.0
 11
307.932
 21
98.8811
 31
0.0
  0
LINE
  8
0
 62
     0
 10
307.932
 20
98.8811
 30
0.0
 11
307.132
 21
98.8811
 31
0.0
  0
LINE
  8
0
 62
     0
 10
307.132
 20
60.7811
 30
0.0
 11
307.132
 21
59.7807
 31
0.0
  0
LINE
  8
0
 62
     0
 10
307.132
 20
59.7807
 30
0.0
 11
293.132
 21
59.7807
 31
0.0
  0
LINE
  8
0
 62
     0
 10
293.132
 20
59.7807
 30
0.0
 11
293.132
 21
60.7811
 31
0.0
  0
LINE
  8
0
 62
     0
 10
293.132
 20
60.7811
 30
0.0
 11
292.331
 21
60.7811
 31
0.0
  0
LINE
  8
0
 62
     0
 10
292.331
 20
60.7811
 30
0.0
 11
292.331
 21
63.8817
 31
0.0
  0
LINE
  8
0
 62
     0
 10
292.331
 20
63.8817
 30
0.0
 11
293.132
 21
63.8817
 31
0.0
  0
LINE
  8
0
 62
     0
 10
293.132
 20
63.8817
 30
0.0
 11
293.132
 21
69.6807
 31
0.0
  0
LINE
  8
0
 62
     0
 10
293.132
 20
69.6807
 30
0.0
 11
292.331
 21
69.6807
 31
0.0
  0
LINE
  8
0
 62
     0
 10
292.331
 20
69.6807
 30
0.0
 11
292.331
 21
72.7812
 31
0.0
  0
LINE
  8
0
 62
     0
 10
292.331
 20
72.7812
 30
0.0
 11
293.132
 21
72.7812
 31
0.0
  0
LINE
  8
0
 62
     0
 10
293.132
 20
72.7812
 30
0.0
 11
293.132
 21
73.7817
 31
0.0
  0
LINE
  8
0
 62
     0
 10
293.132
 20
73.7817
 30
0.0
 11
307.132
 21
73.7817
 31
0.0
  0
LINE
  8
0
 62
     0
 10
307.132
 20
73.7817
 30
0.0
 11
307.132
 21
72.7812
 31
0.0
  0
LINE
  8
0
 62
     0
 10
307.132
 20
72.7812
 30
0.0
 11
307.932
 21
72.7812
 31
0.0
  0
LINE
  8
0
 62
     0
 10
307.932
 20
72.7812
 30
0.0
 11
307.932
 21
69.6807
 31
0.0
  0
LINE
  8
0
 62
     0
 10
307.932
 20
69.6807
 30
0.0
 11
307.132
 21
69.6807
 31
0.0
  0
LINE
  8
0
 62
     0
 10
307.132
 20
69.6807
 30
0.0
 11
307.132
 21
63.8817
 31
0.0
  0
LINE
  8
0
 62
     0
 10
307.132
 20
63.8817
 30
0.0
 11
307.932
 21
63.8817
 31
0.0
  0
LINE
  8
0
 62
     0
 10
307.932
 20
63.8817
 30
0.0
 11
307.932
 21
60.7811
 31
0.0
  0
LINE
  8
0
 62
     0
 10
307.932
 20
60.7811
 30
0.0
 11
307.132
 21
60.7811
 31
0.0
  0
LINE
  8
0
 62
     0
 10
326.182
 20
79.8311
 30
0.0
 11
326.182
 21
78.8307
 31
0.0
  0
LINE
  8
0
 62
     0
 10
326.182
 20
78.8307
 30
0.0
 11
312.182
 21
78.8307
 31
0.0
  0
LINE
  8
0
 62
     0
 10
312.182
 20
78.8307
 30
0.0
 11
312.182
 21
79.8311
 31
0.0
  0
LINE
  8
0
 62
     0
 10
312.182
 20
79.8311
 30
0.0
 11
311.381
 21
79.8311
 31
0.0
  0
LINE
  8
0
 62
     0
 10
311.381
 20
79.8311
 30
0.0
 11
311.381
 21
82.9317
 31
0.0
  0
LINE
  8
0
 62
     0
 10
311.381
 20
82.9317
 30
0.0
 11
312.182
 21
82.9317
 31
0.0
  0
LINE
  8
0
 62
     0
 10
312.182
 20
82.9317
 30
0.0
 11
312.182
 21
88.7307
 31
0.0
  0
LINE
  8
0
 62
     0
 10
312.182
 20
88.7307
 30
0.0
 11
311.381
 21
88.7307
 31
0.0
  0
LINE
  8
0
 62
     0
 10
311.381
 20
88.7307
 30
0.0
 11
311.381
 21
91.8312
 31
0.0
  0
LINE
  8
0
 62
     0
 10
311.381
 20
91.8312
 30
0.0
 11
312.182
 21
91.8312
 31
0.0
  0
LINE
  8
0
 62
     0
 10
312.182
 20
91.8312
 30
0.0
 11
312.182
 21
92.8317
 31
0.0
  0
LINE
  8
0
 62
     0
 10
312.182
 20
92.8317
 30
0.0
 11
326.182
 21
92.8317
 31
0.0
  0
LINE
  8
0
 62
     0
 10
326.182
 20
92.8317
 30
0.0
 11
326.182
 21
91.8312
 31
0.0
  0
LINE
  8
0
 62
     0
 10
326.182
 20
91.8312
 30
0.0
 11
326.982
 21
91.8312
 31
0.0
  0
LINE
  8
0
 62
     0
 10
326.982
 20
91.8312
 30
0.0
 11
326.982
 21
88.7307
 31
0.0
  0
LINE
  8
0
 62
     0
 10
326.982
 20
88.7307
 30
0.0
 11
326.182
 21
88.7307
 31
0.0
  0
LINE
  8
0
 62
     0
 10
326.182
 20
88.7307
 30
0.0
 11
326.182
 21
82.9317
 31
0.0
  0
LINE
  8
0
 62
     0
 10
326.182
 20
82.9317
 30
0.0
 11
326.982
 21
82.9317
 31
0.0
  0
LINE
  8
0
 62
     0
 10
326.982
 20
82.9317
 30
0.0
 11
326.982
 21
79.8311
 31
0.0
  0
LINE
  8
0
 62
     0
 10
326.982
 20
79.8311
 30
0.0
 11
326.182
 21
79.8311
 31
0.0
  0
LINE
  8
0
 62
     0
 10
326.182
 20
3.63114
 30
0.0
 11
326.182
 21
2.63067
 31
0.0
  0
LINE
  8
0
 62
     0
 10
326.182
 20
2.63067
 30
0.0
 11
312.182
 21
2.63067
 31
0.0
  0
LINE
  8
0
 62
     0
 10
312.182
 20
2.63067
 30
0.0
 11
312.182
 21
3.63114
 31
0.0
  0
LINE
  8
0
 62
     0
 10
312.182
 20
3.63114
 30
0.0
 11
311.381
 21
3.63114
 31
0.0
  0
LINE
  8
0
 62
     0
 10
311.381
 20
3.63114
 30
0.0
 11
311.381
 21
6.73171
 31
0.0
  0
LINE
  8
0
 62
     0
 10
311.381
 20
6.73171
 30
0.0
 11
312.182
 21
6.73171
 31
0.0
  0
LINE
  8
0
 62
     0
 10
312.182
 20
6.73171
 30
0.0
 11
312.182
 21
12.5305
 31
0.0
  0
LINE
  8
0
 62
     0
 10
312.182
 20
12.5305
 30
0.0
 11
311.381
 21
12.5305
 31
0.0
  0
LINE
  8
0
 62
     0
 10
311.381
 20
12.5305
 30
0.0
 11
311.381
 21
15.6311
 31
0.0
  0
LINE
  8
0
 62
     0
 10
311.381
 20
15.6311
 30
0.0
 11
312.182
 21
15.6311
 31
0.0
  0
LINE
  8
0
 62
     0
 10
312.182
 20
15.6311
 30
0.0
 11
312.182
 21
16.6315
 31
0.0
  0
LINE
  8
0
 62
     0
 10
312.182
 20
16.6315
 30
0.0
 11
326.182
 21
16.6315
 31
0.0
  0
LINE
  8
0
 62
     0
 10
326.182
 20
16.6315
 30
0.0
 11
326.182
 21
15.6311
 31
0.0
  0
LINE
  8
0
 62
     0
 10
326.182
 20
15.6311
 30
0.0
 11
326.982
 21
15.6311
 31
0.0
  0
LINE
  8
0
 62
     0
 10
326.982
 20
15.6311
 30
0.0
 11
326.982
 21
12.5305
 31
0.0
  0
LINE
  8
0
 62
     0
 10
326.982
 20
12.5305
 30
0.0
 11
326.182
 21
12.5305
 31
0.0
  0
LINE
  8
0
 62
     0
 10
326.182
 20
12.5305
 30
0.0
 11
326.182
 21
6.73171
 31
0.0
  0
LINE
  8
0
 62
     0
 10
326.182
 20
6.73171
 30
0.0
 11
326.982
 21
6.73171
 31
0.0
  0
LINE
  8
0
 62
     0
 10
326.982
 20
6.73171
 30
0.0
 11
326.982
 21
3.63114
 31
0.0
  0
LINE
  8
0
 62
     0
 10
326.982
 20
3.63114
 30
0.0
 11
326.182
 21
3.63114
 31
0.0
  0
LINE
  8
0
 62
     0
 10
326.182
 20
98.8811
 30
0.0
 11
326.182
 21
97.8807
 31
0.0
  0
LINE
  8
0
 62
     0
 10
326.182
 20
97.8807
 30
0.0
 11
312.182
 21
97.8807
 31
0.0
  0
LINE
  8
0
 62
     0
 10
312.182
 20
97.8807
 30
0.0
 11
312.182
 21
98.8811
 31
0.0
  0
LINE
  8
0
 62
     0
 10
312.182
 20
98.8811
 30
0.0
 11
311.381
 21
98.8811
 31
0.0
  0
LINE
  8
0
 62
     0
 10
311.381
 20
98.8811
 30
0.0
 11
311.381
 21
101.982
 31
0.0
  0
LINE
  8
0
 62
     0
 10
311.381
 20
101.982
 30
0.0
 11
312.182
 21
101.982
 31
0.0
  0
LINE
  8
0
 62
     0
 10
312.182
 20
101.982
 30
0.0
 11
312.182
 21
107.781
 31
0.0
  0
LINE
  8
0
 62
     0
 10
312.182
 20
107.781
 30
0.0
 11
311.381
 21
107.781
 31
0.0
  0
LINE
  8
0
 62
     0
 10
311.381
 20
107.781
 30
0.0
 11
311.381
 21
110.881
 31
0.0
  0
LINE
  8
0
 62
     0
 10
311.381
 20
110.881
 30
0.0
 11
312.182
 21
110.881
 31
0.0
  0
LINE
  8
0
 62
     0
 10
312.182
 20
110.881
 30
0.0
 11
312.182
 21
111.882
 31
0.0
  0
LINE
  8
0
 62
     0
 10
312.182
 20
111.882
 30
0.0
 11
326.182
 21
111.882
 31
0.0
  0
LINE
  8
0
 62
     0
 10
326.182
 20
111.882
 30
0.0
 11
326.182
 21
110.881
 31
0.0
  0
LINE
  8
0
 62
     0
 10
326.182
 20
110.881
 30
0.0
 11
326.982
 21
110.881
 31
0.0
  0
LINE
  8
0
 62
     0
 10
326.982
 20
110.881
 30
0.0
 11
326.982
 21
107.781
 31
0.0
  0
LINE
  8
0
 62
     0
 10
326.982
 20
107.781
 30
0.0
 11
326.182
 21
107.781
 31
0.0
  0
LINE
  8
0
 62
     0
 10
326.182
 20
107.781
 30
0.0
 11
326.182
 21
101.982
 31
0.0
  0
LINE
  8
0
 62
     0
 10
326.182
 20
101.982
 30
0.0
 11
326.982
 21
101.982
 31
0.0
  0
LINE
  8
0
 62
     0
 10
326.982
 20
101.982
 30
0.0
 11
326.982
 21
98.8811
 31
0.0
  0
LINE
  8
0
 62
     0
 10
326.982
 20
98.8811
 30
0.0
 11
326.182
 21
98.8811
 31
0.0
  0
LINE
  8
0
 62
     0
 10
326.182
 20
60.7811
 30
0.0
 11
326.182
 21
59.7807
 31
0.0
  0
LINE
  8
0
 62
     0
 10
326.182
 20
59.7807
 30
0.0
 11
312.182
 21
59.7807
 31
0.0
  0
LINE
  8
0
 62
     0
 10
312.182
 20
59.7807
 30
0.0
 11
312.182
 21
60.7811
 31
0.0
  0
LINE
  8
0
 62
     0
 10
312.182
 20
60.7811
 30
0.0
 11
311.381
 21
60.7811
 31
0.0
  0
LINE
  8
0
 62
     0
 10
311.381
 20
60.7811
 30
0.0
 11
311.381
 21
63.8817
 31
0.0
  0
LINE
  8
0
 62
     0
 10
311.381
 20
63.8817
 30
0.0
 11
312.182
 21
63.8817
 31
0.0
  0
LINE
  8
0
 62
     0
 10
312.182
 20
63.8817
 30
0.0
 11
312.182
 21
69.6807
 31
0.0
  0
LINE
  8
0
 62
     0
 10
312.182
 20
69.6807
 30
0.0
 11
311.381
 21
69.6807
 31
0.0
  0
LINE
  8
0
 62
     0
 10
311.381
 20
69.6807
 30
0.0
 11
311.381
 21
72.7812
 31
0.0
  0
LINE
  8
0
 62
     0
 10
311.381
 20
72.7812
 30
0.0
 11
312.182
 21
72.7812
 31
0.0
  0
LINE
  8
0
 62
     0
 10
312.182
 20
72.7812
 30
0.0
 11
312.182
 21
73.7817
 31
0.0
  0
LINE
  8
0
 62
     0
 10
312.182
 20
73.7817
 30
0.0
 11
326.182
 21
73.7817
 31
0.0
  0
LINE
  8
0
 62
     0
 10
326.182
 20
73.7817
 30
0.0
 11
326.182
 21
72.7812
 31
0.0
  0
LINE
  8
0
 62
     0
 10
326.182
 20
72.7812
 30
0.0
 11
326.982
 21
72.7812
 31
0.0
  0
LINE
  8
0
 62
     0
 10
326.982
 20
72.7812
 30
0.0
 11
326.982
 21
69.6807
 31
0.0
  0
LINE
  8
0
 62
     0
 10
326.982
 20
69.6807
 30
0.0
 11
326.182
 21
69.6807
 31
0.0
  0
LINE
  8
0
 62
     0
 10
326.182
 20
69.6807
 30
0.0
 11
326.182
 21
63.8817
 31
0.0
  0
LINE
  8
0
 62
     0
 10
326.182
 20
63.8817
 30
0.0
 11
326.982
 21
63.8817
 31
0.0
  0
LINE
  8
0
 62
     0
 10
326.982
 20
63.8817
 30
0.0
 11
326.982
 21
60.7811
 31
0.0
  0
LINE
  8
0
 62
     0
 10
326.982
 20
60.7811
 30
0.0
 11
326.182
 21
60.7811
 31
0.0
  0
LINE
  8
0
 62
     0
 10
326.182
 20
22.6811
 30
0.0
 11
326.182
 21
21.6807
 31
0.0
  0
LINE
  8
0
 62
     0
 10
326.182
 20
21.6807
 30
0.0
 11
312.182
 21
21.6807
 31
0.0
  0
LINE
  8
0
 62
     0
 10
312.182
 20
21.6807
 30
0.0
 11
312.182
 21
22.6811
 31
0.0
  0
LINE
  8
0
 62
     0
 10
312.182
 20
22.6811
 30
0.0
 11
311.381
 21
22.6811
 31
0.0
  0
LINE
  8
0
 62
     0
 10
311.381
 20
22.6811
 30
0.0
 11
311.381
 21
25.7817
 31
0.0
  0
LINE
  8
0
 62
     0
 10
311.381
 20
25.7817
 30
0.0
 11
312.182
 21
25.7817
 31
0.0
  0
LINE
  8
0
 62
     0
 10
312.182
 20
25.7817
 30
0.0
 11
312.182
 21
31.5805
 31
0.0
  0
LINE
  8
0
 62
     0
 10
312.182
 20
31.5805
 30
0.0
 11
311.381
 21
31.5805
 31
0.0
  0
LINE
  8
0
 62
     0
 10
311.381
 20
31.5805
 30
0.0
 11
311.381
 21
34.6811
 31
0.0
  0
LINE
  8
0
 62
     0
 10
311.381
 20
34.6811
 30
0.0
 11
312.182
 21
34.6811
 31
0.0
  0
LINE
  8
0
 62
     0
 10
312.182
 20
34.6811
 30
0.0
 11
312.182
 21
35.6817
 31
0.0
  0
LINE
  8
0
 62
     0
 10
312.182
 20
35.6817
 30
0.0
 11
326.182
 21
35.6817
 31
0.0
  0
LINE
  8
0
 62
     0
 10
326.182
 20
35.6817
 30
0.0
 11
326.182
 21
34.6811
 31
0.0
  0
LINE
  8
0
 62
     0
 10
326.182
 20
34.6811
 30
0.0
 11
326.982
 21
34.6811
 31
0.0
  0
LINE
  8
0
 62
     0
 10
326.982
 20
34.6811
 30
0.0
 11
326.982
 21
31.5805
 31
0.0
  0
LINE
  8
0
 62
     0
 10
326.982
 20
31.5805
 30
0.0
 11
326.182
 21
31.5805
 31
0.0
  0
LINE
  8
0
 62
     0
 10
326.182
 20
31.5805
 30
0.0
 11
326.182
 21
25.7817
 31
0.0
  0
LINE
  8
0
 62
     0
 10
326.182
 20
25.7817
 30
0.0
 11
326.982
 21
25.7817
 31
0.0
  0
LINE
  8
0
 62
     0
 10
326.982
 20
25.7817
 30
0.0
 11
326.982
 21
22.6811
 31
0.0
  0
LINE
  8
0
 62
     0
 10
326.982
 20
22.6811
 30
0.0
 11
326.182
 21
22.6811
 31
0.0
  0
LINE
  8
0
 62
     0
 10
345.232
 20
79.8311
 30
0.0
 11
345.232
 21
78.8307
 31
0.0
  0
LINE
  8
0
 62
     0
 10
345.232
 20
78.8307
 30
0.0
 11
331.232
 21
78.8307
 31
0.0
  0
LINE
  8
0
 62
     0
 10
331.232
 20
78.8307
 30
0.0
 11
331.232
 21
79.8311
 31
0.0
  0
LINE
  8
0
 62
     0
 10
331.232
 20
79.8311
 30
0.0
 11
330.431
 21
79.8311
 31
0.0
  0
LINE
  8
0
 62
     0
 10
330.431
 20
79.8311
 30
0.0
 11
330.431
 21
82.9317
 31
0.0
  0
LINE
  8
0
 62
     0
 10
330.431
 20
82.9317
 30
0.0
 11
331.232
 21
82.9317
 31
0.0
  0
LINE
  8
0
 62
     0
 10
331.232
 20
82.9317
 30
0.0
 11
331.232
 21
88.7307
 31
0.0
  0
LINE
  8
0
 62
     0
 10
331.232
 20
88.7307
 30
0.0
 11
330.431
 21
88.7307
 31
0.0
  0
LINE
  8
0
 62
     0
 10
330.431
 20
88.7307
 30
0.0
 11
330.431
 21
91.8312
 31
0.0
  0
LINE
  8
0
 62
     0
 10
330.431
 20
91.8312
 30
0.0
 11
331.232
 21
91.8312
 31
0.0
  0
LINE
  8
0
 62
     0
 10
331.232
 20
91.8312
 30
0.0
 11
331.232
 21
92.8317
 31
0.0
  0
LINE
  8
0
 62
     0
 10
331.232
 20
92.8317
 30
0.0
 11
345.232
 21
92.8317
 31
0.0
  0
LINE
  8
0
 62
     0
 10
345.232
 20
92.8317
 30
0.0
 11
345.232
 21
91.8312
 31
0.0
  0
LINE
  8
0
 62
     0
 10
345.232
 20
91.8312
 30
0.0
 11
346.032
 21
91.8312
 31
0.0
  0
LINE
  8
0
 62
     0
 10
346.032
 20
91.8312
 30
0.0
 11
346.032
 21
88.7307
 31
0.0
  0
LINE
  8
0
 62
     0
 10
346.032
 20
88.7307
 30
0.0
 11
345.232
 21
88.7307
 31
0.0
  0
LINE
  8
0
 62
     0
 10
345.232
 20
88.7307
 30
0.0
 11
345.232
 21
82.9317
 31
0.0
  0
LINE
  8
0
 62
     0
 10
345.232
 20
82.9317
 30
0.0
 11
346.032
 21
82.9317
 31
0.0
  0
LINE
  8
0
 62
     0
 10
346.032
 20
82.9317
 30
0.0
 11
346.032
 21
79.8311
 31
0.0
  0
LINE
  8
0
 62
     0
 10
346.032
 20
79.8311
 30
0.0
 11
345.232
 21
79.8311
 31
0.0
  0
LINE
  8
0
 62
     0
 10
345.232
 20
3.63114
 30
0.0
 11
345.232
 21
2.63067
 31
0.0
  0
LINE
  8
0
 62
     0
 10
345.232
 20
2.63067
 30
0.0
 11
331.232
 21
2.63067
 31
0.0
  0
LINE
  8
0
 62
     0
 10
331.232
 20
2.63067
 30
0.0
 11
331.232
 21
3.63114
 31
0.0
  0
LINE
  8
0
 62
     0
 10
331.232
 20
3.63114
 30
0.0
 11
330.431
 21
3.63114
 31
0.0
  0
LINE
  8
0
 62
     0
 10
330.431
 20
3.63114
 30
0.0
 11
330.431
 21
6.73171
 31
0.0
  0
LINE
  8
0
 62
     0
 10
330.431
 20
6.73171
 30
0.0
 11
331.232
 21
6.73171
 31
0.0
  0
LINE
  8
0
 62
     0
 10
331.232
 20
6.73171
 30
0.0
 11
331.232
 21
12.5305
 31
0.0
  0
LINE
  8
0
 62
     0
 10
331.232
 20
12.5305
 30
0.0
 11
330.431
 21
12.5305
 31
0.0
  0
LINE
  8
0
 62
     0
 10
330.431
 20
12.5305
 30
0.0
 11
330.431
 21
15.6311
 31
0.0
  0
LINE
  8
0
 62
     0
 10
330.431
 20
15.6311
 30
0.0
 11
331.232
 21
15.6311
 31
0.0
  0
LINE
  8
0
 62
     0
 10
331.232
 20
15.6311
 30
0.0
 11
331.232
 21
16.6315
 31
0.0
  0
LINE
  8
0
 62
     0
 10
331.232
 20
16.6315
 30
0.0
 11
345.232
 21
16.6315
 31
0.0
  0
LINE
  8
0
 62
     0
 10
345.232
 20
16.6315
 30
0.0
 11
345.232
 21
15.6311
 31
0.0
  0
LINE
  8
0
 62
     0
 10
345.232
 20
15.6311
 30
0.0
 11
346.032
 21
15.6311
 31
0.0
  0
LINE
  8
0
 62
     0
 10
346.032
 20
15.6311
 30
0.0
 11
346.032
 21
12.5305
 31
0.0
  0
LINE
  8
0
 62
     0
 10
346.032
 20
12.5305
 30
0.0
 11
345.232
 21
12.5305
 31
0.0
  0
LINE
  8
0
 62
     0
 10
345.232
 20
12.5305
 30
0.0
 11
345.232
 21
6.73171
 31
0.0
  0
LINE
  8
0
 62
     0
 10
345.232
 20
6.73171
 30
0.0
 11
346.032
 21
6.73171
 31
0.0
  0
LINE
  8
0
 62
     0
 10
346.032
 20
6.73171
 30
0.0
 11
346.032
 21
3.63114
 31
0.0
  0
LINE
  8
0
 62
     0
 10
346.032
 20
3.63114
 30
0.0
 11
345.232
 21
3.63114
 31
0.0
  0
LINE
  8
0
 62
     0
 10
345.232
 20
98.8811
 30
0.0
 11
345.232
 21
97.8807
 31
0.0
  0
LINE
  8
0
 62
     0
 10
345.232
 20
97.8807
 30
0.0
 11
331.232
 21
97.8807
 31
0.0
  0
LINE
  8
0
 62
     0
 10
331.232
 20
97.8807
 30
0.0
 11
331.232
 21
98.8811
 31
0.0
  0
LINE
  8
0
 62
     0
 10
331.232
 20
98.8811
 30
0.0
 11
330.431
 21
98.8811
 31
0.0
  0
LINE
  8
0
 62
     0
 10
330.431
 20
98.8811
 30
0.0
 11
330.431
 21
101.982
 31
0.0
  0
LINE
  8
0
 62
     0
 10
330.431
 20
101.982
 30
0.0
 11
331.232
 21
101.982
 31
0.0
  0
LINE
  8
0
 62
     0
 10
331.232
 20
101.982
 30
0.0
 11
331.232
 21
107.781
 31
0.0
  0
LINE
  8
0
 62
     0
 10
331.232
 20
107.781
 30
0.0
 11
330.431
 21
107.781
 31
0.0
  0
LINE
  8
0
 62
     0
 10
330.431
 20
107.781
 30
0.0
 11
330.431
 21
110.881
 31
0.0
  0
LINE
  8
0
 62
     0
 10
330.431
 20
110.881
 30
0.0
 11
331.232
 21
110.881
 31
0.0
  0
LINE
  8
0
 62
     0
 10
331.232
 20
110.881
 30
0.0
 11
331.232
 21
111.882
 31
0.0
  0
LINE
  8
0
 62
     0
 10
331.232
 20
111.882
 30
0.0
 11
345.232
 21
111.882
 31
0.0
  0
LINE
  8
0
 62
     0
 10
345.232
 20
111.882
 30
0.0
 11
345.232
 21
110.881
 31
0.0
  0
LINE
  8
0
 62
     0
 10
345.232
 20
110.881
 30
0.0
 11
346.032
 21
110.881
 31
0.0
  0
LINE
  8
0
 62
     0
 10
346.032
 20
110.881
 30
0.0
 11
346.032
 21
107.781
 31
0.0
  0
LINE
  8
0
 62
     0
 10
346.032
 20
107.781
 30
0.0
 11
345.232
 21
107.781
 31
0.0
  0
LINE
  8
0
 62
     0
 10
345.232
 20
107.781
 30
0.0
 11
345.232
 21
101.982
 31
0.0
  0
LINE
  8
0
 62
     0
 10
345.232
 20
101.982
 30
0.0
 11
346.032
 21
101.982
 31
0.0
  0
LINE
  8
0
 62
     0
 10
346.032
 20
101.982
 30
0.0
 11
346.032
 21
98.8811
 31
0.0
  0
LINE
  8
0
 62
     0
 10
346.032
 20
98.8811
 30
0.0
 11
345.232
 21
98.8811
 31
0.0
  0
LINE
  8
0
 62
     0
 10
345.232
 20
60.7811
 30
0.0
 11
345.232
 21
59.7807
 31
0.0
  0
LINE
  8
0
 62
     0
 10
345.232
 20
59.7807
 30
0.0
 11
331.232
 21
59.7807
 31
0.0
  0
LINE
  8
0
 62
     0
 10
331.232
 20
59.7807
 30
0.0
 11
331.232
 21
60.7811
 31
0.0
  0
LINE
  8
0
 62
     0
 10
331.232
 20
60.7811
 30
0.0
 11
330.431
 21
60.7811
 31
0.0
  0
LINE
  8
0
 62
     0
 10
330.431
 20
60.7811
 30
0.0
 11
330.431
 21
63.8817
 31
0.0
  0
LINE
  8
0
 62
     0
 10
330.431
 20
63.8817
 30
0.0
 11
331.232
 21
63.8817
 31
0.0
  0
LINE
  8
0
 62
     0
 10
331.232
 20
63.8817
 30
0.0
 11
331.232
 21
69.6807
 31
0.0
  0
LINE
  8
0
 62
     0
 10
331.232
 20
69.6807
 30
0.0
 11
330.431
 21
69.6807
 31
0.0
  0
LINE
  8
0
 62
     0
 10
330.431
 20
69.6807
 30
0.0
 11
330.431
 21
72.7812
 31
0.0
  0
LINE
  8
0
 62
     0
 10
330.431
 20
72.7812
 30
0.0
 11
331.232
 21
72.7812
 31
0.0
  0
LINE
  8
0
 62
     0
 10
331.232
 20
72.7812
 30
0.0
 11
331.232
 21
73.7817
 31
0.0
  0
LINE
  8
0
 62
     0
 10
331.232
 20
73.7817
 30
0.0
 11
345.232
 21
73.7817
 31
0.0
  0
LINE
  8
0
 62
     0
 10
345.232
 20
73.7817
 30
0.0
 11
345.232
 21
72.7812
 31
0.0
  0
LINE
  8
0
 62
     0
 10
345.232
 20
72.7812
 30
0.0
 11
346.032
 21
72.7812
 31
0.0
  0
LINE
  8
0
 62
     0
 10
346.032
 20
72.7812
 30
0.0
 11
346.032
 21
69.6807
 31
0.0
  0
LINE
  8
0
 62
     0
 10
346.032
 20
69.6807
 30
0.0
 11
345.232
 21
69.6807
 31
0.0
  0
LINE
  8
0
 62
     0
 10
345.232
 20
69.6807
 30
0.0
 11
345.232
 21
63.8817
 31
0.0
  0
LINE
  8
0
 62
     0
 10
345.232
 20
63.8817
 30
0.0
 11
346.032
 21
63.8817
 31
0.0
  0
LINE
  8
0
 62
     0
 10
346.032
 20
63.8817
 30
0.0
 11
346.032
 21
60.7811
 31
0.0
  0
LINE
  8
0
 62
     0
 10
346.032
 20
60.7811
 30
0.0
 11
345.232
 21
60.7811
 31
0.0
  0
ENDSEC
  0
EOF
